<svg xmlns="http://www.w3.org/2000/svg" xmlns:xlink="http://www.w3.org/1999/xlink" width="118" height="118" viewBox="0 0 118 118">
  <defs>
    <filter id="Trazado_874925" x="0" y="0" width="118" height="118" filterUnits="userSpaceOnUse">
      <feOffset dy="3" input="SourceAlpha"/>
      <feGaussianBlur stdDeviation="3" result="blur"/>
      <feFlood flood-opacity="0.161"/>
      <feComposite operator="in" in2="blur"/>
      <feComposite in="SourceGraphic"/>
    </filter>
  </defs>
  <g id="Grupo_1200421" data-name="Grupo 1200421" transform="translate(-6122.412 10126.001)">
    <g id="Grupo_1112487" data-name="Grupo 1112487" transform="translate(5322.911 -12637.158)">
      <g id="Grupo_1111316" data-name="Grupo 1111316" transform="translate(808.5 2517.157)">
        <g id="Grupo_1109835" data-name="Grupo 1109835" transform="translate(0 0)">
          <g id="Grupo_1107913" data-name="Grupo 1107913" transform="translate(0 0)">
            <g transform="matrix(1, 0, 0, 1, -9, -6)" filter="url(#Trazado_874925)">
              <g id="Trazado_874925-2" data-name="Trazado 874925" transform="translate(9 6)" fill="#9ad354" opacity="0.859">
                <path d="M 49.99972534179688 98.4998779296875 C 43.45164108276367 98.4998779296875 37.10022354125977 97.21776580810547 31.12189674377441 94.68914794921875 C 25.34676742553711 92.24647521972656 20.15985298156738 88.74925994873047 15.70523929595947 84.29464721679688 C 11.25062561035156 79.84004974365234 7.753411293029785 74.65313720703125 5.310725212097168 68.87800598144531 C 2.782111167907715 62.89969253540039 1.499996781349182 56.54829406738281 1.499996781349182 50.00022125244141 C 1.499996781349182 43.45157623291016 2.782111167907715 37.10017776489258 5.310725212097168 31.12186431884766 C 7.753411293029785 25.34673500061035 11.25062561035156 20.15983581542969 15.70523929595947 15.70522117614746 C 20.15985298156738 11.25062084197998 25.34676742553711 7.753406524658203 31.12189674377441 5.31073522567749 C 37.10022354125977 2.782120943069458 43.45164108276367 1.500006556510925 49.99972534179688 1.500006556510925 C 56.54780960083008 1.500006556510925 62.89922714233398 2.782120943069458 68.87755584716797 5.31073522567749 C 74.65267944335938 7.753406524658203 79.839599609375 11.25062084197998 84.29421234130859 15.70522117614746 C 88.74882507324219 20.15983581542969 92.24604034423828 25.34673500061035 94.68872833251953 31.12186431884766 C 97.21733856201172 37.10017776489258 98.49945068359375 43.45157623291016 98.49945068359375 49.99964904785156 C 98.49945068359375 56.54829406738281 97.21733856201172 62.89969253540039 94.68872833251953 68.87800598144531 C 92.24604034423828 74.65313720703125 88.74882507324219 79.84004974365234 84.29421234130859 84.29464721679688 C 79.839599609375 88.74925994873047 74.65267944335938 92.24647521972656 68.87755584716797 94.68914794921875 C 62.89922714233398 97.21776580810547 56.54780960083008 98.4998779296875 49.99972534179688 98.4998779296875 Z" stroke="none"/>
                <path d="M 49.99972534179688 3 C 43.65348052978516 3 37.49866485595703 4.242240905761719 31.70623016357422 6.692230224609375 C 26.10989379882812 9.059272766113281 21.08323669433594 12.44853210449219 16.76589202880859 16.76587677001953 C 12.44855499267578 21.08321380615234 9.059295654296875 26.10985565185547 6.692230224609375 31.70618438720703 C 4.24224853515625 37.49859619140625 3 43.65341186523438 3 50.00022888183594 C 3 56.34645843505859 4.24224853515625 62.50127410888672 6.692230224609375 68.29368591308594 C 9.059295654296875 73.8900146484375 12.44855499267578 78.91665649414062 16.76589202880859 83.23399353027344 C 21.08323669433594 87.55132293701172 26.10989379882812 90.94059753417969 31.70623016357422 93.30764007568359 C 37.49866485595703 95.75762939453125 43.65348052978516 96.99987030029297 49.99972534179688 96.99987030029297 C 56.34597015380859 96.99987030029297 62.50078582763672 95.75762939453125 68.293212890625 93.30764007568359 C 73.88955688476562 90.94059753417969 78.91621398925781 87.55132293701172 83.23355865478516 83.23399353027344 C 87.55089569091797 78.91665649414062 90.94015502929688 73.8900146484375 93.30722045898438 68.29368591308594 C 95.7572021484375 62.50127410888672 96.99945068359375 56.34645843505859 96.99945068359375 49.99964141845703 C 96.99945068359375 43.65341186523438 95.7572021484375 37.49859619140625 93.30722045898438 31.70618438720703 C 90.94015502929688 26.10985565185547 87.55089569091797 21.08321380615234 83.23355865478516 16.76587677001953 C 78.91621398925781 12.44853210449219 73.88955688476562 9.059272766113281 68.293212890625 6.692230224609375 C 62.50078582763672 4.242240905761719 56.34597015380859 3 49.99972534179688 3 M 49.99972534179688 0 C 77.61381530761719 0 99.99945068359375 22.38559722900391 99.99945068359375 49.99964141845703 L 99.99945068359375 50.00022888183594 C 99.99945068359375 77.6142578125 77.61381530761719 99.99987030029297 49.99972534179688 99.99987030029297 C 22.38563537597656 99.99987030029297 0 77.6142578125 0 50.00022888183594 L 0 49.99964141845703 C 0 22.38559722900391 22.38563537597656 0 49.99972534179688 0 Z" stroke="none" fill="#fff"/>
              </g>
            </g>
            <g id="Trazado_874923" data-name="Trazado 874923" transform="translate(0 0)" fill="none">
              <path d="M50,0a50,50,0,0,1,50,50h0A50,50,0,0,1,0,50H0A50,50,0,0,1,50,0Z" stroke="none"/>
              <path d="M 49.99972534179688 3 C 43.65348052978516 3 37.49866485595703 4.242240905761719 31.70623016357422 6.692230224609375 C 26.10989379882812 9.059272766113281 21.08323669433594 12.44853210449219 16.76589202880859 16.76587677001953 C 12.44855499267578 21.08321380615234 9.059295654296875 26.10985565185547 6.692230224609375 31.70618438720703 C 4.24224853515625 37.49859619140625 3 43.65341186523438 3 50.00022888183594 C 3 56.34645843505859 4.24224853515625 62.50127410888672 6.692230224609375 68.29368591308594 C 9.059295654296875 73.8900146484375 12.44855499267578 78.91665649414062 16.76589202880859 83.23399353027344 C 21.08323669433594 87.55132293701172 26.10989379882812 90.94059753417969 31.70623016357422 93.30764007568359 C 37.49866485595703 95.75762939453125 43.65348052978516 96.99987030029297 49.99972534179688 96.99987030029297 C 56.34597015380859 96.99987030029297 62.50078582763672 95.75762939453125 68.293212890625 93.30764007568359 C 73.88955688476562 90.94059753417969 78.91621398925781 87.55132293701172 83.23355865478516 83.23399353027344 C 87.55089569091797 78.91665649414062 90.94015502929688 73.8900146484375 93.30722045898438 68.29368591308594 C 95.7572021484375 62.50127410888672 96.99945068359375 56.34645843505859 96.99945068359375 49.99964141845703 C 96.99945068359375 43.65341186523438 95.7572021484375 37.49859619140625 93.30722045898438 31.70618438720703 C 90.94015502929688 26.10985565185547 87.55089569091797 21.08321380615234 83.23355865478516 16.76587677001953 C 78.91621398925781 12.44853210449219 73.88955688476562 9.059272766113281 68.293212890625 6.692230224609375 C 62.50078582763672 4.242240905761719 56.34597015380859 3 49.99972534179688 3 M 49.99972534179688 0 C 77.61381530761719 0 99.99945068359375 22.38559722900391 99.99945068359375 49.99964141845703 L 99.99945068359375 50.00022888183594 C 99.99945068359375 77.6142578125 77.61381530761719 99.99987030029297 49.99972534179688 99.99987030029297 C 22.38563537597656 99.99987030029297 0 77.6142578125 0 50.00022888183594 L 0 49.99964141845703 C 0 22.38559722900391 22.38563537597656 0 49.99972534179688 0 Z" stroke="none" fill="#fff"/>
            </g>
          </g>
        </g>
      </g>
    </g>
    <g id="discusion" transform="translate(6147 -10102)">
      <path id="Trazado_901836" data-name="Trazado 901836" d="M32,18V8H13a3,3,0,0,0-3,3V21a3,3,0,0,0,3,3H23v4l6-4h2a3,3,0,0,0,2.97-2.55v-.01A3.975,3.975,0,0,1,32,18Z" fill="#e6e9ed"/>
      <path id="Trazado_901837" data-name="Trazado 901837" d="M58,2H36a4,4,0,0,0-4,4V18a3.975,3.975,0,0,0,1.97,3.44A3.918,3.918,0,0,0,36,22h3l6,4V22H58a4,4,0,0,0,4-4V6A4,4,0,0,0,58,2Z" fill="#fcd770"/>
      <path id="Trazado_901838" data-name="Trazado 901838" d="M7,62H2V52A10,10,0,0,1,12,42c0,2.21,1.34,4,3,4s3-1.79,3-4a2.528,2.528,0,0,0-.01-.28l.39-.06A14.014,14.014,0,0,0,26.3,37.7l8.87-8.87a2.828,2.828,0,1,1,4,4L23.83,48.17a2.831,2.831,0,0,0-.83,2V62Z" fill="#fcd770"/>
      <path id="Trazado_901839" data-name="Trazado 901839" d="M47,58H36.5a2.5,2.5,0,1,1,0-5H47l1.63-5.99A6.8,6.8,0,0,1,62,48.8V62H47Z" fill="#b4dd7f"/>
      <g id="Grupo_1200420" data-name="Grupo 1200420">
        <path id="Trazado_901840" data-name="Trazado 901840" d="M17.99,41.72A2.528,2.528,0,0,1,18,42c0,2.21-1.34,4-3,4s-3-1.79-3-4h4Z" fill="#f0d0b4"/>
        <circle id="Elipse_11633" data-name="Elipse 11633" cx="7" cy="7" r="7" transform="translate(8 28)" fill="#f0d0b4"/>
        <circle id="Elipse_11634" data-name="Elipse 11634" cx="7" cy="7" r="7" transform="translate(45 28)" fill="#f0d0b4"/>
      </g>
      <path id="Trazado_901841" data-name="Trazado 901841" d="M41,30.829a3.828,3.828,0,0,0-6.535-2.707l-8.872,8.872a13.065,13.065,0,0,1-4.206,2.8A7.995,7.995,0,1,0,9.951,41.2,11.012,11.012,0,0,0,1,52V63H24V50.171a1.818,1.818,0,0,1,.535-1.293L39.879,33.535A3.8,3.8,0,0,0,41,30.829ZM16,43l.9-.125C16.642,44.087,15.881,45,15,45c-.851,0-1.59-.85-1.873-2ZM9,35a6,6,0,1,1,6,6A6.006,6.006,0,0,1,9,35Zm29.465-2.878L23.121,47.465A3.8,3.8,0,0,0,22,50.171V61H8V49H6V61H3V52a9.012,9.012,0,0,1,8.091-8.954C11.477,45.3,13.081,47,15,47c2.05,0,3.724-1.944,3.954-4.43a15.089,15.089,0,0,0,8.053-4.163l8.872-8.872A1.829,1.829,0,0,1,39,30.829a1.819,1.819,0,0,1-.535,1.293Z"/>
      <path id="Trazado_901842" data-name="Trazado 901842" d="M57.016,41.223a8,8,0,1,0-6.77,1.577,7.767,7.767,0,0,0-2.578,3.95L46.236,52H36.5a3.5,3.5,0,0,0,0,7H46v4H63V48.8A7.811,7.811,0,0,0,57.016,41.223ZM46,35a6,6,0,1,1,6,6A6.006,6.006,0,0,1,46,35ZM61,61H48V59h.838a3.993,3.993,0,0,0,3.794-2.735l3.316-9.949-1.9-.633-3.316,9.949A2,2,0,0,1,48.838,57H36.5a1.5,1.5,0,0,1,0-3H47.764L49.6,47.276A5.8,5.8,0,0,1,61,48.8Z"/>
      <path id="Trazado_901843" data-name="Trazado 901843" d="M13,11h2v2H13Z"/>
      <path id="Trazado_901844" data-name="Trazado 901844" d="M17,11H29v2H17Z"/>
      <path id="Trazado_901845" data-name="Trazado 901845" d="M13,15H29v2H13Z"/>
      <path id="Trazado_901846" data-name="Trazado 901846" d="M13,19H29v2H13Z"/>
      <path id="Trazado_901847" data-name="Trazado 901847" d="M57,9h2v2H57Z"/>
      <path id="Trazado_901848" data-name="Trazado 901848" d="M35,9H55v2H35Z"/>
      <path id="Trazado_901849" data-name="Trazado 901849" d="M35,13H59v2H35Z"/>
      <path id="Trazado_901850" data-name="Trazado 901850" d="M35,17H59v2H35Z"/>
      <path id="Trazado_901851" data-name="Trazado 901851" d="M58,1H36a5.006,5.006,0,0,0-5,5V7H13a4,4,0,0,0-4,4V21a4,4,0,0,0,4,4h9v4.869L29.3,25H31a4.016,4.016,0,0,0,3.572-2.233A4.936,4.936,0,0,0,36,23h2.7L46,27.869V23H58a5.006,5.006,0,0,0,5-5V6A5.006,5.006,0,0,0,58,1ZM31,23H28.7L24,26.131V23H13a2,2,0,0,1-2-2V11a2,2,0,0,1,2-2H31v9a4.968,4.968,0,0,0,1.814,3.821A2.006,2.006,0,0,1,31,23Zm30-5a3,3,0,0,1-3,3H44v3.131L39.3,21H36a3,3,0,0,1-3-3V6a3,3,0,0,1,3-3H58a3,3,0,0,1,3,3Z"/>
      <path id="Trazado_901852" data-name="Trazado 901852" d="M35,5h2V7H35Z"/>
      <path id="Trazado_901853" data-name="Trazado 901853" d="M39,5h2V7H39Z"/>
      <path id="Trazado_901854" data-name="Trazado 901854" d="M43,5H59V7H43Z"/>
    </g>
  </g>
</svg>
