<svg xmlns="http://www.w3.org/2000/svg" xmlns:xlink="http://www.w3.org/1999/xlink" width="117.999" height="118" viewBox="0 0 117.999 118">
  <defs>
    <filter id="Trazado_874925" x="0" y="0" width="117.999" height="118" filterUnits="userSpaceOnUse">
      <feOffset dy="3" input="SourceAlpha"/>
      <feGaussianBlur stdDeviation="3" result="blur"/>
      <feFlood flood-opacity="0.161"/>
      <feComposite operator="in" in2="blur"/>
      <feComposite in="SourceGraphic"/>
    </filter>
    <clipPath id="clip-path">
      <path id="path4434" d="M0-682.665H53.781v53.781H0Z" transform="translate(0 682.665)"/>
    </clipPath>
  </defs>
  <g id="Grupo_1200405" data-name="Grupo 1200405" transform="translate(-409.399 -1481.999)">
    <g id="Grupo_1112484" data-name="Grupo 1112484" transform="translate(-390.102 -1029.158)">
      <g id="Grupo_1111316" data-name="Grupo 1111316" transform="translate(808.5 2517.157)">
        <g id="Grupo_1109835" data-name="Grupo 1109835" transform="translate(0 0)">
          <g id="Grupo_1107913" data-name="Grupo 1107913" transform="translate(0 0)">
            <g transform="matrix(1, 0, 0, 1, -9, -6)" filter="url(#Trazado_874925)">
              <g id="Trazado_874925-2" data-name="Trazado 874925" transform="translate(9 6)" fill="#9ad354" opacity="0.859">
                <path d="M 49.99972534179688 98.4998779296875 C 43.45164108276367 98.4998779296875 37.10022354125977 97.21776580810547 31.12189674377441 94.68914794921875 C 25.34676742553711 92.24647521972656 20.15985298156738 88.74925994873047 15.70523929595947 84.29464721679688 C 11.25062561035156 79.84004974365234 7.753411293029785 74.65313720703125 5.310725212097168 68.87800598144531 C 2.782111167907715 62.89969253540039 1.499996781349182 56.54829406738281 1.499996781349182 50.00022125244141 C 1.499996781349182 43.45157623291016 2.782111167907715 37.10017776489258 5.310725212097168 31.12186431884766 C 7.753411293029785 25.34673500061035 11.25062561035156 20.15983581542969 15.70523929595947 15.70522117614746 C 20.15985298156738 11.25062084197998 25.34676742553711 7.753406524658203 31.12189674377441 5.31073522567749 C 37.10022354125977 2.782120943069458 43.45164108276367 1.500006556510925 49.99972534179688 1.500006556510925 C 56.54780960083008 1.500006556510925 62.89922714233398 2.782120943069458 68.87755584716797 5.31073522567749 C 74.65267944335938 7.753406524658203 79.839599609375 11.25062084197998 84.29421234130859 15.70522117614746 C 88.74882507324219 20.15983581542969 92.24604034423828 25.34673500061035 94.68872833251953 31.12186431884766 C 97.21733856201172 37.10017776489258 98.49945068359375 43.45157623291016 98.49945068359375 49.99964904785156 C 98.49945068359375 56.54829406738281 97.21733856201172 62.89969253540039 94.68872833251953 68.87800598144531 C 92.24604034423828 74.65313720703125 88.74882507324219 79.84004974365234 84.29421234130859 84.29464721679688 C 79.839599609375 88.74925994873047 74.65267944335938 92.24647521972656 68.87755584716797 94.68914794921875 C 62.89922714233398 97.21776580810547 56.54780960083008 98.4998779296875 49.99972534179688 98.4998779296875 Z" stroke="none"/>
                <path d="M 49.99972534179688 3 C 43.65348052978516 3 37.49866485595703 4.242240905761719 31.70623016357422 6.692230224609375 C 26.10989379882812 9.059272766113281 21.08323669433594 12.44853210449219 16.76589202880859 16.76587677001953 C 12.44855499267578 21.08321380615234 9.059295654296875 26.10985565185547 6.692230224609375 31.70618438720703 C 4.24224853515625 37.49859619140625 3 43.65341186523438 3 50.00022888183594 C 3 56.34645843505859 4.24224853515625 62.50127410888672 6.692230224609375 68.29368591308594 C 9.059295654296875 73.8900146484375 12.44855499267578 78.91665649414062 16.76589202880859 83.23399353027344 C 21.08323669433594 87.55132293701172 26.10989379882812 90.94059753417969 31.70623016357422 93.30764007568359 C 37.49866485595703 95.75762939453125 43.65348052978516 96.99987030029297 49.99972534179688 96.99987030029297 C 56.34597015380859 96.99987030029297 62.50078582763672 95.75762939453125 68.293212890625 93.30764007568359 C 73.88955688476562 90.94059753417969 78.91621398925781 87.55132293701172 83.23355865478516 83.23399353027344 C 87.55089569091797 78.91665649414062 90.94015502929688 73.8900146484375 93.30722045898438 68.29368591308594 C 95.7572021484375 62.50127410888672 96.99945068359375 56.34645843505859 96.99945068359375 49.99964141845703 C 96.99945068359375 43.65341186523438 95.7572021484375 37.49859619140625 93.30722045898438 31.70618438720703 C 90.94015502929688 26.10985565185547 87.55089569091797 21.08321380615234 83.23355865478516 16.76587677001953 C 78.91621398925781 12.44853210449219 73.88955688476562 9.059272766113281 68.293212890625 6.692230224609375 C 62.50078582763672 4.242240905761719 56.34597015380859 3 49.99972534179688 3 M 49.99972534179688 0 C 77.61381530761719 0 99.99945068359375 22.38559722900391 99.99945068359375 49.99964141845703 L 99.99945068359375 50.00022888183594 C 99.99945068359375 77.6142578125 77.61381530761719 99.99987030029297 49.99972534179688 99.99987030029297 C 22.38563537597656 99.99987030029297 0 77.6142578125 0 50.00022888183594 L 0 49.99964141845703 C 0 22.38559722900391 22.38563537597656 0 49.99972534179688 0 Z" stroke="none" fill="#fff"/>
              </g>
            </g>
            <g id="Trazado_874923" data-name="Trazado 874923" transform="translate(0 0)" fill="none">
              <path d="M50,0a50,50,0,0,1,50,50h0A50,50,0,0,1,0,50H0A50,50,0,0,1,50,0Z" stroke="none"/>
              <path d="M 49.99972534179688 3 C 43.65348052978516 3 37.49866485595703 4.242240905761719 31.70623016357422 6.692230224609375 C 26.10989379882812 9.059272766113281 21.08323669433594 12.44853210449219 16.76589202880859 16.76587677001953 C 12.44855499267578 21.08321380615234 9.059295654296875 26.10985565185547 6.692230224609375 31.70618438720703 C 4.24224853515625 37.49859619140625 3 43.65341186523438 3 50.00022888183594 C 3 56.34645843505859 4.24224853515625 62.50127410888672 6.692230224609375 68.29368591308594 C 9.059295654296875 73.8900146484375 12.44855499267578 78.91665649414062 16.76589202880859 83.23399353027344 C 21.08323669433594 87.55132293701172 26.10989379882812 90.94059753417969 31.70623016357422 93.30764007568359 C 37.49866485595703 95.75762939453125 43.65348052978516 96.99987030029297 49.99972534179688 96.99987030029297 C 56.34597015380859 96.99987030029297 62.50078582763672 95.75762939453125 68.293212890625 93.30764007568359 C 73.88955688476562 90.94059753417969 78.91621398925781 87.55132293701172 83.23355865478516 83.23399353027344 C 87.55089569091797 78.91665649414062 90.94015502929688 73.8900146484375 93.30722045898438 68.29368591308594 C 95.7572021484375 62.50127410888672 96.99945068359375 56.34645843505859 96.99945068359375 49.99964141845703 C 96.99945068359375 43.65341186523438 95.7572021484375 37.49859619140625 93.30722045898438 31.70618438720703 C 90.94015502929688 26.10985565185547 87.55089569091797 21.08321380615234 83.23355865478516 16.76587677001953 C 78.91621398925781 12.44853210449219 73.88955688476562 9.059272766113281 68.293212890625 6.692230224609375 C 62.50078582763672 4.242240905761719 56.34597015380859 3 49.99972534179688 3 M 49.99972534179688 0 C 77.61381530761719 0 99.99945068359375 22.38559722900391 99.99945068359375 49.99964141845703 L 99.99945068359375 50.00022888183594 C 99.99945068359375 77.6142578125 77.61381530761719 99.99987030029297 49.99972534179688 99.99987030029297 C 22.38563537597656 99.99987030029297 0 77.6142578125 0 50.00022888183594 L 0 49.99964141845703 C 0 22.38559722900391 22.38563537597656 0 49.99972534179688 0 Z" stroke="none" fill="#fff"/>
            </g>
          </g>
        </g>
      </g>
    </g>
    <g id="g4428" transform="translate(441.219 2193.773)">
      <g id="g4430" transform="translate(0 -682.665)">
        <g id="g4432" clip-path="url(#clip-path)">
          <g id="g4438" transform="translate(29.402 0.92)">
            <path id="path4440" d="M-260.827-274.3h-9.237a1.049,1.049,0,0,1-1.024-.821,14.861,14.861,0,0,0-3.646-6.9q-.335-.364-.7-.7a15.032,15.032,0,0,0-6.886-3.712,1.049,1.049,0,0,1-.813-1.022v-9.253a1.053,1.053,0,0,1,1.2-1.04,25.932,25.932,0,0,1,5.243,1.317,26.172,26.172,0,0,1,15.612,15.7,25.876,25.876,0,0,1,1.285,5.232,1.052,1.052,0,0,1-1.04,1.2" transform="translate(283.133 297.763)" fill="#98d5b9"/>
          </g>
          <g id="g4442" transform="translate(1.023 0.92)">
            <path id="path4444" d="M-273.1-12.286v9.245a1.049,1.049,0,0,1-.816,1.023,14.863,14.863,0,0,0-6.757,3.566q-.5.462-.964.971A14.873,14.873,0,0,0-285.141,9.3a1.05,1.05,0,0,1-1.025.824H-295.4a1.052,1.052,0,0,1-1.04-1.2,25.871,25.871,0,0,1,1.285-5.231,26.173,26.173,0,0,1,15.612-15.7,25.933,25.933,0,0,1,5.243-1.317,1.053,1.053,0,0,1,1.2,1.04" transform="translate(296.45 13.337)" fill="#fd9468"/>
          </g>
          <g id="g4446" transform="translate(29.402 29.403)">
            <path id="path4448" d="M-272.987-14.027a25.882,25.882,0,0,1-1.285,5.232A26.173,26.173,0,0,1-289.884,6.9a25.932,25.932,0,0,1-5.243,1.317,1.053,1.053,0,0,1-1.2-1.04V-2.072a1.049,1.049,0,0,1,.813-1.022,15.033,15.033,0,0,0,6.887-3.712q.362-.339.7-.7a14.859,14.859,0,0,0,3.646-6.9,1.049,1.049,0,0,1,1.024-.821h9.237a1.052,1.052,0,0,1,1.04,1.2" transform="translate(296.333 15.227)" fill="#fe646f"/>
          </g>
          <g id="g4450" transform="translate(1.023 29.403)">
            <path id="path4452" d="M-273.1-153.917v9.245a1.053,1.053,0,0,1-1.2,1.04,25.934,25.934,0,0,1-5.243-1.317,26.173,26.173,0,0,1-15.612-15.7,25.883,25.883,0,0,1-1.285-5.232,1.052,1.052,0,0,1,1.04-1.2h9.234a1.049,1.049,0,0,1,1.025.824,14.873,14.873,0,0,0,3.507,6.779q.46.507.964.971a14.863,14.863,0,0,0,6.757,3.566,1.049,1.049,0,0,1,.816,1.023" transform="translate(296.45 167.08)" fill="#fee45a"/>
          </g>
          <g id="g4454" transform="translate(35.691 35.691)">
            <path id="path4456" d="M-184.426-1.683a26.172,26.172,0,0,1-15.612,15.7,6.016,6.016,0,0,1-.16-1.377V4.162A5.963,5.963,0,0,1-198.788.306a6.053,6.053,0,0,1,.7-.7,5.967,5.967,0,0,1,3.879-1.43h8.477a5.959,5.959,0,0,1,1.307.144" transform="translate(200.198 1.827)" fill="#fd4755"/>
          </g>
          <g id="g4458" transform="translate(38.843 38.843)">
            <path id="path4460" d="M-132.293-165.47h-8.476a2.837,2.837,0,0,1-2.837-2.837v-8.476a2.837,2.837,0,0,1,2.837-2.837h8.476a2.837,2.837,0,0,1,2.837,2.837v8.476a2.837,2.837,0,0,1-2.837,2.837" transform="translate(143.606 179.621)" fill="#918291"/>
          </g>
          <g id="g4462" transform="translate(42.492 41.68)">
            <path id="path4464" d="M-80.125-40.063a3.426,3.426,0,0,1-3.426,3.426,3.426,3.426,0,0,1-3.426-3.426,3.426,3.426,0,0,1,3.426-3.426,3.426,3.426,0,0,1,3.426,3.426" transform="translate(86.977 43.489)" fill="#ffcebf"/>
          </g>
          <g id="g4466" transform="translate(40.902 48.532)">
            <path id="path4468" d="M-9.1-52.167H-.619a2.833,2.833,0,0,0,.778-.109,5.067,5.067,0,0,0-5.016-4.352,5.067,5.067,0,0,0-5.016,4.352,2.832,2.832,0,0,0,.778.109" transform="translate(9.873 56.628)" fill="#8ac9fe"/>
          </g>
          <g id="g4470" transform="translate(2.318 35.691)">
            <path id="path4472" d="M-184.426-70.025v8.477a6.011,6.011,0,0,1-.16,1.377,26.172,26.172,0,0,1-15.612-15.7,5.958,5.958,0,0,1,1.307-.144h8.477a5.956,5.956,0,0,1,3.738,1.315,5.978,5.978,0,0,1,.964.971,5.958,5.958,0,0,1,1.286,3.7" transform="translate(200.198 76.013)" fill="#fedf30"/>
          </g>
          <g id="g4474" transform="translate(0.788 38.843)">
            <path id="path4476" d="M-132.293-165.47h-8.476a2.837,2.837,0,0,1-2.837-2.837v-8.476a2.837,2.837,0,0,1,2.837-2.837h8.476a2.837,2.837,0,0,1,2.837,2.837v8.476a2.837,2.837,0,0,1-2.837,2.837" transform="translate(143.606 179.621)" fill="#918291"/>
          </g>
          <g id="g4478" transform="translate(4.437 41.68)">
            <path id="path4480" d="M-80.125-40.063a3.426,3.426,0,0,1-3.426,3.426,3.426,3.426,0,0,1-3.426-3.426,3.426,3.426,0,0,1,3.426-3.426,3.426,3.426,0,0,1,3.426,3.426" transform="translate(86.977 43.489)" fill="#ffcebf"/>
          </g>
          <g id="g4482" transform="translate(2.847 48.532)">
            <path id="path4484" d="M-9.1-52.167H-.619a2.833,2.833,0,0,0,.778-.109,5.067,5.067,0,0,0-5.016-4.352,5.067,5.067,0,0,0-5.016,4.352,2.832,2.832,0,0,0,.778.109" transform="translate(9.873 56.628)" fill="#8ac9fe"/>
          </g>
          <g id="g4486" transform="translate(35.691 2.248)">
            <path id="path4488" d="M-184.426-183.568a5.959,5.959,0,0,1-1.307.144h-8.477a5.967,5.967,0,0,1-3.879-1.43,6.053,6.053,0,0,1-.7-.7,5.963,5.963,0,0,1-1.411-3.856v-8.477a6.016,6.016,0,0,1,.16-1.377,26.172,26.172,0,0,1,15.612,15.7" transform="translate(200.198 199.266)" fill="#57be92"/>
          </g>
          <g id="g4490" transform="translate(38.843 0.788)">
            <path id="path4492" d="M-132.293-165.47h-8.476a2.837,2.837,0,0,1-2.837-2.837v-8.476a2.837,2.837,0,0,1,2.837-2.837h8.476a2.837,2.837,0,0,1,2.837,2.837v8.476a2.837,2.837,0,0,1-2.837,2.837" transform="translate(143.606 179.621)" fill="#918291"/>
          </g>
          <g id="g4494" transform="translate(42.492 3.625)">
            <path id="path4496" d="M-80.125-40.063a3.426,3.426,0,0,1-3.426,3.426,3.426,3.426,0,0,1-3.426-3.426,3.426,3.426,0,0,1,3.426-3.426,3.426,3.426,0,0,1,3.426,3.426" transform="translate(86.977 43.489)" fill="#ffcebf"/>
          </g>
          <g id="g4498" transform="translate(40.902 10.477)">
            <path id="path4500" d="M-9.1-52.167H-.619a2.837,2.837,0,0,0,.778-.109,5.067,5.067,0,0,0-5.016-4.352,5.067,5.067,0,0,0-5.016,4.352,2.836,2.836,0,0,0,.778.109" transform="translate(9.873 56.628)" fill="#8ac9fe"/>
          </g>
          <g id="g4502" transform="translate(2.318 2.248)">
            <path id="path4504" d="M-184.426-16.1v8.477a5.958,5.958,0,0,1-1.286,3.7,5.977,5.977,0,0,1-.964.971,5.955,5.955,0,0,1-3.738,1.315h-8.477a5.958,5.958,0,0,1-1.307-.144,26.172,26.172,0,0,1,15.612-15.7,6.01,6.01,0,0,1,.16,1.377" transform="translate(200.198 17.48)" fill="#fe7d43"/>
          </g>
          <g id="g4506" transform="translate(0.788 0.788)">
            <path id="path4508" d="M-132.293-165.47h-8.476a2.837,2.837,0,0,1-2.837-2.837v-8.476a2.837,2.837,0,0,1,2.837-2.837h8.476a2.837,2.837,0,0,1,2.837,2.837v8.476a2.837,2.837,0,0,1-2.837,2.837" transform="translate(143.606 179.621)" fill="#918291"/>
          </g>
          <g id="g4510" transform="translate(4.437 3.625)">
            <path id="path4512" d="M-80.125-40.063a3.426,3.426,0,0,1-3.426,3.426,3.426,3.426,0,0,1-3.426-3.426,3.426,3.426,0,0,1,3.426-3.426,3.426,3.426,0,0,1,3.426,3.426" transform="translate(86.977 43.489)" fill="#ffcebf"/>
          </g>
          <g id="g4514" transform="translate(2.847 10.477)">
            <path id="path4516" d="M-9.1-52.167H-.619a2.837,2.837,0,0,0,.778-.109,5.067,5.067,0,0,0-5.016-4.352,5.067,5.067,0,0,0-5.016,4.352,2.836,2.836,0,0,0,.778.109" transform="translate(9.873 56.628)" fill="#8ac9fe"/>
          </g>
          <g id="g4518" transform="translate(23.306 19.069)">
            <path id="path4520" d="M-82.58,5.346a.785.785,0,0,1-.3-.062.788.788,0,0,1-.422-1.031l5.78-13.772A.788.788,0,0,1-76.5-9.941a.788.788,0,0,1,.422,1.031l-5.78,13.772A.788.788,0,0,1-82.58,5.346Z" transform="translate(83.368 10.003)"/>
          </g>
          <g id="g4522" transform="translate(19.646 18.427)">
            <path id="path4524" d="M-71.493-40.16a3.571,3.571,0,0,1-3.342-3.755,3.571,3.571,0,0,1,3.342-3.756,3.571,3.571,0,0,1,3.342,3.756A3.571,3.571,0,0,1-71.493-40.16Zm0-5.935a2.008,2.008,0,0,0-1.766,2.18,2.008,2.008,0,0,0,1.766,2.18,2.008,2.008,0,0,0,1.766-2.18A2.008,2.008,0,0,0-71.493-46.095Z" transform="translate(74.834 47.671)"/>
          </g>
          <g id="g4526" transform="translate(27.452 27.843)">
            <path id="path4528" d="M-71.493-47.669a3.571,3.571,0,0,1,3.342,3.755,3.571,3.571,0,0,1-3.342,3.756,3.571,3.571,0,0,1-3.342-3.756A3.571,3.571,0,0,1-71.493-47.669Zm0,5.935a2.008,2.008,0,0,0,1.766-2.18,2.008,2.008,0,0,0-1.766-2.18,2.008,2.008,0,0,0-1.766,2.18A2.008,2.008,0,0,0-71.493-41.734Z" transform="translate(74.834 47.669)"/>
          </g>
          <g id="g4530" transform="translate(28.615 0.131)">
            <path id="path4532" d="M-266.944-201.095h-9.237a1.826,1.826,0,0,1-1.793-1.438,14.258,14.258,0,0,0-10.642-10.714,1.83,1.83,0,0,1-1.421-1.79v-9.253a1.84,1.84,0,0,1,.634-1.39,1.829,1.829,0,0,1,1.457-.431,26.67,26.67,0,0,1,8.5,2.71.788.788,0,0,1,.339,1.061.788.788,0,0,1-1.061.339,25.1,25.1,0,0,0-8-2.551.252.252,0,0,0-.2.061.263.263,0,0,0-.092.2v9.253a.261.261,0,0,0,.2.255,15.842,15.842,0,0,1,11.822,11.907.26.26,0,0,0,.255.2h9.237a.263.263,0,0,0,.2-.091.252.252,0,0,0,.061-.2,25.208,25.208,0,0,0-1.247-5.085.788.788,0,0,1,.475-1.008.788.788,0,0,1,1.008.475,26.785,26.785,0,0,1,1.325,5.4,1.83,1.83,0,0,1-.435,1.451A1.841,1.841,0,0,1-266.944-201.095Z" transform="translate(290.038 226.129)"/>
          </g>
          <g id="g4534" transform="translate(0.234 0.131)">
            <path id="path4536" d="M-175.556-18.5h-9.235a1.841,1.841,0,0,1-1.388-.631,1.83,1.83,0,0,1-.435-1.451,26.673,26.673,0,0,1,2.665-8.5l.04-.079a.791.791,0,0,1,1.064-.338.785.785,0,0,1,.337,1.059l-.037.073a25.1,25.1,0,0,0-2.508,8,.252.252,0,0,0,.061.2.263.263,0,0,0,.2.091h9.235a.26.26,0,0,0,.255-.206,15.765,15.765,0,0,1,11.823-11.914.26.26,0,0,0,.2-.255v-9.245a.263.263,0,0,0-.092-.2.252.252,0,0,0-.2-.061,25.09,25.09,0,0,0-8,2.552.788.788,0,0,1-1.061-.339.788.788,0,0,1,.339-1.061,26.661,26.661,0,0,1,8.5-2.711,1.829,1.829,0,0,1,1.457.431,1.841,1.841,0,0,1,.635,1.391v9.245a1.828,1.828,0,0,1-1.427,1.791,14.182,14.182,0,0,0-10.636,10.718A1.826,1.826,0,0,1-175.556-18.5Z" transform="translate(186.63 43.534)"/>
          </g>
          <g id="g4538" transform="translate(28.614 28.615)">
            <path id="path4540" d="M-271.683-104.818a1.83,1.83,0,0,1-1.2-.449,1.841,1.841,0,0,1-.635-1.391v-9.253A1.83,1.83,0,0,1-272.1-117.7a14.258,14.258,0,0,0,10.642-10.715,1.826,1.826,0,0,1,1.793-1.438h9.238a1.841,1.841,0,0,1,1.388.631,1.83,1.83,0,0,1,.435,1.451,26.644,26.644,0,0,1-2.656,8.484.79.79,0,0,1-.155.22.788.788,0,0,1-1.114,0,.788.788,0,0,1-.173-.853q.013-.033.029-.065a25.074,25.074,0,0,0,2.508-8,.252.252,0,0,0-.061-.2.263.263,0,0,0-.2-.091h-9.238a.26.26,0,0,0-.255.2,15.842,15.842,0,0,1-11.822,11.907.261.261,0,0,0-.2.255v9.254a.263.263,0,0,0,.092.2.252.252,0,0,0,.2.06,25.1,25.1,0,0,0,8-2.551.788.788,0,0,1,1.061.339.788.788,0,0,1-.339,1.061,26.669,26.669,0,0,1-8.5,2.71A1.826,1.826,0,0,1-271.683-104.818Z" transform="translate(273.518 129.853)"/>
          </g>
          <g id="g4542" transform="translate(0.108 28.616)">
            <path id="path4544" d="M-6.382-70.869a1.826,1.826,0,0,1-.257-.018,26.676,26.676,0,0,1-8.5-2.71.788.788,0,0,1-.339-1.061A.788.788,0,0,1-14.414-75a25.1,25.1,0,0,0,8,2.55.252.252,0,0,0,.2-.061.263.263,0,0,0,.092-.2v-9.245a.26.26,0,0,0-.2-.255,15.84,15.84,0,0,1-11.867-12.12H-27.94a25.179,25.179,0,0,0,1.4,5.7A.788.788,0,0,1-27-87.611a.788.788,0,0,1-1.014-.461A26.773,26.773,0,0,1-29.6-95.045a.788.788,0,0,1,.2-.6.788.788,0,0,1,.582-.257h11.279a.788.788,0,0,1,.778.662,14.239,14.239,0,0,0,10.785,11.5,1.828,1.828,0,0,1,1.427,1.791v9.245a1.841,1.841,0,0,1-.635,1.391A1.83,1.83,0,0,1-6.382-70.869Z" transform="translate(29.605 95.904)"/>
          </g>
          <g id="g4546" transform="translate(38.055 38.055)">
            <path id="path4548" d="M-141.5-173.894h-8.476a3.629,3.629,0,0,1-3.625-3.625V-186a3.629,3.629,0,0,1,3.625-3.625h8.476A3.629,3.629,0,0,1-137.88-186v8.476A3.629,3.629,0,0,1-141.5-173.894Zm-8.476-14.151A2.052,2.052,0,0,0-152.031-186v8.476a2.052,2.052,0,0,0,2.049,2.049h8.476a2.052,2.052,0,0,0,2.049-2.049V-186a2.052,2.052,0,0,0-2.049-2.049Z" transform="translate(153.606 189.621)"/>
          </g>
          <g id="g4550" transform="translate(41.704 40.892)">
            <path id="path4552" d="M-92.763-53.489a4.219,4.219,0,0,1,4.214,4.214,4.219,4.219,0,0,1-4.214,4.214,4.219,4.219,0,0,1-4.214-4.214A4.219,4.219,0,0,1-92.763-53.489Zm0,6.852a2.641,2.641,0,0,0,2.638-2.638,2.641,2.641,0,0,0-2.638-2.638A2.641,2.641,0,0,0-95.4-49.275,2.641,2.641,0,0,0-92.763-46.637Z" transform="translate(96.977 53.489)"/>
          </g>
          <g id="g4554" transform="translate(40.114 47.744)">
            <path id="path4556" d="M-126.522-59.318A.788.788,0,0,1-127.3-60a4.3,4.3,0,0,0-4.236-3.675A4.3,4.3,0,0,0-135.773-60a.788.788,0,0,1-.89.67.788.788,0,0,1-.67-.89,5.878,5.878,0,0,1,5.8-5.03,5.878,5.878,0,0,1,5.8,5.03.788.788,0,0,1-.67.89A.8.8,0,0,1-126.522-59.318Z" transform="translate(137.341 65.247)"/>
          </g>
          <g id="g4558" transform="translate(0 38.055)">
            <path id="path4560" d="M-141.5-173.894h-8.476a3.629,3.629,0,0,1-3.625-3.625V-186a3.629,3.629,0,0,1,3.625-3.625h8.476A3.629,3.629,0,0,1-137.88-186v8.476A3.629,3.629,0,0,1-141.5-173.894Zm-8.476-14.151A2.052,2.052,0,0,0-152.031-186v8.476a2.052,2.052,0,0,0,2.049,2.049h8.476a2.052,2.052,0,0,0,2.049-2.049V-186a2.052,2.052,0,0,0-2.049-2.049Z" transform="translate(153.606 189.621)"/>
          </g>
          <g id="g4562" transform="translate(3.649 40.892)">
            <path id="path4564" d="M-92.763-53.489a4.219,4.219,0,0,1,4.214,4.214,4.219,4.219,0,0,1-4.214,4.214,4.219,4.219,0,0,1-4.214-4.214A4.219,4.219,0,0,1-92.763-53.489Zm0,6.852a2.641,2.641,0,0,0,2.638-2.638,2.641,2.641,0,0,0-2.638-2.638A2.641,2.641,0,0,0-95.4-49.275,2.641,2.641,0,0,0-92.763-46.637Z" transform="translate(96.977 53.489)"/>
          </g>
          <g id="g4566" transform="translate(2.059 47.744)">
            <path id="path4568" d="M-9.832-60.591h-8.476a3.624,3.624,0,0,1-.994-.139.788.788,0,0,1-.564-.868,5.878,5.878,0,0,1,5.8-5.03,5.878,5.878,0,0,1,5.8,5.03.788.788,0,0,1-.564.868A3.625,3.625,0,0,1-9.832-60.591Zm-8.284-1.576h8.091a4.3,4.3,0,0,0-4.046-2.886A4.3,4.3,0,0,0-18.116-62.167Z" transform="translate(19.874 66.628)"/>
          </g>
          <g id="g4570" transform="translate(38.055 0)">
            <path id="path4572" d="M-141.5-173.894h-8.476a3.629,3.629,0,0,1-3.625-3.625V-186a3.629,3.629,0,0,1,3.625-3.625h8.476A3.629,3.629,0,0,1-137.88-186v8.476A3.629,3.629,0,0,1-141.5-173.894Zm-8.476-14.151A2.052,2.052,0,0,0-152.031-186v8.476a2.052,2.052,0,0,0,2.049,2.049h8.476a2.052,2.052,0,0,0,2.049-2.049V-186a2.052,2.052,0,0,0-2.049-2.049Z" transform="translate(153.606 189.621)"/>
          </g>
          <g id="g4574" transform="translate(41.704 2.837)">
            <path id="path4576" d="M-92.763-53.489a4.219,4.219,0,0,1,4.214,4.214,4.219,4.219,0,0,1-4.214,4.214,4.219,4.219,0,0,1-4.214-4.214A4.219,4.219,0,0,1-92.763-53.489Zm0,6.852a2.641,2.641,0,0,0,2.638-2.638,2.641,2.641,0,0,0-2.638-2.638A2.641,2.641,0,0,0-95.4-49.275,2.641,2.641,0,0,0-92.763-46.637Z" transform="translate(96.977 53.489)"/>
          </g>
          <g id="g4578" transform="translate(40.114 9.689)">
            <path id="path4580" d="M-126.522-59.318A.788.788,0,0,1-127.3-60a4.3,4.3,0,0,0-4.236-3.675A4.3,4.3,0,0,0-135.773-60a.788.788,0,0,1-.89.67.788.788,0,0,1-.67-.89,5.878,5.878,0,0,1,5.8-5.03,5.878,5.878,0,0,1,5.8,5.03.788.788,0,0,1-.67.89A.8.8,0,0,1-126.522-59.318Z" transform="translate(137.341 65.247)"/>
          </g>
          <g id="g4582" transform="translate(0 0)">
            <path id="path4584" d="M-141.5-173.894h-8.476a3.629,3.629,0,0,1-3.625-3.625V-186a3.629,3.629,0,0,1,3.625-3.625h8.476A3.629,3.629,0,0,1-137.88-186v8.476A3.629,3.629,0,0,1-141.5-173.894Zm-8.476-14.151A2.052,2.052,0,0,0-152.031-186v8.476a2.052,2.052,0,0,0,2.049,2.049h8.476a2.052,2.052,0,0,0,2.049-2.049V-186a2.052,2.052,0,0,0-2.049-2.049Z" transform="translate(153.606 189.621)"/>
          </g>
          <g id="g4586" transform="translate(3.649 2.837)">
            <path id="path4588" d="M-92.763-53.489a4.219,4.219,0,0,1,4.214,4.214,4.219,4.219,0,0,1-4.214,4.214,4.219,4.219,0,0,1-4.214-4.214A4.219,4.219,0,0,1-92.763-53.489Zm0,6.852a2.641,2.641,0,0,0,2.638-2.638,2.641,2.641,0,0,0-2.638-2.638A2.641,2.641,0,0,0-95.4-49.275,2.641,2.641,0,0,0-92.763-46.637Z" transform="translate(96.977 53.489)"/>
          </g>
          <g id="g4590" transform="translate(2.059 9.689)">
            <path id="path4592" d="M-126.522-59.318A.788.788,0,0,1-127.3-60a4.3,4.3,0,0,0-4.236-3.675A4.3,4.3,0,0,0-135.773-60a.788.788,0,0,1-.89.67.788.788,0,0,1-.67-.89,5.878,5.878,0,0,1,5.8-5.03,5.878,5.878,0,0,1,5.8,5.03.788.788,0,0,1-.67.89A.8.8,0,0,1-126.522-59.318Z" transform="translate(137.341 65.247)"/>
          </g>
        </g>
      </g>
    </g>
  </g>
</svg>
