<svg xmlns="http://www.w3.org/2000/svg" xmlns:xlink="http://www.w3.org/1999/xlink" width="118" height="118" viewBox="0 0 118 118">
  <defs>
    <filter id="Trazado_874925" x="0" y="0" width="117.999" height="118" filterUnits="userSpaceOnUse">
      <feOffset dy="3" input="SourceAlpha"/>
      <feGaussianBlur stdDeviation="3" result="blur"/>
      <feFlood flood-opacity="0.161"/>
      <feComposite operator="in" in2="blur"/>
      <feComposite in="SourceGraphic"/>
    </filter>
  </defs>
  <g id="Grupo_1200419" data-name="Grupo 1200419" transform="translate(-1049.411 -1481.999)">
    <g id="Grupo_1112486" data-name="Grupo 1112486" transform="translate(249.911 -1029.158)">
      <g id="Grupo_1111316" data-name="Grupo 1111316" transform="translate(808.5 2517.157)">
        <g id="Grupo_1109835" data-name="Grupo 1109835" transform="translate(0 0)">
          <g id="Grupo_1107913" data-name="Grupo 1107913" transform="translate(0 0)">
            <g transform="matrix(1, 0, 0, 1, -9, -6)" filter="url(#Trazado_874925)">
              <g id="Trazado_874925-2" data-name="Trazado 874925" transform="translate(9 6)" fill="#9ad354" opacity="0.859">
                <path d="M 49.99972534179688 98.4998779296875 C 43.45164108276367 98.4998779296875 37.10022354125977 97.21776580810547 31.12189674377441 94.68914794921875 C 25.34676742553711 92.24647521972656 20.15985298156738 88.74925994873047 15.70523929595947 84.29464721679688 C 11.25062561035156 79.84004974365234 7.753411293029785 74.65313720703125 5.310725212097168 68.87800598144531 C 2.782111167907715 62.89969253540039 1.499996781349182 56.54829406738281 1.499996781349182 50.00022125244141 C 1.499996781349182 43.45157623291016 2.782111167907715 37.10017776489258 5.310725212097168 31.12186431884766 C 7.753411293029785 25.34673500061035 11.25062561035156 20.15983581542969 15.70523929595947 15.70522117614746 C 20.15985298156738 11.25062084197998 25.34676742553711 7.753406524658203 31.12189674377441 5.31073522567749 C 37.10022354125977 2.782120943069458 43.45164108276367 1.500006556510925 49.99972534179688 1.500006556510925 C 56.54780960083008 1.500006556510925 62.89922714233398 2.782120943069458 68.87755584716797 5.31073522567749 C 74.65267944335938 7.753406524658203 79.839599609375 11.25062084197998 84.29421234130859 15.70522117614746 C 88.74882507324219 20.15983581542969 92.24604034423828 25.34673500061035 94.68872833251953 31.12186431884766 C 97.21733856201172 37.10017776489258 98.49945068359375 43.45157623291016 98.49945068359375 49.99964904785156 C 98.49945068359375 56.54829406738281 97.21733856201172 62.89969253540039 94.68872833251953 68.87800598144531 C 92.24604034423828 74.65313720703125 88.74882507324219 79.84004974365234 84.29421234130859 84.29464721679688 C 79.839599609375 88.74925994873047 74.65267944335938 92.24647521972656 68.87755584716797 94.68914794921875 C 62.89922714233398 97.21776580810547 56.54780960083008 98.4998779296875 49.99972534179688 98.4998779296875 Z" stroke="none"/>
                <path d="M 49.99972534179688 3 C 43.65348052978516 3 37.49866485595703 4.242240905761719 31.70623016357422 6.692230224609375 C 26.10989379882812 9.059272766113281 21.08323669433594 12.44853210449219 16.76589202880859 16.76587677001953 C 12.44855499267578 21.08321380615234 9.059295654296875 26.10985565185547 6.692230224609375 31.70618438720703 C 4.24224853515625 37.49859619140625 3 43.65341186523438 3 50.00022888183594 C 3 56.34645843505859 4.24224853515625 62.50127410888672 6.692230224609375 68.29368591308594 C 9.059295654296875 73.8900146484375 12.44855499267578 78.91665649414062 16.76589202880859 83.23399353027344 C 21.08323669433594 87.55132293701172 26.10989379882812 90.94059753417969 31.70623016357422 93.30764007568359 C 37.49866485595703 95.75762939453125 43.65348052978516 96.99987030029297 49.99972534179688 96.99987030029297 C 56.34597015380859 96.99987030029297 62.50078582763672 95.75762939453125 68.293212890625 93.30764007568359 C 73.88955688476562 90.94059753417969 78.91621398925781 87.55132293701172 83.23355865478516 83.23399353027344 C 87.55089569091797 78.91665649414062 90.94015502929688 73.8900146484375 93.30722045898438 68.29368591308594 C 95.7572021484375 62.50127410888672 96.99945068359375 56.34645843505859 96.99945068359375 49.99964141845703 C 96.99945068359375 43.65341186523438 95.7572021484375 37.49859619140625 93.30722045898438 31.70618438720703 C 90.94015502929688 26.10985565185547 87.55089569091797 21.08321380615234 83.23355865478516 16.76587677001953 C 78.91621398925781 12.44853210449219 73.88955688476562 9.059272766113281 68.293212890625 6.692230224609375 C 62.50078582763672 4.242240905761719 56.34597015380859 3 49.99972534179688 3 M 49.99972534179688 0 C 77.61381530761719 0 99.99945068359375 22.38559722900391 99.99945068359375 49.99964141845703 L 99.99945068359375 50.00022888183594 C 99.99945068359375 77.6142578125 77.61381530761719 99.99987030029297 49.99972534179688 99.99987030029297 C 22.38563537597656 99.99987030029297 0 77.6142578125 0 50.00022888183594 L 0 49.99964141845703 C 0 22.38559722900391 22.38563537597656 0 49.99972534179688 0 Z" stroke="none" fill="#fff"/>
              </g>
            </g>
            <g id="Trazado_874923" data-name="Trazado 874923" transform="translate(0 0)" fill="none">
              <path d="M50,0a50,50,0,0,1,50,50h0A50,50,0,0,1,0,50H0A50,50,0,0,1,50,0Z" stroke="none"/>
              <path d="M 49.99972534179688 3 C 43.65348052978516 3 37.49866485595703 4.242240905761719 31.70623016357422 6.692230224609375 C 26.10989379882812 9.059272766113281 21.08323669433594 12.44853210449219 16.76589202880859 16.76587677001953 C 12.44855499267578 21.08321380615234 9.059295654296875 26.10985565185547 6.692230224609375 31.70618438720703 C 4.24224853515625 37.49859619140625 3 43.65341186523438 3 50.00022888183594 C 3 56.34645843505859 4.24224853515625 62.50127410888672 6.692230224609375 68.29368591308594 C 9.059295654296875 73.8900146484375 12.44855499267578 78.91665649414062 16.76589202880859 83.23399353027344 C 21.08323669433594 87.55132293701172 26.10989379882812 90.94059753417969 31.70623016357422 93.30764007568359 C 37.49866485595703 95.75762939453125 43.65348052978516 96.99987030029297 49.99972534179688 96.99987030029297 C 56.34597015380859 96.99987030029297 62.50078582763672 95.75762939453125 68.293212890625 93.30764007568359 C 73.88955688476562 90.94059753417969 78.91621398925781 87.55132293701172 83.23355865478516 83.23399353027344 C 87.55089569091797 78.91665649414062 90.94015502929688 73.8900146484375 93.30722045898438 68.29368591308594 C 95.7572021484375 62.50127410888672 96.99945068359375 56.34645843505859 96.99945068359375 49.99964141845703 C 96.99945068359375 43.65341186523438 95.7572021484375 37.49859619140625 93.30722045898438 31.70618438720703 C 90.94015502929688 26.10985565185547 87.55089569091797 21.08321380615234 83.23355865478516 16.76587677001953 C 78.91621398925781 12.44853210449219 73.88955688476562 9.059272766113281 68.293212890625 6.692230224609375 C 62.50078582763672 4.242240905761719 56.34597015380859 3 49.99972534179688 3 M 49.99972534179688 0 C 77.61381530761719 0 99.99945068359375 22.38559722900391 99.99945068359375 49.99964141845703 L 99.99945068359375 50.00022888183594 C 99.99945068359375 77.6142578125 77.61381530761719 99.99987030029297 49.99972534179688 99.99987030029297 C 22.38563537597656 99.99987030029297 0 77.6142578125 0 50.00022888183594 L 0 49.99964141845703 C 0 22.38559722900391 22.38563537597656 0 49.99972534179688 0 Z" stroke="none" fill="#fff"/>
            </g>
          </g>
        </g>
      </g>
    </g>
    <g id="escenario" transform="translate(1081.857 1511.857)">
      <g id="Grupo_1200417" data-name="Grupo 1200417" transform="translate(1.811 1.811)">
        <g id="Grupo_1200407" data-name="Grupo 1200407" transform="translate(0 35.686)">
          <path id="Trazado_901819" data-name="Trazado 901819" d="M50.663,46v3.244c0,4.931-10.892,9.733-24.332,9.733S2,54.175,2,49.244V46c0,4.931,10.892,9.733,24.332,9.733S50.663,50.931,50.663,46Z" transform="translate(-2 -46)" fill="#aab2bd"/>
        </g>
        <g id="Grupo_1200408" data-name="Grupo 1200408">
          <path id="Trazado_901820" data-name="Trazado 901820" d="M50.663,8.488v29.2c0,4.931-10.892,9.733-24.332,9.733S2,42.617,2,37.686V8.488A6.5,6.5,0,0,1,8.488,2H44.175A6.5,6.5,0,0,1,50.663,8.488Z" transform="translate(-2 -2)" fill="#ccd1d9"/>
        </g>
        <g id="Grupo_1200409" data-name="Grupo 1200409" transform="translate(6.707 6.488)">
          <path id="Trazado_901821" data-name="Trazado 901821" d="M34.383,13.244A3.236,3.236,0,0,0,36,12.806a18.49,18.49,0,0,0,9.514,15.986,9.53,9.53,0,0,0-4.355,7l-.2,1.784H14.828l-.2-1.784a9.53,9.53,0,0,0-4.355-7,18.49,18.49,0,0,0,9.514-15.986l1.622.438A3.252,3.252,0,0,0,24.65,10a3.244,3.244,0,1,0,6.488,0,3.185,3.185,0,0,0,.665,1.963,3.23,3.23,0,0,0,2.579,1.281Z" transform="translate(-10.27 -10)" fill="#69d6f4"/>
        </g>
        <g id="Grupo_1200410" data-name="Grupo 1200410" transform="translate(3.244 26.083)">
          <path id="Trazado_901822" data-name="Trazado 901822" d="M10.81,43.909a1.941,1.941,0,0,0-.105.17,2.353,2.353,0,0,1-3.771.616A3.167,3.167,0,0,1,6,42.449V34.841a17.408,17.408,0,0,0,1.817-.681v.008a6.117,6.117,0,0,1,2.506,4.4L10.8,43.9Z" transform="translate(-6 -34.16)" fill="#fc6e51"/>
        </g>
        <g id="Grupo_1200411" data-name="Grupo 1200411" transform="translate(40.609 26.083)">
          <path id="Trazado_901823" data-name="Trazado 901823" d="M52.078,43.9l.479-5.337a6.117,6.117,0,0,1,2.506-4.4V34.16a17.408,17.408,0,0,0,1.817.681v7.608a3.167,3.167,0,0,1-.933,2.247,2.353,2.353,0,0,1-3.771-.616,1.941,1.941,0,0,0-.105-.17Z" transform="translate(-52.07 -34.16)" fill="#fc6e51"/>
        </g>
        <g id="Grupo_1200412" data-name="Grupo 1200412" transform="translate(5.061 25.28)">
          <path id="Trazado_901824" data-name="Trazado 901824" d="M14.445,41.954l.089.811-.373-.122a2.485,2.485,0,0,0-2.928,1.079l-.008-.008-.479-5.337a6.117,6.117,0,0,0-2.506-4.4v-.008a17.155,17.155,0,0,0,1.646-.8,9.53,9.53,0,0,1,4.355,7Z" transform="translate(-8.24 -33.17)" fill="#e9573f"/>
        </g>
        <g id="Grupo_1200413" data-name="Grupo 1200413" transform="translate(37.308 25.28)">
          <path id="Trazado_901825" data-name="Trazado 901825" d="M54.294,33.981a6.117,6.117,0,0,0-2.506,4.4l-.479,5.337-.008.008a2.568,2.568,0,0,0-2.133-1.208,2.471,2.471,0,0,0-.795.13L48,42.765l.089-.811.2-1.784a9.53,9.53,0,0,1,4.355-7,17.155,17.155,0,0,0,1.646.8Z" transform="translate(-48 -33.17)" fill="#e9573f"/>
        </g>
        <g id="Grupo_1200414" data-name="Grupo 1200414" transform="translate(3.244 6.488)">
          <path id="Trazado_901826" data-name="Trazado 901826" d="M15.692,12.831A3.241,3.241,0,0,0,17.355,10a3.265,3.265,0,0,0,.949,2.3,3.427,3.427,0,0,0,.673.511A18.49,18.49,0,0,1,9.463,28.792a17.154,17.154,0,0,1-1.646.8A17.408,17.408,0,0,1,6,30.276V12.806a3.155,3.155,0,0,0,1.622.438A3.243,3.243,0,0,0,10.866,10a3.21,3.21,0,0,0,.754,2.076,2.655,2.655,0,0,0,.195.219,3.243,3.243,0,0,0,3.877.535Z" transform="translate(-6 -10)" fill="#ff826e"/>
        </g>
        <g id="Grupo_1200415" data-name="Grupo 1200415" transform="translate(32.442 6.488)">
          <path id="Trazado_901827" data-name="Trazado 901827" d="M45.285,12.831a3.149,3.149,0,0,0,1.582.414,3.265,3.265,0,0,0,2.3-.949,2.655,2.655,0,0,0,.195-.219A3.227,3.227,0,0,0,50.111,10a3.243,3.243,0,0,0,3.244,3.244,3.155,3.155,0,0,0,1.622-.438v17.47a17.409,17.409,0,0,1-1.817-.681,17.154,17.154,0,0,1-1.646-.8A18.49,18.49,0,0,1,42,12.806a3.427,3.427,0,0,0,.673-.511,3.265,3.265,0,0,0,.949-2.3,3.241,3.241,0,0,0,1.663,2.831Z" transform="translate(-42 -10)" fill="#ff826e"/>
        </g>
        <g id="Grupo_1200416" data-name="Grupo 1200416" transform="translate(3.244 3.244)">
          <path id="Trazado_901828" data-name="Trazado 901828" d="M44.93,6H9.244A3.243,3.243,0,0,0,6,9.244V12.05a3.155,3.155,0,0,0,1.622.438,3.243,3.243,0,0,0,3.244-3.244,3.21,3.21,0,0,0,.754,2.076,2.655,2.655,0,0,0,.195.219,3.247,3.247,0,0,0,5.539-2.3,3.265,3.265,0,0,0,.949,2.3,3.427,3.427,0,0,0,.673.511l1.622.438a3.252,3.252,0,0,0,3.244-3.244,3.244,3.244,0,1,0,6.488,0A3.185,3.185,0,0,0,31,11.207a3.232,3.232,0,0,0,4.2.843,3.427,3.427,0,0,0,.673-.511,3.265,3.265,0,0,0,.949-2.3,3.241,3.241,0,0,0,1.663,2.831,3.149,3.149,0,0,0,1.582.414,3.265,3.265,0,0,0,2.3-.949,2.655,2.655,0,0,0,.195-.219,3.227,3.227,0,0,0,.754-2.076,3.243,3.243,0,0,0,3.244,3.244,3.155,3.155,0,0,0,1.622-.438V9.244A3.243,3.243,0,0,0,44.93,6Z" transform="translate(-6 -6)" fill="#fcd770"/>
        </g>
      </g>
      <g id="Grupo_1200418" data-name="Grupo 1200418" transform="translate(1 1)">
        <path id="Trazado_901829" data-name="Trazado 901829" d="M43.986,1H8.3A7.308,7.308,0,0,0,1,8.3V40.741c0,5.715,11.514,10.544,25.143,10.544s25.143-4.828,25.143-10.544V8.3A7.308,7.308,0,0,0,43.986,1ZM26.143,49.663c-12.762,0-22.761-4.451-23.476-8.467C6.328,45.15,15.6,48.041,26.143,48.041S45.957,45.15,49.618,41.2C48.9,45.212,38.9,49.663,26.143,49.663Zm0-3.244c-13.246,0-23.52-4.8-23.52-8.922V8.3A5.684,5.684,0,0,1,8.3,2.622H43.986A5.684,5.684,0,0,1,49.663,8.3V37.5C49.663,41.623,39.389,46.419,26.143,46.419Z" transform="translate(-1 -1)"/>
        <circle id="Elipse_11628" data-name="Elipse 11628" cx="1" cy="1" r="1" transform="translate(24.143 6.143)"/>
        <ellipse id="Elipse_11629" data-name="Elipse 11629" cx="0.5" cy="1" rx="0.5" ry="1" transform="translate(31.143 6.143)"/>
        <circle id="Elipse_11630" data-name="Elipse 11630" cx="1" cy="1" r="1" transform="translate(37.143 6.143)"/>
        <ellipse id="Elipse_11631" data-name="Elipse 11631" cx="0.5" cy="1" rx="0.5" ry="1" transform="translate(18.143 6.143)"/>
        <circle id="Elipse_11632" data-name="Elipse 11632" cx="1" cy="1" r="1" transform="translate(11.143 6.143)"/>
        <path id="Trazado_901830" data-name="Trazado 901830" d="M44.741,5H9.055A4.06,4.06,0,0,0,5,9.055V36.936a3.962,3.962,0,0,0,1.17,2.822,3.168,3.168,0,0,0,5.074-.822,1.7,1.7,0,0,1,2.047-.848l1.577.526-.13-1.17H39.059l-.13,1.17,1.577-.526a1.7,1.7,0,0,1,2.048.848,3.168,3.168,0,0,0,5.074.822A3.965,3.965,0,0,0,48.8,36.936V9.055A4.06,4.06,0,0,0,44.741,5Zm-8.9,7.261a4.046,4.046,0,0,0,.79-.8,4.064,4.064,0,0,0,.893.883l.1,1.031a16.209,16.209,0,0,0,5.784,10.9l1.038-1.246a14.592,14.592,0,0,1-5.209-9.816l-.017-.171a3.713,3.713,0,0,0,2.512-.408l.075.605A16.1,16.1,0,0,0,44.9,20.9l1.3-.973a14.493,14.493,0,0,1-2.78-6.882l-.178-1.429a3.937,3.937,0,0,0,3.932,1.407V28.181a17.611,17.611,0,0,1-11.334-15.92ZM6.622,28.181V13.02a3.937,3.937,0,0,0,3.932-1.407l-.178,1.429A14.477,14.477,0,0,1,7.6,19.923l1.3.973a16.108,16.108,0,0,0,3.093-7.655l.075-.605a3.713,3.713,0,0,0,2.512.408l-.017.17a14.6,14.6,0,0,1-5.209,9.816l1.038,1.246a16.209,16.209,0,0,0,5.784-10.9l.1-1.031a4.1,4.1,0,0,0,.893-.883,4.091,4.091,0,0,0,.79.8A17.609,17.609,0,0,1,6.622,28.181ZM11.488,6.622h4.866V9.055a2.433,2.433,0,0,1-4.866,0Zm6.488,2.433V6.622h4.866V9.055a2.433,2.433,0,0,1-4.866,0Zm6.488-2.433h4.866V9.055a2.433,2.433,0,0,1-4.866,0Zm6.488,2.433V6.622H35.82V9.055a2.433,2.433,0,1,1-4.866,0Zm8.922,2.433a2.436,2.436,0,0,1-2.433-2.433V6.622h4.866V9.055A2.436,2.436,0,0,1,39.875,11.488Zm7.3-2.433v2.276A2.391,2.391,0,0,1,43.93,9.055V6.622h.811A2.436,2.436,0,0,1,47.175,9.055ZM9.055,6.622h.811V9.055a2.391,2.391,0,0,1-3.244,2.276V9.055A2.436,2.436,0,0,1,9.055,6.622ZM8.41,39.064a1.54,1.54,0,0,1-1.094-.453,2.354,2.354,0,0,1-.693-1.675V29.9c.293-.1.589-.2.874-.312a5.3,5.3,0,0,1,1.827,3.537l.462,5.09a1.535,1.535,0,0,1-1.376.847Zm2.87-2.329-.341-3.754A6.921,6.921,0,0,0,9.08,28.867c.044-.023.086-.049.13-.071a8.688,8.688,0,0,1,3.617,6.136l.161,1.454a3.345,3.345,0,0,0-1.709.35Zm28.078-1.982-.118,1.067H14.557l-.118-1.067a10.3,10.3,0,0,0-3.7-6.844,19.216,19.216,0,0,0,8.807-14.9,3.724,3.724,0,0,0,1.994-.08L17.2,26.654l1.547.489,4.938-15.638a4.012,4.012,0,0,0,6.42,0l4.938,15.638,1.547-.489L32.26,12.93a3.958,3.958,0,0,0,1.127.18,4.039,4.039,0,0,0,.869-.1,19.22,19.22,0,0,0,8.807,14.9,10.3,10.3,0,0,0-3.7,6.844Zm1.45,1.633.161-1.454A8.685,8.685,0,0,1,44.587,28.8c.044.023.086.049.13.071a6.921,6.921,0,0,0-1.859,4.114l-.341,3.757a3.349,3.349,0,0,0-1.708-.352Zm5.672,2.225a1.56,1.56,0,0,1-1.093.453,1.537,1.537,0,0,1-1.376-.845l.462-5.09A5.3,5.3,0,0,1,46.3,29.591c.285.114.582.21.874.312v7.033a2.354,2.354,0,0,1-.694,1.675Z" transform="translate(-1.756 -1.756)"/>
        <path id="Trazado_901831" data-name="Trazado 901831" d="M33.866,22.244V20.622H32.244V19H30.622v1.622H29v1.622h1.622v1.622h1.622V22.244Z" transform="translate(-6.291 -4.401)"/>
        <path id="Trazado_901832" data-name="Trazado 901832" d="M24.244,35H22.622v1.622H21v1.622h1.622v1.622h1.622V38.244h1.622V36.622H24.244Z" transform="translate(-4.779 -7.424)"/>
        <path id="Trazado_901833" data-name="Trazado 901833" d="M27,29h1.622v1.622H27Z" transform="translate(-5.913 -6.291)"/>
        <path id="Trazado_901834" data-name="Trazado 901834" d="M35,33h1.622v1.622H35Z" transform="translate(-7.424 -7.046)"/>
        <path id="Trazado_901835" data-name="Trazado 901835" d="M39,39h1.622v1.622H39Z" transform="translate(-8.18 -8.18)"/>
      </g>
    </g>
  </g>
</svg>
