<svg xmlns="http://www.w3.org/2000/svg" width="10.383" height="9.232" viewBox="0 0 10.383 9.232">
  <path id="leaf-solid" d="M9.9.152A.28.28,0,0,0,9.391.13a3.092,3.092,0,0,1-2.7,1.577H5.246A3.462,3.462,0,0,0,1.784,5.169a3.565,3.565,0,0,0,.027.37A8.625,8.625,0,0,1,6.977,4.015a.288.288,0,0,1,0,.577C2.444,4.592.522,7.37.1,8.414a.578.578,0,0,0,1.069.438,4.743,4.743,0,0,1,1.3-1.633A3.454,3.454,0,0,0,5.615,8.61c2.83-.206,4.823-2.744,4.823-5.852A6.556,6.556,0,0,0,9.9.152Z" transform="translate(-0.055 0.024)" fill="#4c6929"/>
</svg>
