<svg xmlns="http://www.w3.org/2000/svg" xmlns:xlink="http://www.w3.org/1999/xlink" width="118" height="118" viewBox="0 0 118 118">
  <defs>
    <filter id="Trazado_874925" x="0" y="0" width="118" height="118" filterUnits="userSpaceOnUse">
      <feOffset dy="3" input="SourceAlpha"/>
      <feGaussianBlur stdDeviation="3" result="blur"/>
      <feFlood flood-opacity="0.161"/>
      <feComposite operator="in" in2="blur"/>
      <feComposite in="SourceGraphic"/>
    </filter>
    <clipPath id="clip-path">
      <path id="path909" d="M0-682.665H65.35v65.35H0Z" transform="translate(0 682.665)"/>
    </clipPath>
  </defs>
  <g id="Grupo_1200396" data-name="Grupo 1200396" transform="translate(4772 9710)">
    <g id="Grupo_1112456" data-name="Grupo 1112456" transform="translate(-5571.5 -12221.157)">
      <g id="Grupo_1111316" data-name="Grupo 1111316" transform="translate(808.5 2517.157)">
        <g id="Grupo_1109835" data-name="Grupo 1109835" transform="translate(0 0)">
          <g id="Grupo_1107913" data-name="Grupo 1107913" transform="translate(0 0)">
            <g transform="matrix(1, 0, 0, 1, -9, -6)" filter="url(#Trazado_874925)">
              <g id="Trazado_874925-2" data-name="Trazado 874925" transform="translate(9 6)" fill="#9ad354" opacity="0.859">
                <path d="M 49.99972534179688 98.4998779296875 C 43.45164108276367 98.4998779296875 37.10022354125977 97.21776580810547 31.12189674377441 94.68914794921875 C 25.34676742553711 92.24647521972656 20.15985298156738 88.74925994873047 15.70523929595947 84.29464721679688 C 11.25062561035156 79.84004974365234 7.753411293029785 74.65313720703125 5.310725212097168 68.87800598144531 C 2.782111167907715 62.89969253540039 1.499996781349182 56.54829406738281 1.499996781349182 50.00022125244141 C 1.499996781349182 43.45157623291016 2.782111167907715 37.10017776489258 5.310725212097168 31.12186431884766 C 7.753411293029785 25.34673500061035 11.25062561035156 20.15983581542969 15.70523929595947 15.70522117614746 C 20.15985298156738 11.25062084197998 25.34676742553711 7.753406524658203 31.12189674377441 5.31073522567749 C 37.10022354125977 2.782120943069458 43.45164108276367 1.500006556510925 49.99972534179688 1.500006556510925 C 56.54780960083008 1.500006556510925 62.89922714233398 2.782120943069458 68.87755584716797 5.31073522567749 C 74.65267944335938 7.753406524658203 79.839599609375 11.25062084197998 84.29421234130859 15.70522117614746 C 88.74882507324219 20.15983581542969 92.24604034423828 25.34673500061035 94.68872833251953 31.12186431884766 C 97.21733856201172 37.10017776489258 98.49945068359375 43.45157623291016 98.49945068359375 49.99964904785156 C 98.49945068359375 56.54829406738281 97.21733856201172 62.89969253540039 94.68872833251953 68.87800598144531 C 92.24604034423828 74.65313720703125 88.74882507324219 79.84004974365234 84.29421234130859 84.29464721679688 C 79.839599609375 88.74925994873047 74.65267944335938 92.24647521972656 68.87755584716797 94.68914794921875 C 62.89922714233398 97.21776580810547 56.54780960083008 98.4998779296875 49.99972534179688 98.4998779296875 Z" stroke="none"/>
                <path d="M 49.99972534179688 3 C 43.65348052978516 3 37.49866485595703 4.242240905761719 31.70623016357422 6.692230224609375 C 26.10989379882812 9.059272766113281 21.08323669433594 12.44853210449219 16.76589202880859 16.76587677001953 C 12.44855499267578 21.08321380615234 9.059295654296875 26.10985565185547 6.692230224609375 31.70618438720703 C 4.24224853515625 37.49859619140625 3 43.65341186523438 3 50.00022888183594 C 3 56.34645843505859 4.24224853515625 62.50127410888672 6.692230224609375 68.29368591308594 C 9.059295654296875 73.8900146484375 12.44855499267578 78.91665649414062 16.76589202880859 83.23399353027344 C 21.08323669433594 87.55132293701172 26.10989379882812 90.94059753417969 31.70623016357422 93.30764007568359 C 37.49866485595703 95.75762939453125 43.65348052978516 96.99987030029297 49.99972534179688 96.99987030029297 C 56.34597015380859 96.99987030029297 62.50078582763672 95.75762939453125 68.293212890625 93.30764007568359 C 73.88955688476562 90.94059753417969 78.91621398925781 87.55132293701172 83.23355865478516 83.23399353027344 C 87.55089569091797 78.91665649414062 90.94015502929688 73.8900146484375 93.30722045898438 68.29368591308594 C 95.7572021484375 62.50127410888672 96.99945068359375 56.34645843505859 96.99945068359375 49.99964141845703 C 96.99945068359375 43.65341186523438 95.7572021484375 37.49859619140625 93.30722045898438 31.70618438720703 C 90.94015502929688 26.10985565185547 87.55089569091797 21.08321380615234 83.23355865478516 16.76587677001953 C 78.91621398925781 12.44853210449219 73.88955688476562 9.059272766113281 68.293212890625 6.692230224609375 C 62.50078582763672 4.242240905761719 56.34597015380859 3 49.99972534179688 3 M 49.99972534179688 0 C 77.61381530761719 0 99.99945068359375 22.38559722900391 99.99945068359375 49.99964141845703 L 99.99945068359375 50.00022888183594 C 99.99945068359375 77.6142578125 77.61381530761719 99.99987030029297 49.99972534179688 99.99987030029297 C 22.38563537597656 99.99987030029297 0 77.6142578125 0 50.00022888183594 L 0 49.99964141845703 C 0 22.38559722900391 22.38563537597656 0 49.99972534179688 0 Z" stroke="none" fill="#fff"/>
              </g>
            </g>
            <g id="Trazado_874923" data-name="Trazado 874923" transform="translate(0 0)" fill="none">
              <path d="M50,0a50,50,0,0,1,50,50h0A50,50,0,0,1,0,50H0A50,50,0,0,1,50,0Z" stroke="none"/>
              <path d="M 49.99972534179688 3 C 43.65348052978516 3 37.49866485595703 4.242240905761719 31.70623016357422 6.692230224609375 C 26.10989379882812 9.059272766113281 21.08323669433594 12.44853210449219 16.76589202880859 16.76587677001953 C 12.44855499267578 21.08321380615234 9.059295654296875 26.10985565185547 6.692230224609375 31.70618438720703 C 4.24224853515625 37.49859619140625 3 43.65341186523438 3 50.00022888183594 C 3 56.34645843505859 4.24224853515625 62.50127410888672 6.692230224609375 68.29368591308594 C 9.059295654296875 73.8900146484375 12.44855499267578 78.91665649414062 16.76589202880859 83.23399353027344 C 21.08323669433594 87.55132293701172 26.10989379882812 90.94059753417969 31.70623016357422 93.30764007568359 C 37.49866485595703 95.75762939453125 43.65348052978516 96.99987030029297 49.99972534179688 96.99987030029297 C 56.34597015380859 96.99987030029297 62.50078582763672 95.75762939453125 68.293212890625 93.30764007568359 C 73.88955688476562 90.94059753417969 78.91621398925781 87.55132293701172 83.23355865478516 83.23399353027344 C 87.55089569091797 78.91665649414062 90.94015502929688 73.8900146484375 93.30722045898438 68.29368591308594 C 95.7572021484375 62.50127410888672 96.99945068359375 56.34645843505859 96.99945068359375 49.99964141845703 C 96.99945068359375 43.65341186523438 95.7572021484375 37.49859619140625 93.30722045898438 31.70618438720703 C 90.94015502929688 26.10985565185547 87.55089569091797 21.08321380615234 83.23355865478516 16.76587677001953 C 78.91621398925781 12.44853210449219 73.88955688476562 9.059272766113281 68.293212890625 6.692230224609375 C 62.50078582763672 4.242240905761719 56.34597015380859 3 49.99972534179688 3 M 49.99972534179688 0 C 77.61381530761719 0 99.99945068359375 22.38559722900391 99.99945068359375 49.99964141845703 L 99.99945068359375 50.00022888183594 C 99.99945068359375 77.6142578125 77.61381530761719 99.99987030029297 49.99972534179688 99.99987030029297 C 22.38563537597656 99.99987030029297 0 77.6142578125 0 50.00022888183594 L 0 49.99964141845703 C 0 22.38559722900391 22.38563537597656 0 49.99972534179688 0 Z" stroke="none" fill="#fff"/>
            </g>
          </g>
        </g>
      </g>
    </g>
    <g id="g903" transform="translate(-4746 -9004.335)">
      <g id="g905" transform="translate(0 -682.665)">
        <g id="g907" clip-path="url(#clip-path)">
          <g id="g913" transform="translate(7.423 35.903)">
            <path id="path915" d="M-149.847-95.514a15.3,15.3,0,0,1-2.833-2.833,2.392,2.392,0,0,0-1.9-.931h-4.576a20.671,20.671,0,0,1-1.426-4.278,2.6,2.6,0,0,0-2.536-2.068,2.586,2.586,0,0,0-2.535,3.117,26.036,26.036,0,0,0,19.966,19.966,2.586,2.586,0,0,0,3.117-2.535,2.6,2.6,0,0,0-2.068-2.536,20.679,20.679,0,0,1-4.278-1.426v-4.575a2.392,2.392,0,0,0-.931-1.9" transform="translate(165.71 105.625)" fill="#5ee1c4"/>
          </g>
          <g id="g917" transform="translate(10.077 45.099)">
            <path id="path919" d="M-95.563-105.281a26.1,26.1,0,0,1-10.116-10.233,7.443,7.443,0,0,1,3.588-.913,7.436,7.436,0,0,1,5.292,2.191,7.5,7.5,0,0,1,1.237,8.954" transform="translate(105.68 116.426)" fill="#0ed2b3"/>
          </g>
          <g id="g921" transform="translate(35.253 8.072)">
            <path id="path923" d="M-68.75-123.084a15.308,15.308,0,0,1,2.833,2.833,2.392,2.392,0,0,0,1.9.931h4.575a20.67,20.67,0,0,1,1.426,4.278,2.6,2.6,0,0,0,2.536,2.068,2.586,2.586,0,0,0,2.535-3.117,26.036,26.036,0,0,0-19.966-19.966,2.586,2.586,0,0,0-3.117,2.535,2.6,2.6,0,0,0,2.068,2.536,20.677,20.677,0,0,1,4.278,1.426v4.575a2.392,2.392,0,0,0,.931,1.9" transform="translate(76.028 136.114)" fill="#fe7ab6"/>
          </g>
          <g id="g925" transform="translate(41.904 9.473)">
            <path id="path927" d="M-140.757-130.528a4.18,4.18,0,0,1-2.648.937,4.185,4.185,0,0,1-2.976-1.232l-2.049-2.05a6.681,6.681,0,0,1-2.4-1.546,6.653,6.653,0,0,1-1.539-2.394l-2.056-2.056a4.215,4.215,0,0,1-.41-5.477,26.082,26.082,0,0,1,14.08,13.818" transform="translate(155.658 144.346)" fill="#fd5ca7"/>
          </g>
          <g id="g929" transform="translate(35.253 35.903)">
            <path id="path931" d="M-156.68-59.952h-4.575a2.392,2.392,0,0,0-1.9.931,15.312,15.312,0,0,1-2.833,2.833,2.392,2.392,0,0,0-.931,1.9v4.575a20.679,20.679,0,0,1-4.278,1.426,2.6,2.6,0,0,0-2.068,2.536,2.586,2.586,0,0,0,3.117,2.535,26.036,26.036,0,0,0,19.966-19.966,2.586,2.586,0,0,0-2.535-3.117,2.6,2.6,0,0,0-2.536,2.068,20.679,20.679,0,0,1-1.426,4.278" transform="translate(173.266 66.299)" fill="#688d98"/>
          </g>
          <g id="g933" transform="translate(44.748 44.985)">
            <path id="path935" d="M-104.811-7.885a26.107,26.107,0,0,1-10.183,10.4,7.549,7.549,0,0,1-.913-3.622,7.563,7.563,0,0,1,2.231-5.386,7.563,7.563,0,0,1,5.386-2.231,7.585,7.585,0,0,1,3.478.835" transform="translate(115.906 8.72)" fill="#547984"/>
          </g>
          <g id="g937" transform="translate(7.423 8.073)">
            <path id="path939" d="M-24.489-218.6h0a2.6,2.6,0,0,0,2.536-2.068,20.679,20.679,0,0,1,1.426-4.278h4.575a2.392,2.392,0,0,0,1.9-.931,15.312,15.312,0,0,1,2.833-2.833,2.392,2.392,0,0,0,.931-1.9v-4.575a20.677,20.677,0,0,1,4.278-1.426,2.6,2.6,0,0,0,2.068-2.536,2.586,2.586,0,0,0-3.117-2.535,26.036,26.036,0,0,0-19.966,19.966,2.586,2.586,0,0,0,2.535,3.117" transform="translate(27.081 241.738)" fill="#528fd9"/>
          </g>
          <g id="g941" transform="translate(10.221 10.769)">
            <path id="path943" d="M-103.991-32.807a7.438,7.438,0,0,1-2.192,5.292,7.439,7.439,0,0,1-5.293,2.192A7.433,7.433,0,0,1-115-26.2,26.1,26.1,0,0,1-104.841-36.28a7.454,7.454,0,0,1,.85,3.473" transform="translate(115 36.28)" fill="#0473ce"/>
          </g>
          <g id="g945" transform="translate(6.466 34.946)">
            <path id="path947" d="M-8.475-75.271a3.543,3.543,0,0,1-.741-.079A27.1,27.1,0,0,1-27.992-90.317a.957.957,0,0,1,.462-1.272.957.957,0,0,1,1.272.462A25.173,25.173,0,0,0-8.815-77.222a1.607,1.607,0,0,0,1.352-.325,1.631,1.631,0,0,0,.608-1.274,1.636,1.636,0,0,0-1.313-1.6,21.678,21.678,0,0,1-4.476-1.492.957.957,0,0,1-.557-.87v-4.575a1.442,1.442,0,0,0-.557-1.14,16.269,16.269,0,0,1-3.01-3.01,1.442,1.442,0,0,0-1.14-.557h-4.575a.957.957,0,0,1-.87-.557A21.683,21.683,0,0,1-24.847-97.1a1.636,1.636,0,0,0-1.6-1.313,1.631,1.631,0,0,0-1.273.608,1.607,1.607,0,0,0-.325,1.352q.151.707.342,1.4a.957.957,0,0,1-.669,1.177.957.957,0,0,1-1.177-.669q-.205-.745-.369-1.507a3.514,3.514,0,0,1,.709-2.956,3.537,3.537,0,0,1,2.762-1.319A3.537,3.537,0,0,1-22.975-97.5a19.766,19.766,0,0,0,1.114,3.523h3.952a3.369,3.369,0,0,1,2.659,1.306,14.353,14.353,0,0,0,2.656,2.656,3.369,3.369,0,0,1,1.306,2.659v3.952a19.761,19.761,0,0,0,3.523,1.114,3.537,3.537,0,0,1,2.823,3.471A3.537,3.537,0,0,1-6.26-76.059,3.515,3.515,0,0,1-8.475-75.271Z" transform="translate(29.996 100.326)"/>
          </g>
          <g id="g949" transform="translate(34.296 7.115)">
            <path id="path951" d="M-64.522-121.059a3.537,3.537,0,0,1-3.472-2.823,19.758,19.758,0,0,0-1.114-3.523H-73.06a3.369,3.369,0,0,1-2.659-1.306,14.35,14.35,0,0,0-2.656-2.656,3.368,3.368,0,0,1-1.306-2.659v-3.952a19.763,19.763,0,0,0-3.523-1.114,3.537,3.537,0,0,1-2.823-3.471,3.546,3.546,0,0,1,3.534-3.55,3.552,3.552,0,0,1,.741.079,26.96,26.96,0,0,1,20.7,20.7,3.513,3.513,0,0,1-.709,2.956A3.537,3.537,0,0,1-64.522-121.059ZM-82.494-144.2a1.629,1.629,0,0,0-1.619,1.635,1.636,1.636,0,0,0,1.313,1.6,21.679,21.679,0,0,1,4.476,1.492.957.957,0,0,1,.557.87v4.576a1.442,1.442,0,0,0,.557,1.14,16.266,16.266,0,0,1,3.01,3.01,1.442,1.442,0,0,0,1.14.557h4.576a.957.957,0,0,1,.87.557,21.671,21.671,0,0,1,1.492,4.477,1.636,1.636,0,0,0,1.6,1.313,1.631,1.631,0,0,0,1.273-.608,1.607,1.607,0,0,0,.325-1.352,25.043,25.043,0,0,0-19.23-19.23A1.633,1.633,0,0,0-82.494-144.2Z" transform="translate(86.028 146.114)"/>
          </g>
          <g id="g953" transform="translate(34.296 34.946)">
            <path id="path955" d="M-161.76-76.3A3.537,3.537,0,0,1-159-74.98a3.513,3.513,0,0,1,.709,2.956,26.96,26.96,0,0,1-20.7,20.7,3.552,3.552,0,0,1-.741.079,3.546,3.546,0,0,1-3.534-3.55,3.537,3.537,0,0,1,2.823-3.472,19.763,19.763,0,0,0,3.523-1.114V-63.33a3.369,3.369,0,0,1,1.306-2.659,14.355,14.355,0,0,0,2.656-2.656,3.368,3.368,0,0,1,2.659-1.306h3.952a19.772,19.772,0,0,0,1.115-3.523A3.537,3.537,0,0,1-161.76-76.3Zm-17.972,23.141a1.634,1.634,0,0,0,.341-.036,25.043,25.043,0,0,0,19.23-19.23,1.607,1.607,0,0,0-.325-1.352,1.631,1.631,0,0,0-1.273-.608,1.636,1.636,0,0,0-1.6,1.313,21.682,21.682,0,0,1-1.492,4.477.957.957,0,0,1-.87.557H-170.3a1.442,1.442,0,0,0-1.14.557,16.27,16.27,0,0,1-3.01,3.01,1.442,1.442,0,0,0-.557,1.14v4.575a.957.957,0,0,1-.557.87,21.679,21.679,0,0,1-4.476,1.492,1.636,1.636,0,0,0-1.313,1.6A1.629,1.629,0,0,0-179.733-53.158Z" transform="translate(183.266 76.299)"/>
          </g>
          <g id="g957" transform="translate(6.466 7.115)">
            <path id="path959" d="M-33.53-226.683A3.537,3.537,0,0,1-36.292-228,3.513,3.513,0,0,1-37-230.957a26.96,26.96,0,0,1,20.7-20.7,3.552,3.552,0,0,1,.741-.079,3.546,3.546,0,0,1,3.534,3.55,3.537,3.537,0,0,1-2.823,3.471,19.763,19.763,0,0,0-3.523,1.114v3.952a3.368,3.368,0,0,1-1.306,2.659,14.355,14.355,0,0,0-2.656,2.656,3.368,3.368,0,0,1-2.659,1.306h-3.952a19.769,19.769,0,0,0-1.115,3.523A3.537,3.537,0,0,1-33.53-226.683Zm17.972-23.141a1.634,1.634,0,0,0-.341.036,25.043,25.043,0,0,0-19.23,19.23,1.607,1.607,0,0,0,.325,1.352,1.631,1.631,0,0,0,1.274.608,1.636,1.636,0,0,0,1.6-1.313,21.682,21.682,0,0,1,1.492-4.477.957.957,0,0,1,.87-.557h4.575a1.442,1.442,0,0,0,1.14-.557,16.27,16.27,0,0,1,3.011-3.01,1.442,1.442,0,0,0,.557-1.14v-4.575a.957.957,0,0,1,.557-.87,21.679,21.679,0,0,1,4.476-1.492,1.636,1.636,0,0,0,1.313-1.6A1.629,1.629,0,0,0-15.558-249.823Z" transform="translate(37.08 251.738)"/>
          </g>
          <g id="g961" transform="translate(57.067 47.591)">
            <path id="path963" d="M-5.741-33.461a2.075,2.075,0,0,1,0-2.934,2.075,2.075,0,0,1,2.934,0,2.075,2.075,0,0,1,0,2.934,2.075,2.075,0,0,1-2.934,0" transform="translate(6.349 37.004)" fill="#f7a86c"/>
          </g>
          <g id="g965" transform="translate(56.11 46.634)">
            <path id="path967" d="M-13.317-40.939a3.012,3.012,0,0,1-2.144-.888,3.012,3.012,0,0,1-.888-2.144,3.012,3.012,0,0,1,.888-2.144A3.012,3.012,0,0,1-13.317-47a3.012,3.012,0,0,1,2.144.888,3.012,3.012,0,0,1,.888,2.144,3.012,3.012,0,0,1-.888,2.144A3.012,3.012,0,0,1-13.317-40.939Zm0-4.15a1.11,1.11,0,0,0-.79.327,1.11,1.11,0,0,0-.327.79,1.11,1.11,0,0,0,.327.79,1.11,1.11,0,0,0,.79.327,1.11,1.11,0,0,0,.79-.327,1.111,1.111,0,0,0,.327-.79,1.11,1.11,0,0,0-.327-.79A1.11,1.11,0,0,0-13.317-45.089Z" transform="translate(16.349 47.004)"/>
          </g>
          <g id="g969" transform="translate(47.353 57.305)">
            <path id="path971" d="M-5.741-33.461a2.075,2.075,0,0,1,0-2.934,2.075,2.075,0,0,1,2.934,0,2.075,2.075,0,0,1,0,2.934,2.075,2.075,0,0,1-2.934,0" transform="translate(6.349 37.004)" fill="#f7a86c"/>
          </g>
          <g id="g973" transform="translate(46.397 56.348)">
            <path id="path975" d="M-13.3-40.939a3.012,3.012,0,0,1-2.144-.888,3.036,3.036,0,0,1,0-4.288A3.012,3.012,0,0,1-13.3-47a3.012,3.012,0,0,1,2.144.888,3.036,3.036,0,0,1,0,4.288A3.012,3.012,0,0,1-13.3-40.939Zm0-4.15a1.11,1.11,0,0,0-.79.327,1.119,1.119,0,0,0,0,1.581,1.11,1.11,0,0,0,.79.327,1.11,1.11,0,0,0,.79-.327,1.119,1.119,0,0,0,0-1.581A1.11,1.11,0,0,0-13.3-45.089Z" transform="translate(16.334 47.004)"/>
          </g>
          <g id="g977" transform="translate(46.407 46.644)">
            <path id="path979" d="M-71.713-151.333l-5.846-5.846a5.936,5.936,0,0,1-1.745-4.214,5.936,5.936,0,0,1,1.745-4.214,5.96,5.96,0,0,1,8.428,0l5.846,5.846Z" transform="translate(79.305 167.354)" fill="#fed1a4"/>
          </g>
          <g id="g981" transform="translate(45.45 45.687)">
            <path id="path983" d="M-80.756-159.419a.957.957,0,0,1-.677-.28l-5.846-5.846a6.866,6.866,0,0,1-2.026-4.892,6.866,6.866,0,0,1,2.026-4.891,6.871,6.871,0,0,1,4.89-2.026,6.872,6.872,0,0,1,4.891,2.026l5.846,5.847a.957.957,0,0,1,0,1.354l-8.428,8.428A.957.957,0,0,1-80.756-159.419Zm-1.633-16.02a4.969,4.969,0,0,0-3.537,1.465,4.965,4.965,0,0,0-1.465,3.537,4.965,4.965,0,0,0,1.465,3.538l5.17,5.17,7.074-7.074-5.169-5.17A4.97,4.97,0,0,0-82.389-175.439Z" transform="translate(89.305 177.354)"/>
          </g>
          <g id="g985" transform="translate(49.5 49.738)">
            <path id="path987" d="M-30.616-6.4a.958.958,0,0,1-.936-.764,2.671,2.671,0,0,1,.728-2.436,2.67,2.67,0,0,1,2.436-.728.957.957,0,0,1,.744,1.131.957.957,0,0,1-1.131.744.761.761,0,0,0-.695.206.761.761,0,0,0-.207.695.957.957,0,0,1-.744,1.131A.962.962,0,0,1-30.616-6.4Z" transform="translate(31.609 10.378)"/>
          </g>
          <g id="g989" transform="translate(50.944 52.891)">
            <path id="path991" d="M-64.184-103.678l3.52-3.52a1.486,1.486,0,0,0,0-2.1,3.58,3.58,0,0,0,1.295-.807l.269-.269a1.8,1.8,0,0,0,0-2.538l-1.74-1.74-1.538,1.537a2.676,2.676,0,0,1-2.275.735,3.333,3.333,0,0,0-2.823.946l-3.5,3.5,4.256,4.257a1.8,1.8,0,0,0,2.538,0" transform="translate(70.978 114.653)" fill="#fddf30"/>
          </g>
          <g id="g993" transform="translate(49.987 51.934)">
            <path id="path995" d="M-111.272-74.465a2.735,2.735,0,0,1-1.943-.8l-4.256-4.257a.957.957,0,0,1,0-1.354l3.5-3.5a4.268,4.268,0,0,1,3.037-1.258,4.316,4.316,0,0,1,.6.041,1.909,1.909,0,0,0,.263.018,1.684,1.684,0,0,0,1.2-.482l1.537-1.538a.957.957,0,0,1,.677-.28.957.957,0,0,1,.677.28l1.74,1.74a2.755,2.755,0,0,1,0,3.892l-.269.269a4.246,4.246,0,0,1-.664.538,2.456,2.456,0,0,1,.085.642,2.427,2.427,0,0,1-.716,1.728l-3.587,3.58A2.772,2.772,0,0,1-111.272-74.465Zm-4.169-5.738,3.58,3.58a.84.84,0,0,0,.59.244.836.836,0,0,0,.563-.217l3.553-3.548a.525.525,0,0,0,.154-.373.525.525,0,0,0-.155-.374.957.957,0,0,1-.253-.9.957.957,0,0,1,.641-.686,2.657,2.657,0,0,0,.907-.571l.269-.269a.838.838,0,0,0,0-1.184l-1.064-1.064-.861.861a3.585,3.585,0,0,1-2.557,1.042,3.821,3.821,0,0,1-.527-.037,2.4,2.4,0,0,0-.331-.023,2.366,2.366,0,0,0-1.684.7Z" transform="translate(117.752 87.88)"/>
          </g>
          <g id="g997" transform="translate(54.115 50.399)">
            <path id="path999" d="M-9.681-8.694a.885.885,0,0,1-.631-.265l-.063-.063a.957.957,0,0,1,0-1.354.957.957,0,0,1,1.354,0A1,1,0,0,1-8.99-8.99.981.981,0,0,1-9.681-8.694Z" transform="translate(10.656 10.656)"/>
          </g>
          <g id="g1001" transform="translate(50.162 54.353)">
            <path id="path1003" d="M-9.68-8.694a.885.885,0,0,1-.632-.266l-.063-.063a.957.957,0,0,1,0-1.354.957.957,0,0,1,1.354,0A1,1,0,0,1-8.99-8.99.981.981,0,0,1-9.68-8.694Z" transform="translate(10.655 10.656)"/>
          </g>
          <g id="g1005" transform="translate(14.613 5.566)">
            <path id="path1007" d="M-32.7-5.611a2.028,2.028,0,0,1,0,2.868,2.028,2.028,0,0,1-2.868,0,2.028,2.028,0,0,1,0-2.868,2.028,2.028,0,0,1,2.868,0" transform="translate(36.165 6.205)" fill="#f7a86c"/>
          </g>
          <g id="g1009" transform="translate(13.658 4.609)">
            <path id="path1011" d="M-43.167-16.2a2.966,2.966,0,0,1,2.111.874,2.989,2.989,0,0,1,0,4.222,2.966,2.966,0,0,1-2.111.874,2.966,2.966,0,0,1-2.111-.874,2.989,2.989,0,0,1,0-4.222A2.966,2.966,0,0,1-43.167-16.2Zm0,4.056a1.064,1.064,0,0,0,.757-.314,1.072,1.072,0,0,0,0-1.514,1.064,1.064,0,0,0-.757-.314,1.064,1.064,0,0,0-.757.314,1.072,1.072,0,0,0,0,1.514A1.064,1.064,0,0,0-43.167-12.149Z" transform="translate(46.15 16.205)"/>
          </g>
          <g id="g1013" transform="translate(5.07 15.109)">
            <path id="path1015" d="M-32.7-5.611a2.028,2.028,0,0,1,0,2.868,2.028,2.028,0,0,1-2.868,0,2.028,2.028,0,0,1,0-2.868,2.028,2.028,0,0,1,2.868,0" transform="translate(36.165 6.205)" fill="#f7a86c"/>
          </g>
          <g id="g1017" transform="translate(4.115 14.152)">
            <path id="path1019" d="M-43.167-16.2a2.966,2.966,0,0,1,2.111.874,2.989,2.989,0,0,1,0,4.222,2.966,2.966,0,0,1-2.111.874,2.965,2.965,0,0,1-2.111-.874,2.989,2.989,0,0,1,0-4.222A2.965,2.965,0,0,1-43.167-16.2Zm0,4.056a1.064,1.064,0,0,0,.757-.314,1.072,1.072,0,0,0,0-1.514,1.064,1.064,0,0,0-.757-.314,1.063,1.063,0,0,0-.757.314,1.072,1.072,0,0,0,0,1.514A1.063,1.063,0,0,0-43.167-12.149Z" transform="translate(46.151 16.205)"/>
          </g>
          <g id="g1021" transform="translate(4.625 5.12)">
            <path id="path1023" d="M-125.064-125.064h0a5.825,5.825,0,0,1-8.237,0l-5-5,8.237-8.237,5,5a5.825,5.825,0,0,1,0,8.237" transform="translate(138.304 138.304)" fill="#fed1a4"/>
          </g>
          <g id="g1025" transform="translate(3.668 4.163)">
            <path id="path1027" d="M-138.226-131.444a6.738,6.738,0,0,1-4.8-1.986l-5-5a.957.957,0,0,1,0-1.354l8.237-8.237a.957.957,0,0,1,1.354,0l5,5a6.79,6.79,0,0,1,0,9.591A6.737,6.737,0,0,1-138.226-131.444Zm-7.767-7.665,4.325,4.325a4.836,4.836,0,0,0,3.442,1.426,4.835,4.835,0,0,0,3.442-1.426,4.873,4.873,0,0,0,0-6.884l-4.325-4.325Z" transform="translate(148.304 148.304)"/>
          </g>
          <g id="g1029" transform="translate(2.002 0.957)">
            <path id="path1031" d="M-95.286-67.735l-6.347,6.347-3.2-3.2a1.859,1.859,0,0,1,0-2.629l7.549-7.549a.489.489,0,0,1,.692,0l1.3,1.3a4.049,4.049,0,0,1,0,5.726" transform="translate(105.373 74.905)" fill="#fddf30"/>
          </g>
          <g id="g1033" transform="translate(1.046 0)">
            <path id="path1035" d="M-10.978-74.928a.954.954,0,0,1-.677-.28l-3.2-3.2a2.82,2.82,0,0,1,0-3.983L-7.3-89.936a1.437,1.437,0,0,1,1.023-.424,1.437,1.437,0,0,1,1.023.424l1.3,1.3a5.012,5.012,0,0,1,0,7.08L-10.3-75.208A.954.954,0,0,1-10.978-74.928Zm4.7-13.323L-13.5-81.033a.9.9,0,0,0,0,1.275l2.519,2.519,5.67-5.67a3.1,3.1,0,0,0,0-4.372Z" transform="translate(15.674 90.359)"/>
          </g>
          <g id="g1037" transform="translate(9.837 14.314)">
            <path id="path1039" d="M-8.552-7.884a.954.954,0,0,1-.677-.28,1,1,0,0,1-.031-1.384.921.921,0,0,1,1.323-.031l.061.061a.957.957,0,0,1,0,1.354A.954.954,0,0,1-8.552-7.884Z" transform="translate(9.525 9.845)"/>
          </g>
          <g id="g1041" transform="translate(13.849 10.302)">
            <path id="path1043" d="M-8.552-7.883a.954.954,0,0,1-.678-.281,1,1,0,0,1-.029-1.384.921.921,0,0,1,1.323-.029l.061.061a.957.957,0,0,1,0,1.354A.954.954,0,0,1-8.552-7.883Z" transform="translate(9.525 9.844)"/>
          </g>
          <g id="g1045" transform="translate(12.71 13.206)">
            <path id="path1047" d="M-8.7-26.816a2.661,2.661,0,0,1-.539-.055A.957.957,0,0,1-9.982-28a.957.957,0,0,1,1.131-.744.722.722,0,0,0,.659-.2A.723.723,0,0,0-8-29.6a.957.957,0,0,1,.744-1.131.957.957,0,0,1,1.131.744,2.632,2.632,0,0,1-.718,2.4A2.628,2.628,0,0,1-8.7-26.816Z" transform="translate(10.002 30.753)"/>
          </g>
          <g id="g1049" transform="translate(4.989 47.659)">
            <path id="path1051" d="M-5.611-5.611a2.028,2.028,0,0,1,2.868,0,2.028,2.028,0,0,1,0,2.868,2.028,2.028,0,0,1-2.868,0,2.028,2.028,0,0,1,0-2.868" transform="translate(6.205 6.205)" fill="#c67a45"/>
          </g>
          <g id="g1053" transform="translate(4.033 46.702)">
            <path id="path1055" d="M-13.207-16.2a2.966,2.966,0,0,1,2.111.874,2.989,2.989,0,0,1,0,4.222,2.966,2.966,0,0,1-2.111.874,2.966,2.966,0,0,1-2.111-.874,2.989,2.989,0,0,1,0-4.222A2.966,2.966,0,0,1-13.207-16.2Zm0,4.056a1.064,1.064,0,0,0,.757-.314,1.072,1.072,0,0,0,0-1.514,1.064,1.064,0,0,0-.757-.314,1.064,1.064,0,0,0-.757.314,1.072,1.072,0,0,0,0,1.514A1.064,1.064,0,0,0-13.207-12.149Z" transform="translate(16.191 16.205)"/>
          </g>
          <g id="g1057" transform="translate(14.532 57.202)">
            <path id="path1059" d="M-5.611-5.611a2.028,2.028,0,0,1,2.868,0,2.028,2.028,0,0,1,0,2.868,2.028,2.028,0,0,1-2.868,0,2.028,2.028,0,0,1,0-2.868" transform="translate(6.205 6.205)" fill="#c67a45"/>
          </g>
          <g id="g1061" transform="translate(13.576 56.245)">
            <path id="path1063" d="M-13.207-16.2a2.966,2.966,0,0,1,2.111.874,2.989,2.989,0,0,1,0,4.222,2.966,2.966,0,0,1-2.111.874,2.966,2.966,0,0,1-2.111-.874,2.989,2.989,0,0,1,0-4.222A2.966,2.966,0,0,1-13.207-16.2Zm0,4.056a1.064,1.064,0,0,0,.757-.314,1.072,1.072,0,0,0,0-1.514,1.064,1.064,0,0,0-.757-.314,1.064,1.064,0,0,0-.757.314,1.072,1.072,0,0,0,0,1.514A1.064,1.064,0,0,0-13.207-12.149Z" transform="translate(16.191 16.205)"/>
          </g>
          <g id="g1065" transform="translate(4.478 46.758)">
            <path id="path1067" d="M-16.116-125.688h0a5.825,5.825,0,0,1,0-8.237l3.362-3.362a5.825,5.825,0,0,1,8.237,0,5.825,5.825,0,0,1,0,8.237l-3.362,3.362a5.824,5.824,0,0,1-8.237,0" transform="translate(17.822 138.994)" fill="#ea9a58"/>
          </g>
          <g id="g1069" transform="translate(3.524 45.801)">
            <path id="path1071" d="M-21.01-132.068a6.737,6.737,0,0,1-4.8-1.986,6.79,6.79,0,0,1,0-9.591l3.362-3.362a6.737,6.737,0,0,1,4.8-1.986,6.737,6.737,0,0,1,4.8,1.986,6.79,6.79,0,0,1,0,9.591l-3.362,3.362A6.737,6.737,0,0,1-21.01-132.068Zm3.362-15.012a4.835,4.835,0,0,0-3.442,1.426l-3.362,3.362a4.873,4.873,0,0,0,0,6.884,4.836,4.836,0,0,0,3.442,1.426,4.835,4.835,0,0,0,3.442-1.426l3.362-3.362a4.873,4.873,0,0,0,0-6.884A4.835,4.835,0,0,0-17.648-147.079Z" transform="translate(27.789 148.994)"/>
          </g>
          <g id="g1073" transform="translate(13.512 54.786)">
            <path id="path1075" d="M-8.887-8.71a.927.927,0,0,1-.662-.266A.921.921,0,0,1-9.578-10.3l.061-.061a.957.957,0,0,1,1.354,0,.957.957,0,0,1,0,1.354A1.027,1.027,0,0,1-8.887-8.71Z" transform="translate(9.844 10.64)"/>
          </g>
          <g id="g1077" transform="translate(9.5 50.775)">
            <path id="path1079" d="M-8.888-8.71a.927.927,0,0,1-.661-.266A.921.921,0,0,1-9.579-10.3l.061-.061a.957.957,0,0,1,1.354,0,.957.957,0,0,1,0,1.354A1.027,1.027,0,0,1-8.888-8.71Z" transform="translate(9.845 10.64)"/>
          </g>
          <g id="g1081" transform="translate(12.404 49.907)">
            <path id="path1083" d="M-27.807-27.183A.961.961,0,0,1-28-27.2a.957.957,0,0,1-.744-1.131.722.722,0,0,0-.2-.659.723.723,0,0,0-.66-.2.957.957,0,0,1-1.131-.744.957.957,0,0,1,.744-1.131,2.632,2.632,0,0,1,2.4.717,2.631,2.631,0,0,1,.717,2.4A.958.958,0,0,1-27.807-27.183Z" transform="translate(30.751 31.12)"/>
          </g>
          <g id="g1085" transform="translate(43.561 3.36)">
            <path id="path1087" d="M-83.051-174.4l-8.045-8.045a2.55,2.55,0,0,1,0-3.606l4.4-4.4a8.239,8.239,0,0,1,11.651,0,8.239,8.239,0,0,1,0,11.651l-4.4,4.4a2.55,2.55,0,0,1-3.606,0" transform="translate(91.843 192.864)" fill="#d88a55"/>
          </g>
          <g id="g1089" transform="translate(42.604 2.669)">
            <path id="path1091" d="M-89.39,10.318a3.5,3.5,0,0,1-2.48-1.025l-8.045-8.045a3.484,3.484,0,0,1-1.027-2.48,3.484,3.484,0,0,1,1.027-2.48l4.4-4.4a9.2,9.2,0,0,1,3.975-2.339.957.957,0,0,1,1.183.658.957.957,0,0,1-.658,1.183,7.285,7.285,0,0,0-3.146,1.852l-4.4,4.4a1.582,1.582,0,0,0-.467,1.126,1.582,1.582,0,0,0,.466,1.126l8.045,8.045a1.6,1.6,0,0,0,2.252,0l4.4-4.4a7.234,7.234,0,0,0,2.133-5.149,7.234,7.234,0,0,0-2.133-5.149,7.273,7.273,0,0,0-3.314-1.9.957.957,0,0,1-.686-1.167.957.957,0,0,1,1.167-.686,9.189,9.189,0,0,1,4.188,2.4,9.136,9.136,0,0,1,2.693,6.5,9.136,9.136,0,0,1-2.693,6.5l-4.4,4.4A3.5,3.5,0,0,1-89.39,10.318Z" transform="translate(100.942 10.538)"/>
          </g>
          <g id="g1093" transform="translate(46.421 8.229)">
            <path id="path1095" d="M-108.447-67.591l-2.844,2.844a5.059,5.059,0,0,1-7.155,0,5.06,5.06,0,0,1,0-7.155l2.844-2.844L-111.858-71a.488.488,0,0,0,.345.143h1.9a.484.484,0,0,1,.342.826l-.464.464a.488.488,0,0,0,0,.69Z" transform="translate(119.927 74.746)" fill="#ffe5c2"/>
          </g>
          <g id="g1097" transform="translate(45.466 7.272)">
            <path id="path1099" d="M-123.884-71.352a5.978,5.978,0,0,1-4.255-1.762,6.024,6.024,0,0,1,0-8.508l2.844-2.844a.957.957,0,0,1,1.354,0l3.608,3.608h1.707a1.437,1.437,0,0,1,1.332.889,1.437,1.437,0,0,1-.313,1.571l-.133.133.955.955a.957.957,0,0,1,.28.677.957.957,0,0,1-.28.677l-2.844,2.844A5.976,5.976,0,0,1-123.884-71.352Zm-.735-11.084-2.167,2.167a4.107,4.107,0,0,0,0,5.8,4.076,4.076,0,0,0,2.9,1.2,4.074,4.074,0,0,0,2.9-1.2l2.167-2.167-.61-.61a1.434,1.434,0,0,1-.423-1.023,1.439,1.439,0,0,1,.169-.677h-.847a1.455,1.455,0,0,1-1.022-.424Z" transform="translate(129.898 84.746)"/>
          </g>
          <g id="g1101" transform="translate(49.524 11.193)">
            <path id="path1103" d="M-9.6-7.658a.954.954,0,0,1-.677-.28.957.957,0,0,1,0-1.354A.99.99,0,0,1-8.9-9.319a.926.926,0,0,1,.027,1.327l-.053.053A.954.954,0,0,1-9.6-7.658Z" transform="translate(10.556 9.587)"/>
          </g>
          <g id="g1105" transform="translate(53.009 14.678)">
            <path id="path1107" d="M-9.6-7.658a.954.954,0,0,1-.677-.28.957.957,0,0,1,0-1.354A.99.99,0,0,1-8.9-9.319a.926.926,0,0,1,.027,1.327l-.053.053A.954.954,0,0,1-9.6-7.658Z" transform="translate(10.556 9.587)"/>
          </g>
          <g id="g1109" transform="translate(48.771 13.688)">
            <path id="path1111" d="M-7.908-6.331a2.409,2.409,0,0,1-1.706-.708,2.411,2.411,0,0,1-.657-2.2A.957.957,0,0,1-9.14-9.982.957.957,0,0,1-8.4-8.851a.5.5,0,0,0,.136.458.5.5,0,0,0,.458.136.957.957,0,0,1,1.131.744.957.957,0,0,1-.744,1.131A2.438,2.438,0,0,1-7.908-6.331Z" transform="translate(10.321 10.002)"/>
          </g>
          <g id="g1113" transform="translate(22.01 22.01)">
            <path id="path1115" d="M-197.926-98.963A10.476,10.476,0,0,1-208.4-88.487a10.476,10.476,0,0,1-10.476-10.476A10.476,10.476,0,0,1-208.4-109.44a10.476,10.476,0,0,1,10.476,10.476" transform="translate(218.878 109.44)" fill="#fee35a"/>
          </g>
          <g id="g1117" transform="translate(30.982 22.01)">
            <path id="path1119" d="M-113.179-98.968a10.478,10.478,0,0,1-10.477,10.477,10.439,10.439,0,0,1-1.5-.108,10.479,10.479,0,0,0,8.972-10.369,10.479,10.479,0,0,0-8.972-10.369,10.439,10.439,0,0,1,1.5-.108,10.478,10.478,0,0,1,10.477,10.477" transform="translate(125.16 109.445)" fill="#fed400"/>
          </g>
          <g id="g1121" transform="translate(27.413 29.484)">
            <path id="path1123" d="M-9.043-7.96A.957.957,0,0,1-10-8.917v-.126A.957.957,0,0,1-9.043-10a.957.957,0,0,1,.957.957v.126A.957.957,0,0,1-9.043-7.96Z" transform="translate(10 10)"/>
          </g>
          <g id="g1125" transform="translate(35.645 29.484)">
            <path id="path1127" d="M-9.043-7.96A.957.957,0,0,1-10-8.917v-.126A.957.957,0,0,1-9.043-10a.957.957,0,0,1,.957.957v.126A.957.957,0,0,1-9.043-7.96Z" transform="translate(10 10)"/>
          </g>
          <g id="g1129" transform="translate(29.085 32.259)">
            <path id="path1131" d="M-57.673-5.641a3.406,3.406,0,0,1-3.4-3.4A.957.957,0,0,1-60.117-10a.957.957,0,0,1,.957.957,1.489,1.489,0,0,0,1.487,1.487,1.489,1.489,0,0,0,1.487-1.487A.957.957,0,0,1-55.228-10a.957.957,0,0,1,.957.957A3.406,3.406,0,0,1-57.673-5.641Z" transform="translate(61.075 10)"/>
          </g>
          <g id="g1133" transform="translate(21.053 21.053)">
            <path id="path1135" d="M-200.807-154.56a11.446,11.446,0,0,1-11.434-11.434,11.447,11.447,0,0,1,11.434-11.434,11.447,11.447,0,0,1,11.434,11.434,11.4,11.4,0,0,1-1.739,6.059.957.957,0,0,1-1.319.3.957.957,0,0,1-.3-1.319,9.491,9.491,0,0,0,1.447-5.043,9.53,9.53,0,0,0-9.519-9.519,9.53,9.53,0,0,0-9.519,9.519,9.53,9.53,0,0,0,9.519,9.519,9.463,9.463,0,0,0,5.394-1.677.957.957,0,0,1,1.331.245.957.957,0,0,1-.245,1.331A11.369,11.369,0,0,1-200.807-154.56Z" transform="translate(212.241 177.428)"/>
          </g>
        </g>
      </g>
    </g>
  </g>
</svg>
