<svg xmlns="http://www.w3.org/2000/svg" xmlns:xlink="http://www.w3.org/1999/xlink" width="118" height="118" viewBox="0 0 118 118">
  <defs>
    <filter id="Trazado_874925" x="0" y="0" width="117.999" height="118" filterUnits="userSpaceOnUse">
      <feOffset dy="3" input="SourceAlpha"/>
      <feGaussianBlur stdDeviation="3" result="blur"/>
      <feFlood flood-opacity="0.161"/>
      <feComposite operator="in" in2="blur"/>
      <feComposite in="SourceGraphic"/>
    </filter>
  </defs>
  <g id="Grupo_1200384" data-name="Grupo 1200384" transform="translate(-1108.781 -1436.999)">
    <g id="Grupo_1112451" data-name="Grupo 1112451" transform="translate(309.281 -1074.158)">
      <g id="Grupo_1111316" data-name="Grupo 1111316" transform="translate(808.5 2517.157)">
        <g id="Grupo_1109835" data-name="Grupo 1109835" transform="translate(0 0)">
          <g id="Grupo_1107913" data-name="Grupo 1107913" transform="translate(0 0)">
            <g transform="matrix(1, 0, 0, 1, -9, -6)" filter="url(#Trazado_874925)">
              <g id="Trazado_874925-2" data-name="Trazado 874925" transform="translate(9 6)" fill="#9ad354" opacity="0.859">
                <path d="M 49.99972534179688 98.4998779296875 C 43.45164108276367 98.4998779296875 37.10022354125977 97.21776580810547 31.12189674377441 94.68914794921875 C 25.34676742553711 92.24647521972656 20.15985298156738 88.74925994873047 15.70523929595947 84.29464721679688 C 11.25062561035156 79.84004974365234 7.753411293029785 74.65313720703125 5.310725212097168 68.87800598144531 C 2.782111167907715 62.89969253540039 1.499996781349182 56.54829406738281 1.499996781349182 50.00022125244141 C 1.499996781349182 43.45157623291016 2.782111167907715 37.10017776489258 5.310725212097168 31.12186431884766 C 7.753411293029785 25.34673500061035 11.25062561035156 20.15983581542969 15.70523929595947 15.70522117614746 C 20.15985298156738 11.25062084197998 25.34676742553711 7.753406524658203 31.12189674377441 5.31073522567749 C 37.10022354125977 2.782120943069458 43.45164108276367 1.500006556510925 49.99972534179688 1.500006556510925 C 56.54780960083008 1.500006556510925 62.89922714233398 2.782120943069458 68.87755584716797 5.31073522567749 C 74.65267944335938 7.753406524658203 79.839599609375 11.25062084197998 84.29421234130859 15.70522117614746 C 88.74882507324219 20.15983581542969 92.24604034423828 25.34673500061035 94.68872833251953 31.12186431884766 C 97.21733856201172 37.10017776489258 98.49945068359375 43.45157623291016 98.49945068359375 49.99964904785156 C 98.49945068359375 56.54829406738281 97.21733856201172 62.89969253540039 94.68872833251953 68.87800598144531 C 92.24604034423828 74.65313720703125 88.74882507324219 79.84004974365234 84.29421234130859 84.29464721679688 C 79.839599609375 88.74925994873047 74.65267944335938 92.24647521972656 68.87755584716797 94.68914794921875 C 62.89922714233398 97.21776580810547 56.54780960083008 98.4998779296875 49.99972534179688 98.4998779296875 Z" stroke="none"/>
                <path d="M 49.99972534179688 3 C 43.65348052978516 3 37.49866485595703 4.242240905761719 31.70623016357422 6.692230224609375 C 26.10989379882812 9.059272766113281 21.08323669433594 12.44853210449219 16.76589202880859 16.76587677001953 C 12.44855499267578 21.08321380615234 9.059295654296875 26.10985565185547 6.692230224609375 31.70618438720703 C 4.24224853515625 37.49859619140625 3 43.65341186523438 3 50.00022888183594 C 3 56.34645843505859 4.24224853515625 62.50127410888672 6.692230224609375 68.29368591308594 C 9.059295654296875 73.8900146484375 12.44855499267578 78.91665649414062 16.76589202880859 83.23399353027344 C 21.08323669433594 87.55132293701172 26.10989379882812 90.94059753417969 31.70623016357422 93.30764007568359 C 37.49866485595703 95.75762939453125 43.65348052978516 96.99987030029297 49.99972534179688 96.99987030029297 C 56.34597015380859 96.99987030029297 62.50078582763672 95.75762939453125 68.293212890625 93.30764007568359 C 73.88955688476562 90.94059753417969 78.91621398925781 87.55132293701172 83.23355865478516 83.23399353027344 C 87.55089569091797 78.91665649414062 90.94015502929688 73.8900146484375 93.30722045898438 68.29368591308594 C 95.7572021484375 62.50127410888672 96.99945068359375 56.34645843505859 96.99945068359375 49.99964141845703 C 96.99945068359375 43.65341186523438 95.7572021484375 37.49859619140625 93.30722045898438 31.70618438720703 C 90.94015502929688 26.10985565185547 87.55089569091797 21.08321380615234 83.23355865478516 16.76587677001953 C 78.91621398925781 12.44853210449219 73.88955688476562 9.059272766113281 68.293212890625 6.692230224609375 C 62.50078582763672 4.242240905761719 56.34597015380859 3 49.99972534179688 3 M 49.99972534179688 0 C 77.61381530761719 0 99.99945068359375 22.38559722900391 99.99945068359375 49.99964141845703 L 99.99945068359375 50.00022888183594 C 99.99945068359375 77.6142578125 77.61381530761719 99.99987030029297 49.99972534179688 99.99987030029297 C 22.38563537597656 99.99987030029297 0 77.6142578125 0 50.00022888183594 L 0 49.99964141845703 C 0 22.38559722900391 22.38563537597656 0 49.99972534179688 0 Z" stroke="none" fill="#fff"/>
              </g>
            </g>
            <g id="Trazado_874923" data-name="Trazado 874923" transform="translate(0 0)" fill="none">
              <path d="M50,0a50,50,0,0,1,50,50h0A50,50,0,0,1,0,50H0A50,50,0,0,1,50,0Z" stroke="none"/>
              <path d="M 49.99972534179688 3 C 43.65348052978516 3 37.49866485595703 4.242240905761719 31.70623016357422 6.692230224609375 C 26.10989379882812 9.059272766113281 21.08323669433594 12.44853210449219 16.76589202880859 16.76587677001953 C 12.44855499267578 21.08321380615234 9.059295654296875 26.10985565185547 6.692230224609375 31.70618438720703 C 4.24224853515625 37.49859619140625 3 43.65341186523438 3 50.00022888183594 C 3 56.34645843505859 4.24224853515625 62.50127410888672 6.692230224609375 68.29368591308594 C 9.059295654296875 73.8900146484375 12.44855499267578 78.91665649414062 16.76589202880859 83.23399353027344 C 21.08323669433594 87.55132293701172 26.10989379882812 90.94059753417969 31.70623016357422 93.30764007568359 C 37.49866485595703 95.75762939453125 43.65348052978516 96.99987030029297 49.99972534179688 96.99987030029297 C 56.34597015380859 96.99987030029297 62.50078582763672 95.75762939453125 68.293212890625 93.30764007568359 C 73.88955688476562 90.94059753417969 78.91621398925781 87.55132293701172 83.23355865478516 83.23399353027344 C 87.55089569091797 78.91665649414062 90.94015502929688 73.8900146484375 93.30722045898438 68.29368591308594 C 95.7572021484375 62.50127410888672 96.99945068359375 56.34645843505859 96.99945068359375 49.99964141845703 C 96.99945068359375 43.65341186523438 95.7572021484375 37.49859619140625 93.30722045898438 31.70618438720703 C 90.94015502929688 26.10985565185547 87.55089569091797 21.08321380615234 83.23355865478516 16.76587677001953 C 78.91621398925781 12.44853210449219 73.88955688476562 9.059272766113281 68.293212890625 6.692230224609375 C 62.50078582763672 4.242240905761719 56.34597015380859 3 49.99972534179688 3 M 49.99972534179688 0 C 77.61381530761719 0 99.99945068359375 22.38559722900391 99.99945068359375 49.99964141845703 L 99.99945068359375 50.00022888183594 C 99.99945068359375 77.6142578125 77.61381530761719 99.99987030029297 49.99972534179688 99.99987030029297 C 22.38563537597656 99.99987030029297 0 77.6142578125 0 50.00022888183594 L 0 49.99964141845703 C 0 22.38559722900391 22.38563537597656 0 49.99972534179688 0 Z" stroke="none" fill="#fff"/>
            </g>
          </g>
        </g>
      </g>
    </g>
    <g id="derecho-al-voto" transform="translate(1135.264 1418.158)">
      <g id="Grupo_1200383" data-name="Grupo 1200383" transform="translate(4.675 48.933)">
        <path id="Trazado_901709" data-name="Trazado 901709" d="M12.737,261.161h51.72a1.892,1.892,0,0,0,1.886-1.886v-23.2H10.851v23.2a1.892,1.892,0,0,0,1.886,1.886Z" transform="translate(-10.755 -215.494)" fill="#a85d27" fill-rule="evenodd"/>
        <path id="Trazado_901710" data-name="Trazado 901710" d="M256,261.161h25.86a1.892,1.892,0,0,0,1.886-1.886v-23.2H256v25.089Z" transform="translate(-228.157 -215.494)" fill="#96501e" fill-rule="evenodd"/>
        <path id="Trazado_901711" data-name="Trazado 901711" d="M50.85,286.183H97.288v14.891H50.85Z" transform="translate(-46.227 -259.933)" fill="#f0f5f7"/>
        <g id="Grupo_1200382" data-name="Grupo 1200382" transform="translate(0 0)">
          <path id="Trazado_901712" data-name="Trazado 901712" d="M12.071,146.381H63.614c1.086,0,2.447-1,1.975-1.975l-4.246-8.788c-.472-.978-.889-1.975-1.975-1.975H16.317c-1.086,0-1.5,1-1.975,1.975L10.1,144.406c-.473.978.889,1.975,1.975,1.975Z" transform="translate(-10 -124.658)" fill="#b56a35" fill-rule="evenodd"/>
          <path id="Trazado_901713" data-name="Trazado 901713" d="M256,146.381h25.771c1.086,0,2.447-1,1.975-1.975l-4.246-8.788c-.472-.978-.889-1.975-1.975-1.975H256v12.738Z" transform="translate(-228.157 -124.658)" fill="#a85d27" fill-rule="evenodd"/>
          <path id="Trazado_901714" data-name="Trazado 901714" d="M160.838,54.254,148.693,66.4l3.209,3.209h17.872l3.209-3.209Z" transform="translate(-132.996 -54.254)" fill="#ff4b00" fill-rule="evenodd"/>
          <path id="Trazado_901715" data-name="Trazado 901715" d="M256,54.254V69.608h8.936l3.209-3.209Z" transform="translate(-228.157 -54.254)" fill="#ff2a00" fill-rule="evenodd"/>
          <path id="Trazado_901716" data-name="Trazado 901716" d="M136.174,185.272a.679.679,0,0,1,0-1.358h25.92a.679.679,0,0,1,0,1.358Z" transform="translate(-121.291 -169.239)" fill="#8f4d1e" fill-rule="evenodd"/>
          <path id="Trazado_901717" data-name="Trazado 901717" d="M73.492,328.466a.679.679,0,1,1,0-1.358H81.6a.679.679,0,1,1,0,1.358Zm4.138-6.876a.679.679,0,1,1,0,1.358H73.492a.679.679,0,1,1,0-1.358Zm10.717,0a.679.679,0,1,1,0,1.358H80.241a.679.679,0,1,1,0-1.358Zm-4.138,4.117a.679.679,0,0,1,0-1.358h4.138a.679.679,0,0,1,0,1.358Zm-10.717,0a.679.679,0,0,1,0-1.358H81.6a.679.679,0,0,1,0,1.358Zm10.717,2.759a.679.679,0,1,1,0-1.358h4.138a.679.679,0,1,1,0,1.358Z" transform="translate(-65.704 -291.333)" fill="#404040" fill-rule="evenodd"/>
        </g>
        <path id="Trazado_901718" data-name="Trazado 901718" d="M256,286.183h23.219v14.891H256Z" transform="translate(-228.157 -259.933)" fill="#d9e7ec"/>
      </g>
      <path id="Trazado_901719" data-name="Trazado 901719" d="M11.784,79.869a.679.679,0,0,1,.679-.679H16.6a.679.679,0,1,1,0,1.358H12.463A.679.679,0,0,1,11.784,79.869Zm6.748,0a.679.679,0,0,1,.679-.679h8.107a.679.679,0,0,1,0,1.358H19.211A.679.679,0,0,1,18.532,79.869ZM28,82.629a.679.679,0,0,1-.679.679H23.18a.679.679,0,1,1,0-1.358h4.138A.679.679,0,0,1,28,82.629Zm-16.213,0a.679.679,0,0,1,.679-.679H20.57a.679.679,0,0,1,0,1.358H12.463a.679.679,0,0,1-.679-.679ZM28,85.387a.678.678,0,0,1-.679.679H23.18a.679.679,0,1,1,0-1.358h4.138A.679.679,0,0,1,28,85.387Zm-16.213,0a.679.679,0,0,1,.679-.679H20.57a.679.679,0,0,1,0,1.358H12.463a.679.679,0,0,1-.679-.679Zm46.593,8.535a1.209,1.209,0,0,0,1.207-1.208V71.022a3.022,3.022,0,0,1-1.3.314H6.746a3.021,3.021,0,0,1-1.3-.314V92.714a1.209,1.209,0,0,0,1.207,1.208ZM5.383,68.977l4.246-8.787.077-.16c.477-1,.743-1.432,1.287-1.432h10.9l-2,2a.68.68,0,0,0,0,.961l2.05,2.05H19.557a.679.679,0,1,0,0,1.358h25.92a.679.679,0,0,0,0-1.358H43.093l2.05-2.05a.68.68,0,0,0,0-.961l-2-2h10.9c.544,0,.81.436,1.287,1.432l4.323,8.947c.024.05.069.143-.046.325a1.732,1.732,0,0,1-1.318.676H6.746A1.732,1.732,0,0,1,5.428,69.3c-.115-.182-.07-.275-.046-.325ZM32.517,49.893,21.332,61.078l2.53,2.531h17.31l2.53-2.531L32.517,49.893ZM60.875,68.386,56.629,59.6l-.075-.156c-.471-.981-1.056-2.2-2.512-2.2H41.9a.607.607,0,0,0-.1.01l-8.8-8.8a.677.677,0,0,0-.96,0L23.251,57.24H10.992c-1.455,0-2.041,1.222-2.511,2.2L4.16,68.386a1.608,1.608,0,0,0-.165.7,1.647,1.647,0,0,0,.1.554V92.714A2.568,2.568,0,0,0,6.657,95.28h51.72a2.568,2.568,0,0,0,2.565-2.566V69.642a1.6,1.6,0,0,0-.068-1.256ZM55.057,89.395V75.862H9.977V89.395h45.08Zm.679-14.89H9.3a.679.679,0,0,0-.679.679v14.89a.679.679,0,0,0,.679.679H55.736a.68.68,0,0,0,.679-.679V75.184a.679.679,0,0,0-.679-.679Z" transform="translate(0 0)" fill="#242222" fill-rule="evenodd"/>
    </g>
  </g>
</svg>
