<svg xmlns="http://www.w3.org/2000/svg" xmlns:xlink="http://www.w3.org/1999/xlink" width="118" height="118" viewBox="0 0 118 118">
  <defs>
    <filter id="Trazado_874925" x="0" y="0" width="118" height="118" filterUnits="userSpaceOnUse">
      <feOffset dy="3" input="SourceAlpha"/>
      <feGaussianBlur stdDeviation="3" result="blur"/>
      <feFlood flood-opacity="0.161"/>
      <feComposite operator="in" in2="blur"/>
      <feComposite in="SourceGraphic"/>
    </filter>
  </defs>
  <g id="Grupo_1200395" data-name="Grupo 1200395" transform="translate(4115 10171)">
    <g id="Grupo_1112455" data-name="Grupo 1112455" transform="translate(-4914.5 -12682.157)">
      <g id="Grupo_1111316" data-name="Grupo 1111316" transform="translate(808.5 2517.157)">
        <g id="Grupo_1109835" data-name="Grupo 1109835" transform="translate(0 0)">
          <g id="Grupo_1107913" data-name="Grupo 1107913" transform="translate(0 0)">
            <g transform="matrix(1, 0, 0, 1, -9, -6)" filter="url(#Trazado_874925)">
              <g id="Trazado_874925-2" data-name="Trazado 874925" transform="translate(9 6)" fill="#9ad354" opacity="0.859">
                <path d="M 49.99972534179688 98.4998779296875 C 43.45164108276367 98.4998779296875 37.10022354125977 97.21776580810547 31.12189674377441 94.68914794921875 C 25.34676742553711 92.24647521972656 20.15985298156738 88.74925994873047 15.70523929595947 84.29464721679688 C 11.25062561035156 79.84004974365234 7.753411293029785 74.65313720703125 5.310725212097168 68.87800598144531 C 2.782111167907715 62.89969253540039 1.499996781349182 56.54829406738281 1.499996781349182 50.00022125244141 C 1.499996781349182 43.45157623291016 2.782111167907715 37.10017776489258 5.310725212097168 31.12186431884766 C 7.753411293029785 25.34673500061035 11.25062561035156 20.15983581542969 15.70523929595947 15.70522117614746 C 20.15985298156738 11.25062084197998 25.34676742553711 7.753406524658203 31.12189674377441 5.31073522567749 C 37.10022354125977 2.782120943069458 43.45164108276367 1.500006556510925 49.99972534179688 1.500006556510925 C 56.54780960083008 1.500006556510925 62.89922714233398 2.782120943069458 68.87755584716797 5.31073522567749 C 74.65267944335938 7.753406524658203 79.839599609375 11.25062084197998 84.29421234130859 15.70522117614746 C 88.74882507324219 20.15983581542969 92.24604034423828 25.34673500061035 94.68872833251953 31.12186431884766 C 97.21733856201172 37.10017776489258 98.49945068359375 43.45157623291016 98.49945068359375 49.99964904785156 C 98.49945068359375 56.54829406738281 97.21733856201172 62.89969253540039 94.68872833251953 68.87800598144531 C 92.24604034423828 74.65313720703125 88.74882507324219 79.84004974365234 84.29421234130859 84.29464721679688 C 79.839599609375 88.74925994873047 74.65267944335938 92.24647521972656 68.87755584716797 94.68914794921875 C 62.89922714233398 97.21776580810547 56.54780960083008 98.4998779296875 49.99972534179688 98.4998779296875 Z" stroke="none"/>
                <path d="M 49.99972534179688 3 C 43.65348052978516 3 37.49866485595703 4.242240905761719 31.70623016357422 6.692230224609375 C 26.10989379882812 9.059272766113281 21.08323669433594 12.44853210449219 16.76589202880859 16.76587677001953 C 12.44855499267578 21.08321380615234 9.059295654296875 26.10985565185547 6.692230224609375 31.70618438720703 C 4.24224853515625 37.49859619140625 3 43.65341186523438 3 50.00022888183594 C 3 56.34645843505859 4.24224853515625 62.50127410888672 6.692230224609375 68.29368591308594 C 9.059295654296875 73.8900146484375 12.44855499267578 78.91665649414062 16.76589202880859 83.23399353027344 C 21.08323669433594 87.55132293701172 26.10989379882812 90.94059753417969 31.70623016357422 93.30764007568359 C 37.49866485595703 95.75762939453125 43.65348052978516 96.99987030029297 49.99972534179688 96.99987030029297 C 56.34597015380859 96.99987030029297 62.50078582763672 95.75762939453125 68.293212890625 93.30764007568359 C 73.88955688476562 90.94059753417969 78.91621398925781 87.55132293701172 83.23355865478516 83.23399353027344 C 87.55089569091797 78.91665649414062 90.94015502929688 73.8900146484375 93.30722045898438 68.29368591308594 C 95.7572021484375 62.50127410888672 96.99945068359375 56.34645843505859 96.99945068359375 49.99964141845703 C 96.99945068359375 43.65341186523438 95.7572021484375 37.49859619140625 93.30722045898438 31.70618438720703 C 90.94015502929688 26.10985565185547 87.55089569091797 21.08321380615234 83.23355865478516 16.76587677001953 C 78.91621398925781 12.44853210449219 73.88955688476562 9.059272766113281 68.293212890625 6.692230224609375 C 62.50078582763672 4.242240905761719 56.34597015380859 3 49.99972534179688 3 M 49.99972534179688 0 C 77.61381530761719 0 99.99945068359375 22.38559722900391 99.99945068359375 49.99964141845703 L 99.99945068359375 50.00022888183594 C 99.99945068359375 77.6142578125 77.61381530761719 99.99987030029297 49.99972534179688 99.99987030029297 C 22.38563537597656 99.99987030029297 0 77.6142578125 0 50.00022888183594 L 0 49.99964141845703 C 0 22.38559722900391 22.38563537597656 0 49.99972534179688 0 Z" stroke="none" fill="#fff"/>
              </g>
            </g>
            <g id="Trazado_874923" data-name="Trazado 874923" transform="translate(0 0)" fill="none">
              <path d="M50,0a50,50,0,0,1,50,50h0A50,50,0,0,1,0,50H0A50,50,0,0,1,50,0Z" stroke="none"/>
              <path d="M 49.99972534179688 3 C 43.65348052978516 3 37.49866485595703 4.242240905761719 31.70623016357422 6.692230224609375 C 26.10989379882812 9.059272766113281 21.08323669433594 12.44853210449219 16.76589202880859 16.76587677001953 C 12.44855499267578 21.08321380615234 9.059295654296875 26.10985565185547 6.692230224609375 31.70618438720703 C 4.24224853515625 37.49859619140625 3 43.65341186523438 3 50.00022888183594 C 3 56.34645843505859 4.24224853515625 62.50127410888672 6.692230224609375 68.29368591308594 C 9.059295654296875 73.8900146484375 12.44855499267578 78.91665649414062 16.76589202880859 83.23399353027344 C 21.08323669433594 87.55132293701172 26.10989379882812 90.94059753417969 31.70623016357422 93.30764007568359 C 37.49866485595703 95.75762939453125 43.65348052978516 96.99987030029297 49.99972534179688 96.99987030029297 C 56.34597015380859 96.99987030029297 62.50078582763672 95.75762939453125 68.293212890625 93.30764007568359 C 73.88955688476562 90.94059753417969 78.91621398925781 87.55132293701172 83.23355865478516 83.23399353027344 C 87.55089569091797 78.91665649414062 90.94015502929688 73.8900146484375 93.30722045898438 68.29368591308594 C 95.7572021484375 62.50127410888672 96.99945068359375 56.34645843505859 96.99945068359375 49.99964141845703 C 96.99945068359375 43.65341186523438 95.7572021484375 37.49859619140625 93.30722045898438 31.70618438720703 C 90.94015502929688 26.10985565185547 87.55089569091797 21.08321380615234 83.23355865478516 16.76587677001953 C 78.91621398925781 12.44853210449219 73.88955688476562 9.059272766113281 68.293212890625 6.692230224609375 C 62.50078582763672 4.242240905761719 56.34597015380859 3 49.99972534179688 3 M 49.99972534179688 0 C 77.61381530761719 0 99.99945068359375 22.38559722900391 99.99945068359375 49.99964141845703 L 99.99945068359375 50.00022888183594 C 99.99945068359375 77.6142578125 77.61381530761719 99.99987030029297 49.99972534179688 99.99987030029297 C 22.38563537597656 99.99987030029297 0 77.6142578125 0 50.00022888183594 L 0 49.99964141845703 C 0 22.38559722900391 22.38563537597656 0 49.99972534179688 0 Z" stroke="none" fill="#fff"/>
            </g>
          </g>
        </g>
      </g>
    </g>
    <g id="control-de-calidad" transform="translate(-4028.504 -10084.958)">
      <g id="Grupo_1200388" data-name="Grupo 1200388" transform="translate(-21.139 -21.537)">
        <path id="Trazado_901744" data-name="Trazado 901744" d="M334.277,335.079a5.6,5.6,0,0,1-7.833,0L315.568,324.2l7.833-7.833,10.875,10.875A5.539,5.539,0,0,1,334.277,335.079Z" transform="translate(-315.568 -316.371)" fill="#eab7a2"/>
      </g>
      <g id="Grupo_1200389" data-name="Grupo 1200389" transform="translate(-62.496 -63.042)">
        <circle id="Elipse_11626" data-name="Elipse 11626" cx="19.301" cy="19.301" r="19.301" transform="translate(0 27.292) rotate(-45)" fill="#b7bcce"/>
      </g>
      <g id="Grupo_1200390" data-name="Grupo 1200390" transform="translate(-49.578 -50.135)">
        <path id="Trazado_901745" data-name="Trazado 901745" d="M69.973,83.717A14.385,14.385,0,1,1,80.145,59.16a14.519,14.519,0,0,1,0,20.343A14.291,14.291,0,0,1,69.973,83.717Z" transform="translate(-55.595 -54.947)" fill="#bedaff"/>
      </g>
      <g id="Grupo_1200391" data-name="Grupo 1200391" transform="translate(-24.367 -24.774)">
        <path id="Trazado_901746" data-name="Trazado 901746" d="M295.739,291.405l-5.026,5.024-4.648-4.649a19.425,19.425,0,0,0,5.047-5Z" transform="translate(-286.066 -286.779)" fill="#fff"/>
      </g>
      <g id="Grupo_1200392" data-name="Grupo 1200392" transform="translate(-45.123 -40.507)">
        <path id="Trazado_901747" data-name="Trazado 901747" d="M106.29,142.962c-5.886,0-9.967,5.017-9.967,5.017S100.4,153,106.29,153s9.966-5.017,9.966-5.017S112.176,142.962,106.29,142.962Z" transform="translate(-96.323 -142.962)" fill="#fff"/>
      </g>
      <g id="Grupo_1200393" data-name="Grupo 1200393" transform="translate(-39.306 -39.639)">
        <circle id="Elipse_11627" data-name="Elipse 11627" cx="4.149" cy="4.149" r="4.149" transform="translate(0 0)" fill="#868eaf"/>
      </g>
      <g id="Grupo_1200394" data-name="Grupo 1200394" transform="translate(-55.572 -56.145)">
        <path id="Trazado_901748" data-name="Trazado 901748" d="M72.014,77.783a15.624,15.624,0,0,0,0-21.891,15.335,15.335,0,0,0-5.871-3.685,1.094,1.094,0,1,0-.716,2.068,13.161,13.161,0,0,1,5.039,3.164,13.29,13.29,0,1,1-18.8,0,13.165,13.165,0,0,1,5-3.153,1.094,1.094,0,1,0-.721-2.067,15.338,15.338,0,0,0-5.831,3.671A15.479,15.479,0,0,0,72.014,77.783Z" transform="translate(-40.696 -46.442)"/>
        <path id="Trazado_901749" data-name="Trazado 901749" d="M54.718,44.709,43.843,33.834a1.105,1.105,0,0,0-1.548,0l-.614.614L38.463,31.23A20.578,20.578,0,0,0,35.6,5.974a20.4,20.4,0,0,0-28.844,0,20.359,20.359,0,0,0,0,28.844,20.577,20.577,0,0,0,25.109,2.957l3.246,3.247-.647.646a1.094,1.094,0,0,0,0,1.548L45.337,54.09a6.633,6.633,0,1,0,9.381-9.381ZM8.3,33.27a18.376,18.376,0,0,1,0-25.748,18.207,18.207,0,0,1,25.748,0A18.369,18.369,0,0,1,36.163,30.74a20.309,20.309,0,0,1-4.8,4.75A18.369,18.369,0,0,1,8.3,33.27Zm25.388,3.235a22.3,22.3,0,0,0,3.49-3.463L40.134,36l-3.477,3.477ZM53.171,52.543a4.485,4.485,0,0,1-6.286,0l-10.1-10.1,6.286-6.286,10.1,10.1A4.485,4.485,0,0,1,53.171,52.543Z" transform="translate(-0.804)"/>
        <path id="Trazado_901750" data-name="Trazado 901750" d="M86.564,138.378a1.094,1.094,0,0,0,0,1.381c.18.221,4.482,5.421,10.815,5.421s10.636-5.2,10.816-5.421a1.094,1.094,0,0,0,0-1.381c-.18-.221-4.482-5.421-10.816-5.421S86.744,138.156,86.564,138.378Zm10.815,3.745a3.055,3.055,0,1,1,3.055-3.055A3.058,3.058,0,0,1,97.38,142.123Zm-4.367-5.953a5.23,5.23,0,0,0,0,5.8,15.176,15.176,0,0,1-4.1-2.9A15.177,15.177,0,0,1,93.012,136.17Zm8.734,5.8a5.229,5.229,0,0,0,0-5.8,15.174,15.174,0,0,1,4.1,2.9A15.175,15.175,0,0,1,101.747,141.966Z" transform="translate(-76.964 -118.413)"/>
        <path id="Trazado_901751" data-name="Trazado 901751" d="M174.517,173.588a1.094,1.094,0,1,0-.592,1.429A1.1,1.1,0,0,0,174.517,173.588Z" transform="translate(-153.641 -154)"/>
        <path id="Trazado_901752" data-name="Trazado 901752" d="M177.134,46.477a1.094,1.094,0,1,0,.592-1.429A1.105,1.105,0,0,0,177.134,46.477Z" transform="translate(-157.774 -40.048)"/>
      </g>
    </g>
  </g>
</svg>
