<svg xmlns="http://www.w3.org/2000/svg" xmlns:xlink="http://www.w3.org/1999/xlink" width="118" height="118" viewBox="0 0 118 118">
  <defs>
    <filter id="Trazado_874925" x="0" y="0" width="117.999" height="118" filterUnits="userSpaceOnUse">
      <feOffset dy="3" input="SourceAlpha"/>
      <feGaussianBlur stdDeviation="3" result="blur"/>
      <feFlood flood-opacity="0.161"/>
      <feComposite operator="in" in2="blur"/>
      <feComposite in="SourceGraphic"/>
    </filter>
    <clipPath id="clip-path">
      <path id="path5550" d="M0-682.665H62.278v62.278H0Z" transform="translate(0 682.665)"/>
    </clipPath>
  </defs>
  <g id="Grupo_1200403" data-name="Grupo 1200403" transform="translate(-1221 -914)">
    <g id="Grupo_1112467" data-name="Grupo 1112467" transform="translate(427.219 -1019.999)">
      <g id="Grupo_1111552" data-name="Grupo 1111552" transform="translate(-5.719 -577.158)">
        <g id="Grupo_1111316" data-name="Grupo 1111316" transform="translate(808.5 2517.157)">
          <g id="Grupo_1109835" data-name="Grupo 1109835" transform="translate(0 0)">
            <g id="Grupo_1107913" data-name="Grupo 1107913" transform="translate(0 0)">
              <g transform="matrix(1, 0, 0, 1, -9, -6)" filter="url(#Trazado_874925)">
                <g id="Trazado_874925-2" data-name="Trazado 874925" transform="translate(9 6)" fill="#ef8c1a" opacity="0.859">
                  <path d="M 49.99972534179688 98.4998779296875 C 43.45164108276367 98.4998779296875 37.10022354125977 97.21776580810547 31.12189674377441 94.68914794921875 C 25.34676742553711 92.24647521972656 20.15985298156738 88.74925994873047 15.70523929595947 84.29464721679688 C 11.25062561035156 79.84004974365234 7.753411293029785 74.65313720703125 5.310725212097168 68.87800598144531 C 2.782111167907715 62.89969253540039 1.499996781349182 56.54829406738281 1.499996781349182 50.00022125244141 C 1.499996781349182 43.45157623291016 2.782111167907715 37.10017776489258 5.310725212097168 31.12186431884766 C 7.753411293029785 25.34673500061035 11.25062561035156 20.15983581542969 15.70523929595947 15.70522117614746 C 20.15985298156738 11.25062084197998 25.34676742553711 7.753406524658203 31.12189674377441 5.31073522567749 C 37.10022354125977 2.782120943069458 43.45164108276367 1.500006556510925 49.99972534179688 1.500006556510925 C 56.54780960083008 1.500006556510925 62.89922714233398 2.782120943069458 68.87755584716797 5.31073522567749 C 74.65267944335938 7.753406524658203 79.839599609375 11.25062084197998 84.29421234130859 15.70522117614746 C 88.74882507324219 20.15983581542969 92.24604034423828 25.34673500061035 94.68872833251953 31.12186431884766 C 97.21733856201172 37.10017776489258 98.49945068359375 43.45157623291016 98.49945068359375 49.99964904785156 C 98.49945068359375 56.54829406738281 97.21733856201172 62.89969253540039 94.68872833251953 68.87800598144531 C 92.24604034423828 74.65313720703125 88.74882507324219 79.84004974365234 84.29421234130859 84.29464721679688 C 79.839599609375 88.74925994873047 74.65267944335938 92.24647521972656 68.87755584716797 94.68914794921875 C 62.89922714233398 97.21776580810547 56.54780960083008 98.4998779296875 49.99972534179688 98.4998779296875 Z" stroke="none"/>
                  <path d="M 49.99972534179688 3 C 43.65348052978516 3 37.49866485595703 4.242240905761719 31.70623016357422 6.692230224609375 C 26.10989379882812 9.059272766113281 21.08323669433594 12.44853210449219 16.76589202880859 16.76587677001953 C 12.44855499267578 21.08321380615234 9.059295654296875 26.10985565185547 6.692230224609375 31.70618438720703 C 4.24224853515625 37.49859619140625 3 43.65341186523438 3 50.00022888183594 C 3 56.34645843505859 4.24224853515625 62.50127410888672 6.692230224609375 68.29368591308594 C 9.059295654296875 73.8900146484375 12.44855499267578 78.91665649414062 16.76589202880859 83.23399353027344 C 21.08323669433594 87.55132293701172 26.10989379882812 90.94059753417969 31.70623016357422 93.30764007568359 C 37.49866485595703 95.75762939453125 43.65348052978516 96.99987030029297 49.99972534179688 96.99987030029297 C 56.34597015380859 96.99987030029297 62.50078582763672 95.75762939453125 68.293212890625 93.30764007568359 C 73.88955688476562 90.94059753417969 78.91621398925781 87.55132293701172 83.23355865478516 83.23399353027344 C 87.55089569091797 78.91665649414062 90.94015502929688 73.8900146484375 93.30722045898438 68.29368591308594 C 95.7572021484375 62.50127410888672 96.99945068359375 56.34645843505859 96.99945068359375 49.99964141845703 C 96.99945068359375 43.65341186523438 95.7572021484375 37.49859619140625 93.30722045898438 31.70618438720703 C 90.94015502929688 26.10985565185547 87.55089569091797 21.08321380615234 83.23355865478516 16.76587677001953 C 78.91621398925781 12.44853210449219 73.88955688476562 9.059272766113281 68.293212890625 6.692230224609375 C 62.50078582763672 4.242240905761719 56.34597015380859 3 49.99972534179688 3 M 49.99972534179688 0 C 77.61381530761719 0 99.99945068359375 22.38559722900391 99.99945068359375 49.99964141845703 L 99.99945068359375 50.00022888183594 C 99.99945068359375 77.6142578125 77.61381530761719 99.99987030029297 49.99972534179688 99.99987030029297 C 22.38563537597656 99.99987030029297 0 77.6142578125 0 50.00022888183594 L 0 49.99964141845703 C 0 22.38559722900391 22.38563537597656 0 49.99972534179688 0 Z" stroke="none" fill="#fff"/>
                </g>
              </g>
              <g id="Trazado_874923" data-name="Trazado 874923" transform="translate(0 0)" fill="none">
                <path d="M50,0a50,50,0,0,1,50,50h0A50,50,0,0,1,0,50H0A50,50,0,0,1,50,0Z" stroke="none"/>
                <path d="M 49.99972534179688 3 C 43.65348052978516 3 37.49866485595703 4.242240905761719 31.70623016357422 6.692230224609375 C 26.10989379882812 9.059272766113281 21.08323669433594 12.44853210449219 16.76589202880859 16.76587677001953 C 12.44855499267578 21.08321380615234 9.059295654296875 26.10985565185547 6.692230224609375 31.70618438720703 C 4.24224853515625 37.49859619140625 3 43.65341186523438 3 50.00022888183594 C 3 56.34645843505859 4.24224853515625 62.50127410888672 6.692230224609375 68.29368591308594 C 9.059295654296875 73.8900146484375 12.44855499267578 78.91665649414062 16.76589202880859 83.23399353027344 C 21.08323669433594 87.55132293701172 26.10989379882812 90.94059753417969 31.70623016357422 93.30764007568359 C 37.49866485595703 95.75762939453125 43.65348052978516 96.99987030029297 49.99972534179688 96.99987030029297 C 56.34597015380859 96.99987030029297 62.50078582763672 95.75762939453125 68.293212890625 93.30764007568359 C 73.88955688476562 90.94059753417969 78.91621398925781 87.55132293701172 83.23355865478516 83.23399353027344 C 87.55089569091797 78.91665649414062 90.94015502929688 73.8900146484375 93.30722045898438 68.29368591308594 C 95.7572021484375 62.50127410888672 96.99945068359375 56.34645843505859 96.99945068359375 49.99964141845703 C 96.99945068359375 43.65341186523438 95.7572021484375 37.49859619140625 93.30722045898438 31.70618438720703 C 90.94015502929688 26.10985565185547 87.55089569091797 21.08321380615234 83.23355865478516 16.76587677001953 C 78.91621398925781 12.44853210449219 73.88955688476562 9.059272766113281 68.293212890625 6.692230224609375 C 62.50078582763672 4.242240905761719 56.34597015380859 3 49.99972534179688 3 M 49.99972534179688 0 C 77.61381530761719 0 99.99945068359375 22.38559722900391 99.99945068359375 49.99964141845703 L 99.99945068359375 50.00022888183594 C 99.99945068359375 77.6142578125 77.61381530761719 99.99987030029297 49.99972534179688 99.99987030029297 C 22.38563537597656 99.99987030029297 0 77.6142578125 0 50.00022888183594 L 0 49.99964141845703 C 0 22.38559722900391 22.38563537597656 0 49.99972534179688 0 Z" stroke="none" fill="#fff"/>
              </g>
            </g>
          </g>
        </g>
      </g>
    </g>
    <g id="g5544" transform="translate(1249 1621.665)">
      <g id="g5546" transform="translate(0 -682.665)">
        <g id="g5548" clip-path="url(#clip-path)">
          <g id="g5554" transform="translate(9.531 0.956)">
            <path id="path5556" d="M-201.93,0C-213.16.7-222.2,10.285-222.2,22.212c0,11.477,8.478,20.951,19.322,22.131v6h-4.249a2.285,2.285,0,0,0-2.286,2.286,2.285,2.285,0,0,0,2.286,2.286h4.249v3.207a2.28,2.28,0,0,0,.948,1.85l.606-.652a2.264,2.264,0,0,0,.341-1.2V54.917h4.249a2.286,2.286,0,0,0,2.286-2.286,2.286,2.286,0,0,0-2.286-2.286h-4.249v-6a22.019,22.019,0,0,0,19.322-22.132c0-11.808-8.975-21.5-20.268-22.212" transform="translate(222.201)" fill="#f58a97"/>
          </g>
          <g id="g5558" transform="translate(29.796 0.914)">
            <path id="path5560" d="M0-.421C11.3.291,20.274,9.98,20.274,21.791A22.019,22.019,0,0,1,.952,43.923v6H3.628v-6A22.019,22.019,0,0,0,22.95,21.791c0-12.7-10.4-23-22.95-22.212" transform="translate(0 0.464)" fill="#f07181"/>
          </g>
          <g id="g5562" transform="translate(25.284 39.777)">
            <path id="path5564" d="M0,0Z" fill="#d4daf3"/>
          </g>
          <g id="g5566" transform="translate(14.103 5.528)">
            <path id="path5568" d="M0-175.72a17.694,17.694,0,0,0,11.182,16.608l1.678-.894h8.474l.515.3A17.731,17.731,0,0,0,31.64-175.72c0-9.329-7-16.993-15.827-17.639A17.428,17.428,0,0,0,0-175.72" transform="translate(0 193.36)" fill="#d4daf3"/>
          </g>
          <g id="g5570" transform="translate(29.916 5.483)">
            <path id="path5572" d="M0-.449C8.831.2,15.827,7.861,15.827,17.191A17.732,17.732,0,0,1,6.035,33.2l1.042.6A17.662,17.662,0,0,0,18.259,17.191C18.259,7,9.927-1.176,0-.449" transform="translate(0 0.494)" fill="#bec6ed"/>
          </g>
          <g id="g5574" transform="translate(34.998 51.302)">
            <path id="path5576" d="M-26.657,0h-2.676a2.286,2.286,0,0,1,2.286,2.286,2.286,2.286,0,0,1-2.286,2.286h2.676a2.286,2.286,0,0,0,2.286-2.286A2.286,2.286,0,0,0-26.657,0" transform="translate(29.333)" fill="#f07181"/>
          </g>
          <g id="g5578" transform="translate(29.801 55.873)">
            <path id="path5580" d="M-9.439,0V3.207a2.28,2.28,0,0,1-.948,1.85,2.273,2.273,0,0,0,1.338.435A2.286,2.286,0,0,0-6.763,3.207V0Z" transform="translate(10.387)" fill="#f07181"/>
          </g>
          <g id="g5582" transform="translate(21.7 18.557)">
            <path id="path5584" d="M-168.23,0h-6.35c-2.193,0-1.009,4.72,2.522,4.72h.495c-.341.189-.337.145-2.948.145A1.168,1.168,0,0,1-175.679,3.7a1.168,1.168,0,0,1-1.168,1.168h-2.384A1.168,1.168,0,0,1-180.4,3.7a1.168,1.168,0,0,1-1.168,1.168h-2.384A1.168,1.168,0,0,1-185.118,3.7V9.007a5.227,5.227,0,0,0,3.771,5.019h0l-.186,7.194a16.4,16.4,0,0,0,5.855,1.076,16.481,16.481,0,0,0,5.855-1.069l-.186-7.2h0a5.227,5.227,0,0,0,3.771-5.019V4.72h0V1.991A1.991,1.991,0,0,0-168.23,0" transform="translate(185.118)" fill="#ffcebf"/>
          </g>
          <g id="g5586" transform="translate(21.717 14.793)">
            <path id="path5588" d="M-35.208,0h-.309c.025.151.018-.328.018,6.488a1.168,1.168,0,0,1-1.168,1.168h-2.075a1.167,1.167,0,0,0,1.15.973h2.384A1.168,1.168,0,0,0-34.04,7.461V1.168A1.168,1.168,0,0,0-35.208,0" transform="translate(38.743)" fill="#ffaf9e"/>
          </g>
          <g id="g5590" transform="translate(26.437 14.793)">
            <path id="path5592" d="M-35.208,0h-.309c.025.151.018-.328.018,6.488a1.168,1.168,0,0,1-1.168,1.168h-2.075a1.167,1.167,0,0,0,1.15.973h2.384A1.168,1.168,0,0,0-34.04,7.461V1.168A1.168,1.168,0,0,0-35.208,0" transform="translate(38.743)" fill="#ffaf9e"/>
          </g>
          <g id="g5594" transform="translate(31.156 14.793)">
            <path id="path5596" d="M-35.208,0h-.309c.025.151.018-.328.018,6.488a1.168,1.168,0,0,1-1.168,1.168h-2.075a1.167,1.167,0,0,0,1.15.973h2.384A1.168,1.168,0,0,0-34.04,7.461V1.168A1.168,1.168,0,0,0-35.208,0" transform="translate(38.743)" fill="#ffaf9e"/>
          </g>
          <g id="g5598" transform="translate(35.858 14.793)">
            <path id="path5600" d="M-37.159,0H-39.72a1.168,1.168,0,0,0-1.168,1.168c0,6.911-.008,6.323.018,6.488h2.561a1.168,1.168,0,0,0,1.168-1.168c0-6.816.008-6.337-.018-6.488" transform="translate(40.889)" fill="#ffcebf"/>
          </g>
          <g id="g5602" transform="translate(31.138 14.793)">
            <path id="path5604" d="M-37.159,0h-2.561a1.168,1.168,0,0,0-1.168,1.168c0,6.838-.008,6.341.018,6.488h2.561a1.168,1.168,0,0,0,1.168-1.168c0-6.816.008-6.337-.018-6.488" transform="translate(40.89)" fill="#ffcebf"/>
          </g>
          <g id="g5606" transform="translate(26.418 14.793)">
            <path id="path5608" d="M-37.159,0h-2.561a1.168,1.168,0,0,0-1.168,1.168c0,6.792-.008,6.353.018,6.488h2.561a1.168,1.168,0,0,0,1.168-1.168c0-6.816.008-6.337-.018-6.488" transform="translate(40.89)" fill="#ffcebf"/>
          </g>
          <g id="g5610" transform="translate(21.7 14.793)">
            <path id="path5612" d="M-37.148,0H-39.71a1.168,1.168,0,0,0-1.168,1.168V7.461a1.082,1.082,0,0,0,.018.195H-38.3a1.168,1.168,0,0,0,1.168-1.168c0-6.816.008-6.337-.018-6.488" transform="translate(40.877)" fill="#ffcebf"/>
          </g>
          <g id="g5614" transform="translate(35.876 14.793)">
            <path id="path5616" d="M-35.208,0h-.309c.025.151.018-.328.018,6.488a1.168,1.168,0,0,1-1.168,1.168h-2.075a1.167,1.167,0,0,0,1.15.973h2.384A1.168,1.168,0,0,0-34.04,7.461V1.168A1.168,1.168,0,0,0-35.208,0" transform="translate(38.743)" fill="#ffaf9e"/>
          </g>
          <g id="g5618" transform="translate(21.717 14.793)">
            <path id="path5620" d="M-35.208,0h-.309c.025.151.018-.328.018,6.488a1.168,1.168,0,0,1-1.168,1.168h-2.075a1.167,1.167,0,0,0,1.15.973h2.384A1.168,1.168,0,0,0-34.04,7.461V1.168A1.168,1.168,0,0,0-35.208,0" transform="translate(38.743)" fill="#ffaf9e"/>
          </g>
          <g id="g5622" transform="translate(26.437 14.793)">
            <path id="path5624" d="M-35.208,0h-.309c.025.151.018-.328.018,6.488a1.168,1.168,0,0,1-1.168,1.168h-2.075a1.167,1.167,0,0,0,1.15.973h2.384A1.168,1.168,0,0,0-34.04,7.461V1.168A1.168,1.168,0,0,0-35.208,0" transform="translate(38.743)" fill="#ffaf9e"/>
          </g>
          <g id="g5626" transform="translate(31.156 14.793)">
            <path id="path5628" d="M-35.208,0h-.309c.025.151.018-.328.018,6.488a1.168,1.168,0,0,1-1.168,1.168h-2.075a1.167,1.167,0,0,0,1.15.973h2.384A1.168,1.168,0,0,0-34.04,7.461V1.168A1.168,1.168,0,0,0-35.208,0" transform="translate(38.743)" fill="#ffaf9e"/>
          </g>
          <g id="g5630" transform="translate(27.287 18.557)">
            <path id="path5632" d="M-112.569,0h-6.35c-2.193,0-1.009,4.72,2.522,4.72h.495c-.341.189-.337.145-2.948.145A1.168,1.168,0,0,1-120.017,3.7a1.168,1.168,0,0,1-1.168,1.168,14.522,14.522,0,0,1-2.684-.04v9.582h9.53l-.01-.381h0a5.227,5.227,0,0,0,3.771-5.019V4.72h0V1.991A1.991,1.991,0,0,0-112.569,0" transform="translate(123.869)" fill="#ffcebf"/>
          </g>
          <g id="g5634" transform="translate(31.131 18.552)">
            <path id="path5636" d="M-39.608-217.351a16.438,16.438,0,0,0,1.886-.587c-.022-.844-.166-6.425-.186-7.2a5.262,5.262,0,0,0,3.691-4.11c.1-.84.079.349.079-7.924,0-1.138-.733-1.991-2.288-1.991-.791-.011-2.423,0-6.052,0-2.193,0-1.009,4.72,2.522,4.72h.325a2.967,2.967,0,0,0-1.488,1.3,8.61,8.61,0,0,0-1.164,4.876.938.938,0,0,0,.881.951.912.912,0,0,0,.944-.912v-.7a6.38,6.38,0,0,1,2.2-4.821.913.913,0,0,0-.632-1.6h-1.065c-2.312,0-3.059-2.612-2.587-2.857.109-.057-.361-.039,6.014-.038a.6.6,0,0,1,.565.39c.17.455.123.135.123,7.7a5.226,5.226,0,0,1-3.606,4.968c-.239.078-.166-.332-.162,7.839" transform="translate(43.584 239.17)" fill="#ffaf9e"/>
          </g>
          <g id="g5638" transform="translate(34.946 13.881)">
            <path id="path5640" d="M-46.855-10h2.384a2.082,2.082,0,0,1,2.08,2.08v4.587a.912.912,0,0,1-.912.912.912.912,0,0,1-.912-.912,1.08,1.08,0,0,0-1.079-1.079h-2.729a.912.912,0,0,1-.912-.912v-2.6A2.082,2.082,0,0,1-46.855-10Zm2.64,3.971V-7.92a.256.256,0,0,0-.255-.255h-2.384a.256.256,0,0,0-.255.255v1.684h1.817A2.888,2.888,0,0,1-44.215-6.029Z" transform="translate(48.935 10)"/>
          </g>
          <g id="g5642" transform="translate(20.787 13.881)">
            <path id="path5644" d="M-44.47-94.128h-2.384a2.082,2.082,0,0,1-2.08-2.08V-102.5a2.082,2.082,0,0,1,2.08-2.08h2.384a2.082,2.082,0,0,1,2.08,2.08v6.293A2.082,2.082,0,0,1-44.47-94.128Zm-2.384-8.628a.256.256,0,0,0-.255.255v6.293a.256.256,0,0,0,.255.255h2.384a.256.256,0,0,0,.255-.255V-102.5a.256.256,0,0,0-.255-.255Z" transform="translate(48.935 104.581)"/>
          </g>
          <g id="g5646" transform="translate(25.507 13.881)">
            <path id="path5648" d="M-44.47-94.128h-2.384a2.082,2.082,0,0,1-2.08-2.08V-102.5a2.082,2.082,0,0,1,2.08-2.08h2.384a2.082,2.082,0,0,1,2.08,2.08v6.293A2.082,2.082,0,0,1-44.47-94.128Zm-2.384-8.628a.256.256,0,0,0-.255.255v6.293a.256.256,0,0,0,.255.255h2.384a.256.256,0,0,0,.256-.255V-102.5a.256.256,0,0,0-.256-.255Z" transform="translate(48.935 104.581)"/>
          </g>
          <g id="g5650" transform="translate(30.227 13.881)">
            <path id="path5652" d="M-21.133-44.568a.912.912,0,0,1-.912-.912v-3.695a2.082,2.082,0,0,1,2.08-2.08h2.384a2.082,2.082,0,0,1,2.08,2.08v2.6a.912.912,0,0,1-.912.912h-3.621a.187.187,0,0,0-.187.186A.912.912,0,0,1-21.133-44.568Zm1.168-4.862a.256.256,0,0,0-.256.255v1.692q.092-.009.187-.009h2.709v-1.684a.256.256,0,0,0-.256-.255Z" transform="translate(22.045 51.255)"/>
          </g>
          <g id="g5654" transform="translate(30.227 18.743)">
            <path id="path5656" d="M-51.246-44.1h0l-1.786,0a2.082,2.082,0,0,1-2.08-2.08v-2.6a.912.912,0,0,1,.912-.912.912.912,0,0,1,.912.912A2.712,2.712,0,0,0-50.58-46.07h.495a.912.912,0,0,1,.883.684.912.912,0,0,1-.442,1.026A2.758,2.758,0,0,1-51.246-44.1Z" transform="translate(55.113 49.691)"/>
          </g>
          <g id="g5658" transform="translate(30.219 17.645)">
            <path id="path5660" d="M-88.607,2.756a.912.912,0,0,1-.912-.912v-.7a8.2,8.2,0,0,1,1.462-4.677,4.6,4.6,0,0,1-3.676-4.271,2.347,2.347,0,0,1,.47-1.482A1.929,1.929,0,0,1-89.714-10h6.35a.912.912,0,0,1,.912.912.912.912,0,0,1-.912.912h-6.35c-.01,0-.1,0-.121.024a.622.622,0,0,0-.073.346A2.738,2.738,0,0,0-87.192-5.28h1.1a.912.912,0,0,1,.855.593.912.912,0,0,1-.257,1.008,6.38,6.38,0,0,0-2.2,4.821v.7A.912.912,0,0,1-88.607,2.756Z" transform="translate(91.733 10)"/>
          </g>
          <g id="g5662" transform="translate(8.619 0)">
            <path id="path5664" d="M-224.333-10c12.418,0,22.52,10.393,22.52,23.168,0,.708-.031,1.421-.092,2.121a.912.912,0,0,1-.988.829.912.912,0,0,1-.829-.988c.057-.647.085-1.307.085-1.962,0-11.769-9.284-21.343-20.7-21.343q-.554,0-1.1.03h-.048l-.048,0c-10.934.64-19.5,10-19.5,21.309a21.542,21.542,0,0,0,9.094,17.665.912.912,0,0,1,.224,1.271.912.912,0,0,1-1.271.224,23.368,23.368,0,0,1-9.871-19.159c0-12.274,9.319-22.434,21.217-23.13l.052,0,.052,0Q-224.936-10-224.333-10Zm21.019,27.448a.915.915,0,0,1,.206.024.912.912,0,0,1,.684,1.094A22.75,22.75,0,0,1-221.135,36.1V40.39h3.337a3.2,3.2,0,0,1,3.2,3.2,3.2,3.2,0,0,1-3.2,3.2h-3.337V49.08a3.179,3.179,0,0,1-2.27,3.061l-.068.018-.067.02a3.207,3.207,0,0,1-.793.1,3.2,3.2,0,0,1-3.2-3.2V46.785h-3.337a3.2,3.2,0,0,1-3.2-3.2,3.2,3.2,0,0,1,3.2-3.2h3.337V36.1a21.848,21.848,0,0,1-6.594-2.073.912.912,0,0,1-.409-1.224.912.912,0,0,1,1.223-.409,20.023,20.023,0,0,0,6.79,2,.912.912,0,0,1,.814.907v6a.912.912,0,0,1-.912.912h-4.249a1.375,1.375,0,0,0-1.373,1.373,1.375,1.375,0,0,0,1.373,1.373h4.249a.912.912,0,0,1,.912.912V49.08a1.375,1.375,0,0,0,1.373,1.373,1.381,1.381,0,0,0,.341-.043l.029-.007.029-.009a1.383,1.383,0,0,0,.974-1.315V45.873a.912.912,0,0,1,.912-.912h4.249a1.375,1.375,0,0,0,1.373-1.373,1.375,1.375,0,0,0-1.373-1.373h-4.249a.912.912,0,0,1-.912-.912v-6a.912.912,0,0,1,.815-.907A20.893,20.893,0,0,0-204.2,18.155.913.913,0,0,1-203.314,17.448Z" transform="translate(246.853 10)"/>
          </g>
          <g id="g5666" transform="translate(13.19 4.571)">
            <path id="path5668" d="M-178.8-360.509c-9.9,0-17.949-8.342-17.949-18.6s8.052-18.6,17.949-18.6,17.949,8.342,17.949,18.6S-168.9-360.509-178.8-360.509Zm0-35.369c-8.891,0-16.124,7.524-16.124,16.772s7.233,16.772,16.124,16.772,16.124-7.524,16.124-16.772S-169.908-395.878-178.8-395.878Z" transform="translate(196.748 397.703)"/>
          </g>
          <g id="g5670" transform="translate(20.787 17.645)">
            <path id="path5672" d="M-183.668-10h6.35a2.906,2.906,0,0,1,2.9,2.9V-.081a6.172,6.172,0,0,1-3.754,5.655l.169,6.541a.912.912,0,0,1-.589.877,17.365,17.365,0,0,1-6.178,1.128,17.291,17.291,0,0,1-6.18-1.136.912.912,0,0,1-.587-.876l.169-6.534a6.171,6.171,0,0,1-3.754-5.655V-5.391a.912.912,0,0,1,.912-.912.912.912,0,0,1,.912.912.256.256,0,0,0,.255.255h2.384a.256.256,0,0,0,.255-.255.912.912,0,0,1,.912-.912.912.912,0,0,1,.912.912.256.256,0,0,0,.256.255h2.384a.256.256,0,0,0,.255-.255.911.911,0,0,1,.393-.75,4.025,4.025,0,0,1-.4-1.665,2.348,2.348,0,0,1,.47-1.482A1.929,1.929,0,0,1-183.668-10Zm3.827,21.5-.169-6.54a.912.912,0,0,1,.658-.9A4.333,4.333,0,0,0-176.24-.081V-7.1a1.08,1.08,0,0,0-1.079-1.079h-6.35c-.01,0-.1,0-.121.024a.623.623,0,0,0-.073.346,2.738,2.738,0,0,0,2.716,2.525h.495a.912.912,0,0,1,.883.684.912.912,0,0,1-.442,1.026,2.763,2.763,0,0,1-1.6.263l-1.785,0a2.068,2.068,0,0,1-1.168-.359,2.068,2.068,0,0,1-1.168.359h-2.384a2.068,2.068,0,0,1-1.168-.359,2.068,2.068,0,0,1-1.168.359h-2.384a2.092,2.092,0,0,1-.255-.016V-.081a4.332,4.332,0,0,0,3.112,4.142.912.912,0,0,1,.658.9l-.169,6.534a15.473,15.473,0,0,0,4.926.8A15.558,15.558,0,0,0-179.841,11.5Z" transform="translate(195.118 10)"/>
          </g>
        </g>
      </g>
    </g>
  </g>
</svg>
