<svg xmlns="http://www.w3.org/2000/svg" xmlns:xlink="http://www.w3.org/1999/xlink" width="117.999" height="118" viewBox="0 0 117.999 118">
  <defs>
    <filter id="Trazado_874925" x="0" y="0" width="117.999" height="118" filterUnits="userSpaceOnUse">
      <feOffset dy="3" input="SourceAlpha"/>
      <feGaussianBlur stdDeviation="3" result="blur"/>
      <feFlood flood-opacity="0.161"/>
      <feComposite operator="in" in2="blur"/>
      <feComposite in="SourceGraphic"/>
    </filter>
  </defs>
  <g id="Grupo_1200381" data-name="Grupo 1200381" transform="translate(-793.782 -1436.999)">
    <g id="Grupo_1112450" data-name="Grupo 1112450" transform="translate(-5.719 -1074.158)">
      <g id="Grupo_1111316" data-name="Grupo 1111316" transform="translate(808.5 2517.157)">
        <g id="Grupo_1109835" data-name="Grupo 1109835" transform="translate(0 0)">
          <g id="Grupo_1107913" data-name="Grupo 1107913" transform="translate(0 0)">
            <g transform="matrix(1, 0, 0, 1, -9, -6)" filter="url(#Trazado_874925)">
              <g id="Trazado_874925-2" data-name="Trazado 874925" transform="translate(9 6)" fill="#9ad354" opacity="0.859">
                <path d="M 49.99972534179688 98.4998779296875 C 43.45164108276367 98.4998779296875 37.10022354125977 97.21776580810547 31.12189674377441 94.68914794921875 C 25.34676742553711 92.24647521972656 20.15985298156738 88.74925994873047 15.70523929595947 84.29464721679688 C 11.25062561035156 79.84004974365234 7.753411293029785 74.65313720703125 5.310725212097168 68.87800598144531 C 2.782111167907715 62.89969253540039 1.499996781349182 56.54829406738281 1.499996781349182 50.00022125244141 C 1.499996781349182 43.45157623291016 2.782111167907715 37.10017776489258 5.310725212097168 31.12186431884766 C 7.753411293029785 25.34673500061035 11.25062561035156 20.15983581542969 15.70523929595947 15.70522117614746 C 20.15985298156738 11.25062084197998 25.34676742553711 7.753406524658203 31.12189674377441 5.31073522567749 C 37.10022354125977 2.782120943069458 43.45164108276367 1.500006556510925 49.99972534179688 1.500006556510925 C 56.54780960083008 1.500006556510925 62.89922714233398 2.782120943069458 68.87755584716797 5.31073522567749 C 74.65267944335938 7.753406524658203 79.839599609375 11.25062084197998 84.29421234130859 15.70522117614746 C 88.74882507324219 20.15983581542969 92.24604034423828 25.34673500061035 94.68872833251953 31.12186431884766 C 97.21733856201172 37.10017776489258 98.49945068359375 43.45157623291016 98.49945068359375 49.99964904785156 C 98.49945068359375 56.54829406738281 97.21733856201172 62.89969253540039 94.68872833251953 68.87800598144531 C 92.24604034423828 74.65313720703125 88.74882507324219 79.84004974365234 84.29421234130859 84.29464721679688 C 79.839599609375 88.74925994873047 74.65267944335938 92.24647521972656 68.87755584716797 94.68914794921875 C 62.89922714233398 97.21776580810547 56.54780960083008 98.4998779296875 49.99972534179688 98.4998779296875 Z" stroke="none"/>
                <path d="M 49.99972534179688 3 C 43.65348052978516 3 37.49866485595703 4.242240905761719 31.70623016357422 6.692230224609375 C 26.10989379882812 9.059272766113281 21.08323669433594 12.44853210449219 16.76589202880859 16.76587677001953 C 12.44855499267578 21.08321380615234 9.059295654296875 26.10985565185547 6.692230224609375 31.70618438720703 C 4.24224853515625 37.49859619140625 3 43.65341186523438 3 50.00022888183594 C 3 56.34645843505859 4.24224853515625 62.50127410888672 6.692230224609375 68.29368591308594 C 9.059295654296875 73.8900146484375 12.44855499267578 78.91665649414062 16.76589202880859 83.23399353027344 C 21.08323669433594 87.55132293701172 26.10989379882812 90.94059753417969 31.70623016357422 93.30764007568359 C 37.49866485595703 95.75762939453125 43.65348052978516 96.99987030029297 49.99972534179688 96.99987030029297 C 56.34597015380859 96.99987030029297 62.50078582763672 95.75762939453125 68.293212890625 93.30764007568359 C 73.88955688476562 90.94059753417969 78.91621398925781 87.55132293701172 83.23355865478516 83.23399353027344 C 87.55089569091797 78.91665649414062 90.94015502929688 73.8900146484375 93.30722045898438 68.29368591308594 C 95.7572021484375 62.50127410888672 96.99945068359375 56.34645843505859 96.99945068359375 49.99964141845703 C 96.99945068359375 43.65341186523438 95.7572021484375 37.49859619140625 93.30722045898438 31.70618438720703 C 90.94015502929688 26.10985565185547 87.55089569091797 21.08321380615234 83.23355865478516 16.76587677001953 C 78.91621398925781 12.44853210449219 73.88955688476562 9.059272766113281 68.293212890625 6.692230224609375 C 62.50078582763672 4.242240905761719 56.34597015380859 3 49.99972534179688 3 M 49.99972534179688 0 C 77.61381530761719 0 99.99945068359375 22.38559722900391 99.99945068359375 49.99964141845703 L 99.99945068359375 50.00022888183594 C 99.99945068359375 77.6142578125 77.61381530761719 99.99987030029297 49.99972534179688 99.99987030029297 C 22.38563537597656 99.99987030029297 0 77.6142578125 0 50.00022888183594 L 0 49.99964141845703 C 0 22.38559722900391 22.38563537597656 0 49.99972534179688 0 Z" stroke="none" fill="#fff"/>
              </g>
            </g>
            <g id="Trazado_874923" data-name="Trazado 874923" transform="translate(0 0)" fill="none">
              <path d="M50,0a50,50,0,0,1,50,50h0A50,50,0,0,1,0,50H0A50,50,0,0,1,50,0Z" stroke="none"/>
              <path d="M 49.99972534179688 3 C 43.65348052978516 3 37.49866485595703 4.242240905761719 31.70623016357422 6.692230224609375 C 26.10989379882812 9.059272766113281 21.08323669433594 12.44853210449219 16.76589202880859 16.76587677001953 C 12.44855499267578 21.08321380615234 9.059295654296875 26.10985565185547 6.692230224609375 31.70618438720703 C 4.24224853515625 37.49859619140625 3 43.65341186523438 3 50.00022888183594 C 3 56.34645843505859 4.24224853515625 62.50127410888672 6.692230224609375 68.29368591308594 C 9.059295654296875 73.8900146484375 12.44855499267578 78.91665649414062 16.76589202880859 83.23399353027344 C 21.08323669433594 87.55132293701172 26.10989379882812 90.94059753417969 31.70623016357422 93.30764007568359 C 37.49866485595703 95.75762939453125 43.65348052978516 96.99987030029297 49.99972534179688 96.99987030029297 C 56.34597015380859 96.99987030029297 62.50078582763672 95.75762939453125 68.293212890625 93.30764007568359 C 73.88955688476562 90.94059753417969 78.91621398925781 87.55132293701172 83.23355865478516 83.23399353027344 C 87.55089569091797 78.91665649414062 90.94015502929688 73.8900146484375 93.30722045898438 68.29368591308594 C 95.7572021484375 62.50127410888672 96.99945068359375 56.34645843505859 96.99945068359375 49.99964141845703 C 96.99945068359375 43.65341186523438 95.7572021484375 37.49859619140625 93.30722045898438 31.70618438720703 C 90.94015502929688 26.10985565185547 87.55089569091797 21.08321380615234 83.23355865478516 16.76587677001953 C 78.91621398925781 12.44853210449219 73.88955688476562 9.059272766113281 68.293212890625 6.692230224609375 C 62.50078582763672 4.242240905761719 56.34597015380859 3 49.99972534179688 3 M 49.99972534179688 0 C 77.61381530761719 0 99.99945068359375 22.38559722900391 99.99945068359375 49.99964141845703 L 99.99945068359375 50.00022888183594 C 99.99945068359375 77.6142578125 77.61381530761719 99.99987030029297 49.99972534179688 99.99987030029297 C 22.38563537597656 99.99987030029297 0 77.6142578125 0 50.00022888183594 L 0 49.99964141845703 C 0 22.38559722900391 22.38563537597656 0 49.99972534179688 0 Z" stroke="none" fill="#fff"/>
            </g>
          </g>
        </g>
      </g>
    </g>
    <g id="mayoria" transform="translate(774.981 1463.254)">
      <path id="Trazado_901700" data-name="Trazado 901700" d="M164.075,9.686V19.741a2.186,2.186,0,0,0,2.186,2.186h4.669l2.318,2.319a1.093,1.093,0,0,0,1.546,0l2.318-2.319h4.669a2.186,2.186,0,0,0,2.186-2.186V9.686A2.186,2.186,0,0,0,181.781,7.5h-15.52A2.186,2.186,0,0,0,164.075,9.686Z" transform="translate(-96.221 -6.689)" fill="#bbec6c"/>
      <path id="Trazado_901701" data-name="Trazado 901701" d="M300.7,7.5h-3.279A2.186,2.186,0,0,1,299.6,9.686V19.741a2.186,2.186,0,0,1-2.186,2.186H300.7a2.186,2.186,0,0,0,2.186-2.186V9.686A2.186,2.186,0,0,0,300.7,7.5Z" transform="translate(-215.136 -6.689)" fill="#a2e62e"/>
      <g id="Grupo_1200374" data-name="Grupo 1200374" transform="translate(56.992 15.676)">
        <g id="Grupo_1200371" data-name="Grupo 1200371" transform="translate(0 3.279)">
          <path id="Trazado_901702" data-name="Trazado 901702" d="M76.235,178.656a1.387,1.387,0,0,0-1.454,1.386v-1.695a1.413,1.413,0,0,0-1.32-1.425,1.387,1.387,0,0,0-1.454,1.386v-1.695a1.413,1.413,0,0,0-1.32-1.425,1.387,1.387,0,0,0-1.454,1.386v1.734a1.387,1.387,0,0,0-1.454-1.386,1.413,1.413,0,0,0-1.32,1.425v6.9A1.387,1.387,0,0,0,65,183.858a1.413,1.413,0,0,0-1.32,1.425V191a5.375,5.375,0,0,0,1.3,3.51l1.406,1.631v14.671H76.45V196.145L77,194.583a9.83,9.83,0,0,0,.556-3.258V180.081A1.413,1.413,0,0,0,76.235,178.656Z" transform="translate(-63.683 -175.186)" fill="#ea9b58"/>
          <g id="Grupo_1200370" data-name="Grupo 1200370" transform="translate(9.993 3.468)">
            <path id="Trazado_901703" data-name="Trazado 901703" d="M158.562,207.24a1.387,1.387,0,0,0-1.413,1.387V219.91a9.832,9.832,0,0,1-.556,3.258l-.425,1.21a2.186,2.186,0,0,0-.124.725v14.3h2.774V224.73l.549-1.562a9.829,9.829,0,0,0,.556-3.258V208.673A1.437,1.437,0,0,0,158.562,207.24Z" transform="translate(-156.044 -207.24)" fill="#d88a55"/>
          </g>
        </g>
        <g id="Grupo_1200372" data-name="Grupo 1200372" transform="translate(13.872 10.131)">
          <path id="Trazado_901704" data-name="Trazado 901704" d="M204.448,241.989a1.387,1.387,0,0,0-1.454,1.386V241.68a1.413,1.413,0,0,0-1.32-1.425,1.387,1.387,0,0,0-1.454,1.386v-1.695a1.413,1.413,0,0,0-1.32-1.425,1.387,1.387,0,0,0-1.454,1.386v1.734a1.387,1.387,0,0,0-1.454-1.386,1.413,1.413,0,0,0-1.32,1.425v6.9a1.387,1.387,0,0,0-1.454-1.386,1.413,1.413,0,0,0-1.32,1.425v5.721a5.375,5.375,0,0,0,1.3,3.51l1.406,1.631V267.3h10.057v-7.819l.549-1.562a9.829,9.829,0,0,0,.556-3.258V243.414A1.413,1.413,0,0,0,204.448,241.989Z" transform="translate(-191.896 -238.519)" fill="#fed2a4"/>
          <path id="Trazado_901705" data-name="Trazado 901705" d="M286.774,270.571a1.387,1.387,0,0,0-1.413,1.387v11.283a9.831,9.831,0,0,1-.556,3.258l-.425,1.21a2.186,2.186,0,0,0-.124.725v7.446h2.774v-7.819l.549-1.562a9.829,9.829,0,0,0,.556-3.258V272A1.437,1.437,0,0,0,286.774,270.571Z" transform="translate(-274.263 -267.103)" fill="#ffbd86"/>
        </g>
        <g id="Grupo_1200373" data-name="Grupo 1200373" transform="translate(27.744)">
          <path id="Trazado_901706" data-name="Trazado 901706" d="M332.66,148.353a1.387,1.387,0,0,0-1.454,1.386v-1.695a1.413,1.413,0,0,0-1.32-1.425A1.387,1.387,0,0,0,328.431,148V146.31a1.413,1.413,0,0,0-1.32-1.425,1.387,1.387,0,0,0-1.454,1.386V148a1.387,1.387,0,0,0-1.454-1.386,1.413,1.413,0,0,0-1.32,1.425v6.9a1.387,1.387,0,0,0-1.454-1.386,1.413,1.413,0,0,0-1.32,1.425V160.7a5.375,5.375,0,0,0,1.3,3.51l1.406,1.631v17.95h10.057v-17.95l.549-1.562a9.829,9.829,0,0,0,.556-3.258V149.777A1.413,1.413,0,0,0,332.66,148.353Z" transform="translate(-320.108 -144.883)" fill="#ca6e59"/>
          <path id="Trazado_901707" data-name="Trazado 901707" d="M414.986,176.935a1.387,1.387,0,0,0-1.413,1.387v11.283a9.831,9.831,0,0,1-.556,3.258l-.425,1.21a2.185,2.185,0,0,0-.124.725v17.577h2.774v-17.95l.549-1.562a9.829,9.829,0,0,0,.556-3.258V178.368A1.437,1.437,0,0,0,414.986,176.935Z" transform="translate(-402.475 -173.467)" fill="#bb5d4c"/>
        </g>
      </g>
      <g id="Grupo_1200376" data-name="Grupo 1200376" transform="translate(72.321 3.962)">
        <g id="Grupo_1200375" data-name="Grupo 1200375">
          <path id="Trazado_901708" data-name="Trazado 901708" d="M213.524,37.1l-3.688,3.687-1.672-1.672a1.64,1.64,0,0,0-2.318,0h0a1.639,1.639,0,0,0,0,2.319l2.831,2.831a1.64,1.64,0,0,0,2.318,0l4.847-4.847a1.64,1.64,0,0,0,0-2.319h0A1.639,1.639,0,0,0,213.524,37.1Z" transform="translate(-205.366 -36.619)" fill="#fdf6ec"/>
        </g>
      </g>
      <path id="Trazado_901709" data-name="Trazado 901709" d="M167.337,18.689a1.89,1.89,0,0,1-1.347-.559l-2.08-2.08h-4.332a3,3,0,0,1-3-3V9.683a.811.811,0,1,1,1.623,0v3.369a1.376,1.376,0,0,0,1.374,1.374h4.669a.811.811,0,0,1,.574.238l2.319,2.319a.28.28,0,0,0,.4,0l2.319-2.319a.811.811,0,0,1,.574-.238H175.1a1.376,1.376,0,0,0,1.374-1.374V3A1.376,1.376,0,0,0,175.1,1.623H159.577A1.376,1.376,0,0,0,158.2,3V5.9a.811.811,0,1,1-1.623,0V3a3,3,0,0,1,3-3H175.1a3,3,0,0,1,3,3V13.053a3,3,0,0,1-3,3h-4.332l-2.081,2.081A1.889,1.889,0,0,1,167.337,18.689Z" transform="translate(-89.537 0)"/>
      <g id="Grupo_1200377" data-name="Grupo 1200377" transform="translate(56.18 18.143)">
        <path id="Trazado_901710" data-name="Trazado 901710" d="M59.7,328.788a.811.811,0,0,1-.811-.811v-14.37l-1.21-1.4a6.192,6.192,0,0,1-1.5-4.04v-.792a.811.811,0,0,1,1.623,0v.792a4.568,4.568,0,0,0,1.107,2.98l1.406,1.631a.811.811,0,0,1,.2.53v14.671A.811.811,0,0,1,59.7,328.788Z" transform="translate(-56.18 -291.534)"/>
        <path id="Trazado_901711" data-name="Trazado 901711" d="M69.759,204.938a.811.811,0,0,1-.811-.811V189.455a.811.811,0,0,1,.046-.269l.549-1.562a8.988,8.988,0,0,0,.509-2.989V173.39a.6.6,0,0,0-.547-.614.576.576,0,0,0-.6.575.811.811,0,1,1-1.623,0v-1.694a.6.6,0,0,0-.546-.614.575.575,0,0,0-.605.574.811.811,0,1,1-1.623,0v-1.694a.6.6,0,0,0-.547-.614.575.575,0,0,0-.6.575v1.733a.811.811,0,1,1-1.623,0,.575.575,0,0,0-.6-.574.6.6,0,0,0-.548.614v6.9a.811.811,0,1,1-1.623,0,.576.576,0,0,0-.605-.575.6.6,0,0,0-.546.614v1.143a.811.811,0,0,1-1.623,0v-1.143a2.2,2.2,0,0,1,2.774-2.162v-4.773a2.2,2.2,0,0,1,2.809-2.154,2.211,2.211,0,0,1,.648-1.212,2.18,2.18,0,0,1,1.623-.6,2.207,2.207,0,0,1,2.055,1.818,2.2,2.2,0,0,1,2.774,1.734,2.2,2.2,0,0,1,2.812,2.152v11.245a10.606,10.606,0,0,1-.6,3.527l-.5,1.431v14.533A.811.811,0,0,1,69.759,204.938Z" transform="translate(-56.18 -167.685)"/>
      </g>
      <path id="Línea_587" data-name="Línea 587" d="M-6.689.53A.811.811,0,0,1-7.5-.281V-6.689A.811.811,0,0,1-6.689-7.5a.811.811,0,0,1,.811.811V-.281A.811.811,0,0,1-6.689.53Z" transform="translate(69.229 28.764)"/>
      <path id="Línea_588" data-name="Línea 588" d="M-6.689.53A.811.811,0,0,1-7.5-.281V-6.689A.811.811,0,0,1-6.689-7.5a.811.811,0,0,1,.811.811V-.281A.811.811,0,0,1-6.689.53Z" transform="translate(72.003 28.764)"/>
      <path id="Línea_589" data-name="Línea 589" d="M-6.689-1.2A.811.811,0,0,1-7.5-2.015V-6.689A.811.811,0,0,1-6.689-7.5a.811.811,0,0,1,.811.811v4.673A.811.811,0,0,1-6.689-1.2Z" transform="translate(74.778 30.498)"/>
      <path id="Trazado_901712" data-name="Trazado 901712" d="M85.9,270.128a.811.811,0,0,1-.811-.811v-.845a2.445,2.445,0,0,0-1.135-2.071l-1.755-1.12a.812.812,0,0,1-.375-.684v-3.145a.811.811,0,0,1,1.623,0v2.7l1.38.88a4.061,4.061,0,0,1,1.885,3.439v.845A.811.811,0,0,1,85.9,270.128Z" transform="translate(-22.869 -232.441)"/>
      <g id="Grupo_1200378" data-name="Grupo 1200378" transform="translate(70.052 24.995)">
        <path id="Trazado_901713" data-name="Trazado 901713" d="M187.918,261.419a.811.811,0,0,1-.811-.811V253.09l-1.209-1.4a6.189,6.189,0,0,1-1.5-4.04v-5.721a2.2,2.2,0,0,1,2.774-2.163V234.99a2.2,2.2,0,0,1,2.808-2.153,2.21,2.21,0,0,1,.648-1.211,2.181,2.181,0,0,1,1.623-.605,2.206,2.206,0,0,1,2.055,1.817,2.2,2.2,0,0,1,2.774,1.734,2.2,2.2,0,0,1,2.812,2.152v11.244a10.615,10.615,0,0,1-.6,3.527l-.5,1.431v7.681a.811.811,0,0,1-1.623,0v-7.819a.812.812,0,0,1,.046-.269l.549-1.562a9,9,0,0,0,.51-2.989V236.724a.6.6,0,0,0-.547-.614.576.576,0,0,0-.6.575.811.811,0,0,1-1.623,0V234.99a.6.6,0,0,0-.547-.614.576.576,0,0,0-.6.575.811.811,0,1,1-1.623,0v-1.695a.6.6,0,0,0-.547-.614.576.576,0,0,0-.6.575v1.734a.811.811,0,1,1-1.623,0,.576.576,0,0,0-.6-.575.6.6,0,0,0-.547.614v6.9a.811.811,0,1,1-1.623,0,.576.576,0,0,0-.6-.575.6.6,0,0,0-.547.614v5.721a4.565,4.565,0,0,0,1.107,2.98l1.406,1.631a.812.812,0,0,1,.2.53v7.819A.811.811,0,0,1,187.918,261.419Z" transform="translate(-184.396 -231.018)"/>
      </g>
      <path id="Línea_590" data-name="Línea 590" d="M-6.689.53A.811.811,0,0,1-7.5-.281V-6.689A.811.811,0,0,1-6.689-7.5a.811.811,0,0,1,.811.811V-.281A.811.811,0,0,1-6.689.53Z" transform="translate(83.101 35.616)"/>
      <path id="Línea_591" data-name="Línea 591" d="M-6.689.53A.811.811,0,0,1-7.5-.281V-6.689A.811.811,0,0,1-6.689-7.5a.811.811,0,0,1,.811.811V-.281A.811.811,0,0,1-6.689.53Z" transform="translate(85.875 35.616)"/>
      <path id="Línea_592" data-name="Línea 592" d="M-6.689-1.2A.811.811,0,0,1-7.5-2.015V-6.689A.811.811,0,0,1-6.689-7.5a.811.811,0,0,1,.811.811v4.673A.811.811,0,0,1-6.689-1.2Z" transform="translate(88.65 37.35)"/>
      <path id="Trazado_901714" data-name="Trazado 901714" d="M214.113,333.459a.811.811,0,0,1-.811-.811V331.8a2.445,2.445,0,0,0-1.135-2.07l-1.755-1.12a.812.812,0,0,1-.375-.684v-3.145a.811.811,0,1,1,1.623,0v2.7l1.38.88a4.06,4.06,0,0,1,1.885,3.439v.845A.811.811,0,0,1,214.113,333.459Z" transform="translate(-137.21 -288.92)"/>
      <g id="Grupo_1200379" data-name="Grupo 1200379" transform="translate(83.924 14.864)">
        <path id="Trazado_901715" data-name="Trazado 901715" d="M316.132,177.916a.811.811,0,0,1-.811-.811V159.456l-1.209-1.4a6.187,6.187,0,0,1-1.5-4.04v-5.721a2.2,2.2,0,0,1,2.774-2.163v-4.773a2.2,2.2,0,0,1,2.808-2.153,2.21,2.21,0,0,1,.648-1.211,2.18,2.18,0,0,1,1.623-.6,2.2,2.2,0,0,1,2.055,1.817,2.2,2.2,0,0,1,2.775,1.734,2.2,2.2,0,0,1,2.812,2.152v5.234a.811.811,0,1,1-1.623,0V143.09a.6.6,0,0,0-.546-.614.575.575,0,0,0-.605.575.811.811,0,1,1-1.623,0v-1.7a.6.6,0,0,0-.548-.614.576.576,0,0,0-.6.575.811.811,0,1,1-1.623,0v-1.694a.6.6,0,0,0-.546-.614.576.576,0,0,0-.605.574v1.734a.811.811,0,1,1-1.623,0,.576.576,0,0,0-.605-.575.6.6,0,0,0-.546.614v6.9a.811.811,0,1,1-1.623,0,.576.576,0,0,0-.6-.575.6.6,0,0,0-.547.614v5.721a4.564,4.564,0,0,0,1.107,2.98l1.406,1.63a.811.811,0,0,1,.2.53V177.1A.811.811,0,0,1,316.132,177.916Z" transform="translate(-312.61 -137.385)"/>
        <path id="Trazado_901716" data-name="Trazado 901716" d="M431.421,292.616a.811.811,0,0,1-.811-.811V273.854a.812.812,0,0,1,.046-.269l.549-1.561a9,9,0,0,0,.51-2.99v-2.222a.811.811,0,1,1,1.623,0v2.222a10.62,10.62,0,0,1-.6,3.528l-.5,1.431V291.8A.811.811,0,0,1,431.421,292.616Z" transform="translate(-417.843 -252.085)"/>
      </g>
      <path id="Línea_593" data-name="Línea 593" d="M-6.689.53A.811.811,0,0,1-7.5-.281V-6.689A.811.811,0,0,1-6.689-7.5a.811.811,0,0,1,.811.811V-.281A.811.811,0,0,1-6.689.53Z" transform="translate(96.973 25.485)"/>
      <path id="Línea_594" data-name="Línea 594" d="M-6.689.53A.811.811,0,0,1-7.5-.281V-6.689A.811.811,0,0,1-6.689-7.5a.811.811,0,0,1,.811.811V-.281A.811.811,0,0,1-6.689.53Z" transform="translate(99.747 25.485)"/>
      <path id="Línea_595" data-name="Línea 595" d="M-6.689-1.2A.811.811,0,0,1-7.5-2.015V-6.689A.811.811,0,0,1-6.689-7.5a.811.811,0,0,1,.811.811v4.673A.811.811,0,0,1-6.689-1.2Z" transform="translate(102.521 27.219)"/>
      <path id="Trazado_901717" data-name="Trazado 901717" d="M342.326,239.823a.811.811,0,0,1-.811-.811v-.845a2.445,2.445,0,0,0-1.135-2.071l-1.755-1.12a.811.811,0,0,1-.375-.684v-3.145a.811.811,0,1,1,1.623,0v2.7l1.38.88a4.061,4.061,0,0,1,1.885,3.439v.845A.811.811,0,0,1,342.326,239.823Z" transform="translate(-251.551 -205.415)"/>
      <g id="Grupo_1200380" data-name="Grupo 1200380" transform="translate(71.511 3.151)">
        <path id="Trazado_901718" data-name="Trazado 901718" d="M208,29.12a2.451,2.451,0,0,1,1.733,4.184l-4.847,4.847a2.451,2.451,0,0,1-3.466,0l-2.831-2.831a2.451,2.451,0,0,1,3.466-3.466l1.1,1.1,3.114-3.114A2.435,2.435,0,0,1,208,29.12Zm-4.847,8.126a.823.823,0,0,0,.586-.243l4.847-4.847a.828.828,0,1,0-1.171-1.171l-3.687,3.687a.811.811,0,0,1-1.148,0L200.912,33a.828.828,0,1,0-1.171,1.171L202.572,37A.822.822,0,0,0,203.158,37.245Z" transform="translate(-197.877 -29.12)"/>
      </g>
    </g>
  </g>
</svg>
