<svg xmlns="http://www.w3.org/2000/svg" xmlns:xlink="http://www.w3.org/1999/xlink" width="118" height="118" viewBox="0 0 118 118">
  <defs>
    <filter id="Trazado_874925" x="0" y="0" width="118" height="118" filterUnits="userSpaceOnUse">
      <feOffset dy="3" input="SourceAlpha"/>
      <feGaussianBlur stdDeviation="3" result="blur"/>
      <feFlood flood-opacity="0.161"/>
      <feComposite operator="in" in2="blur"/>
      <feComposite in="SourceGraphic"/>
    </filter>
  </defs>
  <g id="Grupo_1200387" data-name="Grupo 1200387" transform="translate(4431 10171)">
    <g id="Grupo_1112454" data-name="Grupo 1112454" transform="translate(-5230.5 -12682.157)">
      <g id="Grupo_1111316" data-name="Grupo 1111316" transform="translate(808.5 2517.157)">
        <g id="Grupo_1109835" data-name="Grupo 1109835" transform="translate(0 0)">
          <g id="Grupo_1107913" data-name="Grupo 1107913" transform="translate(0 0)">
            <g transform="matrix(1, 0, 0, 1, -9, -6)" filter="url(#Trazado_874925)">
              <g id="Trazado_874925-2" data-name="Trazado 874925" transform="translate(9 6)" fill="#9ad354" opacity="0.859">
                <path d="M 49.99972534179688 98.4998779296875 C 43.45164108276367 98.4998779296875 37.10022354125977 97.21776580810547 31.12189674377441 94.68914794921875 C 25.34676742553711 92.24647521972656 20.15985298156738 88.74925994873047 15.70523929595947 84.29464721679688 C 11.25062561035156 79.84004974365234 7.753411293029785 74.65313720703125 5.310725212097168 68.87800598144531 C 2.782111167907715 62.89969253540039 1.499996781349182 56.54829406738281 1.499996781349182 50.00022125244141 C 1.499996781349182 43.45157623291016 2.782111167907715 37.10017776489258 5.310725212097168 31.12186431884766 C 7.753411293029785 25.34673500061035 11.25062561035156 20.15983581542969 15.70523929595947 15.70522117614746 C 20.15985298156738 11.25062084197998 25.34676742553711 7.753406524658203 31.12189674377441 5.31073522567749 C 37.10022354125977 2.782120943069458 43.45164108276367 1.500006556510925 49.99972534179688 1.500006556510925 C 56.54780960083008 1.500006556510925 62.89922714233398 2.782120943069458 68.87755584716797 5.31073522567749 C 74.65267944335938 7.753406524658203 79.839599609375 11.25062084197998 84.29421234130859 15.70522117614746 C 88.74882507324219 20.15983581542969 92.24604034423828 25.34673500061035 94.68872833251953 31.12186431884766 C 97.21733856201172 37.10017776489258 98.49945068359375 43.45157623291016 98.49945068359375 49.99964904785156 C 98.49945068359375 56.54829406738281 97.21733856201172 62.89969253540039 94.68872833251953 68.87800598144531 C 92.24604034423828 74.65313720703125 88.74882507324219 79.84004974365234 84.29421234130859 84.29464721679688 C 79.839599609375 88.74925994873047 74.65267944335938 92.24647521972656 68.87755584716797 94.68914794921875 C 62.89922714233398 97.21776580810547 56.54780960083008 98.4998779296875 49.99972534179688 98.4998779296875 Z" stroke="none"/>
                <path d="M 49.99972534179688 3 C 43.65348052978516 3 37.49866485595703 4.242240905761719 31.70623016357422 6.692230224609375 C 26.10989379882812 9.059272766113281 21.08323669433594 12.44853210449219 16.76589202880859 16.76587677001953 C 12.44855499267578 21.08321380615234 9.059295654296875 26.10985565185547 6.692230224609375 31.70618438720703 C 4.24224853515625 37.49859619140625 3 43.65341186523438 3 50.00022888183594 C 3 56.34645843505859 4.24224853515625 62.50127410888672 6.692230224609375 68.29368591308594 C 9.059295654296875 73.8900146484375 12.44855499267578 78.91665649414062 16.76589202880859 83.23399353027344 C 21.08323669433594 87.55132293701172 26.10989379882812 90.94059753417969 31.70623016357422 93.30764007568359 C 37.49866485595703 95.75762939453125 43.65348052978516 96.99987030029297 49.99972534179688 96.99987030029297 C 56.34597015380859 96.99987030029297 62.50078582763672 95.75762939453125 68.293212890625 93.30764007568359 C 73.88955688476562 90.94059753417969 78.91621398925781 87.55132293701172 83.23355865478516 83.23399353027344 C 87.55089569091797 78.91665649414062 90.94015502929688 73.8900146484375 93.30722045898438 68.29368591308594 C 95.7572021484375 62.50127410888672 96.99945068359375 56.34645843505859 96.99945068359375 49.99964141845703 C 96.99945068359375 43.65341186523438 95.7572021484375 37.49859619140625 93.30722045898438 31.70618438720703 C 90.94015502929688 26.10985565185547 87.55089569091797 21.08321380615234 83.23355865478516 16.76587677001953 C 78.91621398925781 12.44853210449219 73.88955688476562 9.059272766113281 68.293212890625 6.692230224609375 C 62.50078582763672 4.242240905761719 56.34597015380859 3 49.99972534179688 3 M 49.99972534179688 0 C 77.61381530761719 0 99.99945068359375 22.38559722900391 99.99945068359375 49.99964141845703 L 99.99945068359375 50.00022888183594 C 99.99945068359375 77.6142578125 77.61381530761719 99.99987030029297 49.99972534179688 99.99987030029297 C 22.38563537597656 99.99987030029297 0 77.6142578125 0 50.00022888183594 L 0 49.99964141845703 C 0 22.38559722900391 22.38563537597656 0 49.99972534179688 0 Z" stroke="none" fill="#fff"/>
              </g>
            </g>
            <g id="Trazado_874923" data-name="Trazado 874923" transform="translate(0 0)" fill="none">
              <path d="M50,0a50,50,0,0,1,50,50h0A50,50,0,0,1,0,50H0A50,50,0,0,1,50,0Z" stroke="none"/>
              <path d="M 49.99972534179688 3 C 43.65348052978516 3 37.49866485595703 4.242240905761719 31.70623016357422 6.692230224609375 C 26.10989379882812 9.059272766113281 21.08323669433594 12.44853210449219 16.76589202880859 16.76587677001953 C 12.44855499267578 21.08321380615234 9.059295654296875 26.10985565185547 6.692230224609375 31.70618438720703 C 4.24224853515625 37.49859619140625 3 43.65341186523438 3 50.00022888183594 C 3 56.34645843505859 4.24224853515625 62.50127410888672 6.692230224609375 68.29368591308594 C 9.059295654296875 73.8900146484375 12.44855499267578 78.91665649414062 16.76589202880859 83.23399353027344 C 21.08323669433594 87.55132293701172 26.10989379882812 90.94059753417969 31.70623016357422 93.30764007568359 C 37.49866485595703 95.75762939453125 43.65348052978516 96.99987030029297 49.99972534179688 96.99987030029297 C 56.34597015380859 96.99987030029297 62.50078582763672 95.75762939453125 68.293212890625 93.30764007568359 C 73.88955688476562 90.94059753417969 78.91621398925781 87.55132293701172 83.23355865478516 83.23399353027344 C 87.55089569091797 78.91665649414062 90.94015502929688 73.8900146484375 93.30722045898438 68.29368591308594 C 95.7572021484375 62.50127410888672 96.99945068359375 56.34645843505859 96.99945068359375 49.99964141845703 C 96.99945068359375 43.65341186523438 95.7572021484375 37.49859619140625 93.30722045898438 31.70618438720703 C 90.94015502929688 26.10985565185547 87.55089569091797 21.08321380615234 83.23355865478516 16.76587677001953 C 78.91621398925781 12.44853210449219 73.88955688476562 9.059272766113281 68.293212890625 6.692230224609375 C 62.50078582763672 4.242240905761719 56.34597015380859 3 49.99972534179688 3 M 49.99972534179688 0 C 77.61381530761719 0 99.99945068359375 22.38559722900391 99.99945068359375 49.99964141845703 L 99.99945068359375 50.00022888183594 C 99.99945068359375 77.6142578125 77.61381530761719 99.99987030029297 49.99972534179688 99.99987030029297 C 22.38563537597656 99.99987030029297 0 77.6142578125 0 50.00022888183594 L 0 49.99964141845703 C 0 22.38559722900391 22.38563537597656 0 49.99972534179688 0 Z" stroke="none" fill="#fff"/>
            </g>
          </g>
        </g>
      </g>
    </g>
    <g id="los-ciudadanos" transform="translate(-4439.33 -10147)">
      <g id="Grupo_1200386" data-name="Grupo 1200386" transform="translate(40.04 2.565)">
        <path id="Trazado_901720" data-name="Trazado 901720" d="M255.121,20.283H267.9a.126.126,0,0,1,.088.212l-3.177,3.524a.13.13,0,0,0,0,.173l3.177,3.528a.125.125,0,0,1-.088.209h-12.78A.121.121,0,0,1,255,27.8v-7.4A.123.123,0,0,1,255.121,20.283Z" transform="translate(-228.44 -20.283)" fill="#f54756" fill-rule="evenodd"/>
        <path id="Trazado_901721" data-name="Trazado 901721" d="M69.9,162.1a4.091,4.091,0,1,0-4.093-4.09A4.091,4.091,0,0,0,69.9,162.1Z" transform="translate(-63.17 -137.018)" fill="#fbbd80" fill-rule="evenodd"/>
        <path id="Trazado_901722" data-name="Trazado 901722" d="M45.211,233.636H57.6a.26.26,0,0,0,.266-.254v-5.1a4.677,4.677,0,0,0-4.917-4.355H49.863a4.677,4.677,0,0,0-4.917,4.355v5.1a.263.263,0,0,0,.266.254Z" transform="translate(-44.946 -198.174)" fill="#9b4d11" fill-rule="evenodd"/>
        <path id="Trazado_901723" data-name="Trazado 901723" d="M161.938,137.731a4.851,4.851,0,1,0-4.853-4.849A4.851,4.851,0,0,0,161.938,137.731Z" transform="translate(-142.906 -114.405)" fill="#fbbd80" fill-rule="evenodd"/>
        <path id="Trazado_901724" data-name="Trazado 901724" d="M135.214,221.524H149.9a.31.31,0,0,0,.311-.3v-6c0-2.838-2.623-5.16-5.829-5.16h-3.658c-3.2,0-5.825,2.322-5.825,5.16v6a.308.308,0,0,0,.311.3Z" transform="translate(-123.529 -186.062)" fill="#fedb41" fill-rule="evenodd"/>
        <path id="Trazado_901725" data-name="Trazado 901725" d="M385.622,162.1a4.091,4.091,0,1,0-4.093-4.09A4.091,4.091,0,0,0,385.622,162.1Z" transform="translate(-338.97 -137.018)" fill="#fbbd80" fill-rule="evenodd"/>
        <path id="Trazado_901726" data-name="Trazado 901726" d="M373.282,233.636H360.894a.263.263,0,0,1-.266-.254v-5.1a4.677,4.677,0,0,1,4.917-4.355h3.085a4.677,4.677,0,0,1,4.917,4.355v5.1a.263.263,0,0,1-.266.254Z" transform="translate(-320.712 -198.174)" fill="#f54756" fill-rule="evenodd"/>
        <path id="Trazado_901727" data-name="Trazado 901727" d="M283.888,137.731a4.851,4.851,0,1,0-4.849-4.85A4.851,4.851,0,0,0,283.888,137.731Z" transform="translate(-249.44 -114.405)" fill="#fbbd80" fill-rule="evenodd"/>
        <path id="Trazado_901728" data-name="Trazado 901728" d="M46.632,233.382v-5.1a4.676,4.676,0,0,1,4.913-4.355H49.863a4.677,4.677,0,0,0-4.917,4.355v5.1Z" transform="translate(-44.946 -198.174)" fill="#8c450f" fill-rule="evenodd"/>
        <path id="Trazado_901729" data-name="Trazado 901729" d="M136.582,215.218a4.549,4.549,0,0,1,.05-.664,5.655,5.655,0,0,1,5.779-4.5h-1.686a5.933,5.933,0,0,0-5.267,2.962,4.607,4.607,0,0,0-.559,2.2v6a.233.233,0,0,0,0,.05h1.682a.235.235,0,0,1,0-.05Z" transform="translate(-123.525 -186.062)" fill="#e5c53b" fill-rule="evenodd"/>
        <path id="Trazado_901730" data-name="Trazado 901730" d="M362.318,233.382v-5.1a4.673,4.673,0,0,1,4.913-4.355h-1.682a4.677,4.677,0,0,0-4.917,4.355v5.1Z" transform="translate(-320.716 -198.174)" fill="#dd404d" fill-rule="evenodd"/>
        <path id="Trazado_901731" data-name="Trazado 901731" d="M271,221.524H256.315a.311.311,0,0,1-.315-.3v-6c0-2.838,2.623-5.16,5.829-5.16h3.658c3.206,0,5.829,2.322,5.829,5.16v6a.311.311,0,0,1-.315.3Z" transform="translate(-229.314 -186.062)" fill="#b35fd7" fill-rule="evenodd"/>
        <path id="Trazado_901732" data-name="Trazado 901732" d="M257.682,215.218a4.564,4.564,0,0,1,.049-.664,5.655,5.655,0,0,1,5.778-4.5h-1.681a5.943,5.943,0,0,0-5.27,2.962,4.646,4.646,0,0,0-.559,2.2v6c0,.018,0,.032,0,.05h1.682c0-.018,0-.032,0-.05Z" transform="translate(-229.314 -186.062)" fill="#a156c2" fill-rule="evenodd"/>
        <path id="Trazado_901733" data-name="Trazado 901733" d="M53.646,313.241A26.046,26.046,0,0,1,49.2,298.728h52.3a26.148,26.148,0,0,1-47.851,14.513Z" transform="translate(-48.662 -263.521)" fill="#3d9ae2" fill-rule="evenodd"/>
        <path id="Trazado_901734" data-name="Trazado 901734" d="M95.709,393.393a26.04,26.04,0,0,1-6.818-6.493,8.9,8.9,0,0,0,2.905-4.786h0a25.817,25.817,0,0,0,1.569,2.662,26.093,26.093,0,0,0,3.945,4.613v0c-.59,1.329-1.1,2.764-1.6,4Z" transform="translate(-83.334 -336.363)" fill="#378bcb" fill-rule="evenodd"/>
        <path id="Trazado_901735" data-name="Trazado 901735" d="M150.146,312.552c.99.509,5.832,4.04,6.076,3.973,1.1,1.046,1.431-2.407.99-3.393-1.9-4.242,4.033-4.92,2.531-8.6-1.283-3.139-6.627-2.379-1.8-5.807h21.084c-.063.484-.113.831-.131.9-.477,2.1-6.292,4.517-7.536,8.306-2.693,8.2-5.6,4.9-9.049,11.816-.732,1.47-.587,3.245-.735,4.673l-.247.042c-.124.018-.247.039-.371.057-.085.014-.166.025-.247.035-.124.018-.251.035-.375.05-.085.011-.166.021-.251.028l-.375.042-.244.021-.378.032c-.081.007-.163.011-.244.018l-.382.021-.24.011c-.127.007-.255.01-.385.014-.078,0-.159,0-.237.007-.131,0-.262,0-.389,0-.085,0-.166,0-.251,0-.124,0-.251,0-.378,0-.089,0-.18,0-.269-.007-.117,0-.237-.007-.357-.014-.092,0-.184-.007-.279-.014l-.35-.021-.276-.021c-.12-.011-.237-.018-.354-.032-.092-.007-.18-.014-.272-.025-.12-.014-.237-.025-.357-.039-.089-.011-.177-.021-.266-.035-.124-.014-.247-.032-.368-.05-.085-.01-.166-.021-.247-.035-.131-.018-.258-.039-.389-.06-.074-.014-.152-.028-.226-.039-.138-.025-.276-.049-.41-.078-.067-.01-.134-.025-.2-.039-.145-.028-.29-.06-.435-.092-.06-.011-.117-.025-.173-.039-.148-.032-.293-.067-.438-.1-.053-.011-.11-.025-.166-.039-.145-.039-.293-.074-.438-.117l-.163-.042c-.145-.043-.293-.081-.438-.127-.053-.014-.106-.028-.156-.046q-.223-.063-.445-.138c-.049-.014-.1-.032-.148-.046-.148-.049-.3-.1-.445-.152-.046-.014-.1-.032-.141-.049-.148-.053-.3-.106-.445-.163l-.141-.053c-.148-.057-.3-.113-.445-.173l-.131-.053-.456-.191-.117-.053c-.156-.063-.308-.134-.46-.205-.035-.014-.074-.032-.109-.049-.156-.071-.307-.145-.463-.219a.913.913,0,0,0-.1-.05c-.156-.078-.311-.159-.467-.24l-.089-.042c-.159-.085-.318-.17-.477-.258a.768.768,0,0,0-.074-.039c-.163-.092-.325-.184-.488-.279l-.053-.032c-.17-.1-.336-.2-.5-.3l-.049-.032c-.17-.106-.336-.212-.5-.318l0,0c1.608-3.987,3.368-10.031,7.341-8Z" transform="translate(-130.43 -263.521)" fill="#91dc5a" fill-rule="evenodd"/>
        <path id="Trazado_901736" data-name="Trazado 901736" d="M59.079,302.772c1.127-1.863,1.219-3.047.8-4.044H49.2a26.046,26.046,0,0,0,4.446,14.513c.187.279.378.548.573.816C57.955,311.071,57.184,305.9,59.079,302.772Z" transform="translate(-48.662 -263.521)" fill="#91dc5a" fill-rule="evenodd"/>
        <path id="Trazado_901737" data-name="Trazado 901737" d="M144.419,439.672c-.59,1.329-1.1,2.764-1.6,4l0,0a26.306,26.306,0,0,0,18.772,3.874c.032-.3.049-.611.067-.933A26.173,26.173,0,0,1,144.419,439.672Z" transform="translate(-130.439 -386.643)" fill="#83c651" fill-rule="evenodd"/>
        <path id="Trazado_901738" data-name="Trazado 901738" d="M54.219,314.057a8.9,8.9,0,0,0,2.905-4.786A25.962,25.962,0,0,1,54.3,298.982c0-.085-.011-.17-.014-.254H49.2v0a26.035,26.035,0,0,0,4.446,14.509C53.833,313.52,54.024,313.789,54.219,314.057Z" transform="translate(-48.662 -263.521)" fill="#83c651" fill-rule="evenodd"/>
      </g>
      <path id="Trazado_901739" data-name="Trazado 901739" d="M162.5,128.079a5.068,5.068,0,0,0-.7-.049,4.851,4.851,0,1,0-.042,9.7h.085a4.492,4.492,0,0,0,.658-.049,4.853,4.853,0,0,1,0-9.6Z" transform="translate(-102.73 -111.841)" fill="#e2aa73"/>
      <path id="Trazado_901740" data-name="Trazado 901740" d="M382.822,158a4.091,4.091,0,0,1,3.39-4.034,4.149,4.149,0,0,0-.7-.06,4.091,4.091,0,1,0-.035,8.183h.067a3.763,3.763,0,0,0,.668-.06A4.091,4.091,0,0,1,382.822,158Z" transform="translate(-298.82 -134.449)" fill="#e2aa73"/>
      <path id="Trazado_901741" data-name="Trazado 901741" d="M70.49,153.975a4.151,4.151,0,0,0-.7-.06,4.091,4.091,0,1,0-.035,8.183h.067a3.763,3.763,0,0,0,.668-.06,4.092,4.092,0,0,1,0-8.062Z" transform="translate(-23.019 -134.453)" fill="#e2aa73"/>
      <path id="Trazado_901742" data-name="Trazado 901742" d="M284.446,128.079a5.119,5.119,0,0,0-.7-.049,4.851,4.851,0,1,0-.039,9.7h.081a4.5,4.5,0,0,0,.661-.049,4.853,4.853,0,0,1,0-9.6Z" transform="translate(-209.253 -111.841)" fill="#e2aa73"/>
      <path id="Trazado_901743" data-name="Trazado 901743" d="M94.123,32.229a5.372,5.372,0,0,0-3.891-4.99,5.035,5.035,0,1,0-7.083,0,6.139,6.139,0,0,0-1.222.549,6.818,6.818,0,0,0-3.558-2.36,5.8,5.8,0,1,0-7.761,0,6.936,6.936,0,0,0-3,1.723V11.067h12.2a.885.885,0,0,0,.645-1.492L77.377,6.3l3.08-3.267a.885.885,0,0,0-.644-1.492h-12.2V.885a.885.885,0,1,0-1.77,0v26.27a6.936,6.936,0,0,0-3-1.726,5.8,5.8,0,1,0-7.761,0,6.818,6.818,0,0,0-3.558,2.36A6.129,6.129,0,0,0,50.3,27.24a5.035,5.035,0,1,0-7.083,0,5.372,5.372,0,0,0-3.891,4.99v4.914a.891.891,0,0,0,.01.129.871.871,0,0,0-.01.13A27.393,27.393,0,0,0,61.451,64.217,27.356,27.356,0,0,0,94.123,37.4a.879.879,0,0,0-.01-.132.89.89,0,0,0,.01-.129ZM86.69,20.4a3.263,3.263,0,1,1-3.265,3.261A3.263,3.263,0,0,1,86.69,20.4Zm-1.566,8.3h3.132a3.85,3.85,0,0,1,4.1,3.53v4.286H83.139V31.269a5.538,5.538,0,0,0-.349-1.932,4.516,4.516,0,0,1,2.335-.638ZM74.491,17.084a4.034,4.034,0,1,1-4.035,4.032,4.034,4.034,0,0,1,4.035-4.032Zm-1.856,9.837h3.709a5.141,5.141,0,0,1,4.531,2.47.885.885,0,0,0,.054.1,3.834,3.834,0,0,1,.439,1.774v5.246H67.613V31.147c.075-2.341,2.3-4.225,5.021-4.225ZM77.762,3.314,75.517,5.7a.885.885,0,0,0,0,1.214L77.763,9.3H67.613V3.315Zm-18.8,13.77a4.034,4.034,0,1,1-4.032,4.032,4.034,4.034,0,0,1,4.032-4.032Zm-1.853,9.837h3.709c2.746,0,4.984,1.916,5.023,4.285,0,.021,0,.041,0,.062s0,.048,0,.071v5.176H52.084V31.269a3.834,3.834,0,0,1,.439-1.774.883.883,0,0,0,.053-.1,5.14,5.14,0,0,1,4.533-2.472ZM46.763,20.4A3.263,3.263,0,1,1,43.5,23.664,3.263,3.263,0,0,1,46.763,20.4ZM45.2,28.7h3.132a4.515,4.515,0,0,1,2.335.638,5.54,5.54,0,0,0-.35,1.932v5.246H41.1V32.229a3.85,3.85,0,0,1,4.1-3.53Zm-4.08,9.587h9.256a4.393,4.393,0,0,1-.9,2.759,15.036,15.036,0,0,0-1.541,4.605c-.474,2.133-.962,4.328-2.489,5.962a25.488,25.488,0,0,1-4.329-13.326ZM46.5,53.068c2.046-2.01,2.637-4.666,3.163-7.034a13.812,13.812,0,0,1,1.327-4.071,6.345,6.345,0,0,0,1.159-3.677H65.207a2.026,2.026,0,0,0-.535,1.4c.045.993.928,1.5,1.781,2a4.468,4.468,0,0,1,2.118,1.945c.493,1.208-.048,1.879-1.13,3.059-1.127,1.228-2.67,2.91-1.428,5.686a4.755,4.755,0,0,1-.024,2.193c-.443-.249-1.773-1.165-2.767-1.849-1.644-1.132-2.677-1.837-3.159-2.083a3.8,3.8,0,0,0-3.185-.28c-2.416.923-3.765,4.415-4.954,7.5l-.123.317a25.451,25.451,0,0,1-5.3-5.1Zm6.814,6.1c.086-.222.174-.448.264-.68,1-2.6,2.254-5.838,3.934-6.48a2.087,2.087,0,0,1,1.747.2c.414.211,1.767,1.143,2.961,1.965.734.506,1.494,1.028,2.072,1.41a8.1,8.1,0,0,0,1.1.659,1.269,1.269,0,0,0,1.543.054c1.114-.79,1.152-3.64.7-4.65-.73-1.632-.086-2.453,1.117-3.764,1.072-1.168,2.405-2.622,1.464-4.925a6.018,6.018,0,0,0-2.868-2.806,5.663,5.663,0,0,1-.878-.576,4.846,4.846,0,0,1,1.392-1.29H87.893a10.677,10.677,0,0,1-2.552,2.429c-1.881,1.492-4.222,3.347-5.012,5.753-1.387,4.227-2.76,5.188-4.351,6.3A12.808,12.808,0,0,0,71.2,58.33a9.565,9.565,0,0,0-.757,3.892c-.008.16-.016.315-.024.468a25.8,25.8,0,0,1-17.109-3.524Zm27.7-.56a25.489,25.489,0,0,1-8.806,3.761c0-.02,0-.039,0-.059a8.108,8.108,0,0,1,.574-3.189,11.029,11.029,0,0,1,4.2-4.9c1.7-1.185,3.448-2.411,5.019-7.2.624-1.9,2.646-3.5,4.43-4.918,1.651-1.309,2.955-2.343,3.237-3.584.01-.045.021-.106.04-.232h2.616A25.621,25.621,0,0,1,81.018,58.606Z"/>
    </g>
  </g>
</svg>
