<svg xmlns="http://www.w3.org/2000/svg" xmlns:xlink="http://www.w3.org/1999/xlink" width="118" height="118" viewBox="0 0 118 118">
  <defs>
    <filter id="Trazado_874925" x="0" y="0" width="118" height="118" filterUnits="userSpaceOnUse">
      <feOffset dy="3" input="SourceAlpha"/>
      <feGaussianBlur stdDeviation="3" result="blur"/>
      <feFlood flood-opacity="0.161"/>
      <feComposite operator="in" in2="blur"/>
      <feComposite in="SourceGraphic"/>
    </filter>
    <clipPath id="clip-path">
      <path id="path21" d="M0-682.665H59.879v59.879H0Z" transform="translate(0 682.665)"/>
    </clipPath>
  </defs>
  <g id="Grupo_1200385" data-name="Grupo 1200385" transform="translate(4768.269 10171.001)">
    <g id="Grupo_1112453" data-name="Grupo 1112453" transform="translate(-5567.77 -12682.158)">
      <g id="Grupo_1111316" data-name="Grupo 1111316" transform="translate(808.5 2517.157)">
        <g id="Grupo_1109835" data-name="Grupo 1109835" transform="translate(0 0)">
          <g id="Grupo_1107913" data-name="Grupo 1107913" transform="translate(0 0)">
            <g transform="matrix(1, 0, 0, 1, -9, -6)" filter="url(#Trazado_874925)">
              <g id="Trazado_874925-2" data-name="Trazado 874925" transform="translate(9 6)" fill="#9ad354" opacity="0.859">
                <path d="M 49.99972534179688 98.4998779296875 C 43.45164108276367 98.4998779296875 37.10022354125977 97.21776580810547 31.12189674377441 94.68914794921875 C 25.34676742553711 92.24647521972656 20.15985298156738 88.74925994873047 15.70523929595947 84.29464721679688 C 11.25062561035156 79.84004974365234 7.753411293029785 74.65313720703125 5.310725212097168 68.87800598144531 C 2.782111167907715 62.89969253540039 1.499996781349182 56.54829406738281 1.499996781349182 50.00022125244141 C 1.499996781349182 43.45157623291016 2.782111167907715 37.10017776489258 5.310725212097168 31.12186431884766 C 7.753411293029785 25.34673500061035 11.25062561035156 20.15983581542969 15.70523929595947 15.70522117614746 C 20.15985298156738 11.25062084197998 25.34676742553711 7.753406524658203 31.12189674377441 5.31073522567749 C 37.10022354125977 2.782120943069458 43.45164108276367 1.500006556510925 49.99972534179688 1.500006556510925 C 56.54780960083008 1.500006556510925 62.89922714233398 2.782120943069458 68.87755584716797 5.31073522567749 C 74.65267944335938 7.753406524658203 79.839599609375 11.25062084197998 84.29421234130859 15.70522117614746 C 88.74882507324219 20.15983581542969 92.24604034423828 25.34673500061035 94.68872833251953 31.12186431884766 C 97.21733856201172 37.10017776489258 98.49945068359375 43.45157623291016 98.49945068359375 49.99964904785156 C 98.49945068359375 56.54829406738281 97.21733856201172 62.89969253540039 94.68872833251953 68.87800598144531 C 92.24604034423828 74.65313720703125 88.74882507324219 79.84004974365234 84.29421234130859 84.29464721679688 C 79.839599609375 88.74925994873047 74.65267944335938 92.24647521972656 68.87755584716797 94.68914794921875 C 62.89922714233398 97.21776580810547 56.54780960083008 98.4998779296875 49.99972534179688 98.4998779296875 Z" stroke="none"/>
                <path d="M 49.99972534179688 3 C 43.65348052978516 3 37.49866485595703 4.242240905761719 31.70623016357422 6.692230224609375 C 26.10989379882812 9.059272766113281 21.08323669433594 12.44853210449219 16.76589202880859 16.76587677001953 C 12.44855499267578 21.08321380615234 9.059295654296875 26.10985565185547 6.692230224609375 31.70618438720703 C 4.24224853515625 37.49859619140625 3 43.65341186523438 3 50.00022888183594 C 3 56.34645843505859 4.24224853515625 62.50127410888672 6.692230224609375 68.29368591308594 C 9.059295654296875 73.8900146484375 12.44855499267578 78.91665649414062 16.76589202880859 83.23399353027344 C 21.08323669433594 87.55132293701172 26.10989379882812 90.94059753417969 31.70623016357422 93.30764007568359 C 37.49866485595703 95.75762939453125 43.65348052978516 96.99987030029297 49.99972534179688 96.99987030029297 C 56.34597015380859 96.99987030029297 62.50078582763672 95.75762939453125 68.293212890625 93.30764007568359 C 73.88955688476562 90.94059753417969 78.91621398925781 87.55132293701172 83.23355865478516 83.23399353027344 C 87.55089569091797 78.91665649414062 90.94015502929688 73.8900146484375 93.30722045898438 68.29368591308594 C 95.7572021484375 62.50127410888672 96.99945068359375 56.34645843505859 96.99945068359375 49.99964141845703 C 96.99945068359375 43.65341186523438 95.7572021484375 37.49859619140625 93.30722045898438 31.70618438720703 C 90.94015502929688 26.10985565185547 87.55089569091797 21.08321380615234 83.23355865478516 16.76587677001953 C 78.91621398925781 12.44853210449219 73.88955688476562 9.059272766113281 68.293212890625 6.692230224609375 C 62.50078582763672 4.242240905761719 56.34597015380859 3 49.99972534179688 3 M 49.99972534179688 0 C 77.61381530761719 0 99.99945068359375 22.38559722900391 99.99945068359375 49.99964141845703 L 99.99945068359375 50.00022888183594 C 99.99945068359375 77.6142578125 77.61381530761719 99.99987030029297 49.99972534179688 99.99987030029297 C 22.38563537597656 99.99987030029297 0 77.6142578125 0 50.00022888183594 L 0 49.99964141845703 C 0 22.38559722900391 22.38563537597656 0 49.99972534179688 0 Z" stroke="none" fill="#fff"/>
              </g>
            </g>
            <g id="Trazado_874923" data-name="Trazado 874923" transform="translate(0 0)" fill="none">
              <path d="M50,0a50,50,0,0,1,50,50h0A50,50,0,0,1,0,50H0A50,50,0,0,1,50,0Z" stroke="none"/>
              <path d="M 49.99972534179688 3 C 43.65348052978516 3 37.49866485595703 4.242240905761719 31.70623016357422 6.692230224609375 C 26.10989379882812 9.059272766113281 21.08323669433594 12.44853210449219 16.76589202880859 16.76587677001953 C 12.44855499267578 21.08321380615234 9.059295654296875 26.10985565185547 6.692230224609375 31.70618438720703 C 4.24224853515625 37.49859619140625 3 43.65341186523438 3 50.00022888183594 C 3 56.34645843505859 4.24224853515625 62.50127410888672 6.692230224609375 68.29368591308594 C 9.059295654296875 73.8900146484375 12.44855499267578 78.91665649414062 16.76589202880859 83.23399353027344 C 21.08323669433594 87.55132293701172 26.10989379882812 90.94059753417969 31.70623016357422 93.30764007568359 C 37.49866485595703 95.75762939453125 43.65348052978516 96.99987030029297 49.99972534179688 96.99987030029297 C 56.34597015380859 96.99987030029297 62.50078582763672 95.75762939453125 68.293212890625 93.30764007568359 C 73.88955688476562 90.94059753417969 78.91621398925781 87.55132293701172 83.23355865478516 83.23399353027344 C 87.55089569091797 78.91665649414062 90.94015502929688 73.8900146484375 93.30722045898438 68.29368591308594 C 95.7572021484375 62.50127410888672 96.99945068359375 56.34645843505859 96.99945068359375 49.99964141845703 C 96.99945068359375 43.65341186523438 95.7572021484375 37.49859619140625 93.30722045898438 31.70618438720703 C 90.94015502929688 26.10985565185547 87.55089569091797 21.08321380615234 83.23355865478516 16.76587677001953 C 78.91621398925781 12.44853210449219 73.88955688476562 9.059272766113281 68.293212890625 6.692230224609375 C 62.50078582763672 4.242240905761719 56.34597015380859 3 49.99972534179688 3 M 49.99972534179688 0 C 77.61381530761719 0 99.99945068359375 22.38559722900391 99.99945068359375 49.99964141845703 L 99.99945068359375 50.00022888183594 C 99.99945068359375 77.6142578125 77.61381530761719 99.99987030029297 49.99972534179688 99.99987030029297 C 22.38563537597656 99.99987030029297 0 77.6142578125 0 50.00022888183594 L 0 49.99964141845703 C 0 22.38559722900391 22.38563537597656 0 49.99972534179688 0 Z" stroke="none" fill="#fff"/>
            </g>
          </g>
        </g>
      </g>
    </g>
    <g id="g15" transform="translate(-4738.939 -9464.761)">
      <g id="g17" transform="translate(0 -682.665)">
        <g id="g19" transform="translate(0 0)" clip-path="url(#clip-path)">
          <g id="g25" transform="translate(24.098 1.169)">
            <path id="path27" d="M-65.851-121.307a5.842,5.842,0,0,0,5.352-5.821,5.842,5.842,0,0,0-5.842-5.842,5.842,5.842,0,0,0-5.842,5.842,5.842,5.842,0,0,0,5.352,5.821q.243-.013.49-.013t.49.013M-66.341-121.32Z" transform="translate(72.182 132.97)" fill="#ff5d7d" fill-rule="evenodd"/>
          </g>
          <g id="g29" transform="translate(21.073 12.833)">
            <path id="path31" d="M-174.952-46.119a9.381,9.381,0,0,0-7.465-4.434q-.242.02-.49.02t-.49-.02a9.381,9.381,0,0,0-7.465,4.434,5.844,5.844,0,0,1,4.44,5.672,5.842,5.842,0,0,1-5.352,5.821,9.38,9.38,0,0,1,7.465,4.434,5.86,5.86,0,0,1,1.4-.169,5.832,5.832,0,0,1,1.4.17,9.381,9.381,0,0,1,7.465-4.434,5.842,5.842,0,0,1-5.352-5.821,5.843,5.843,0,0,1,4.44-5.672" transform="translate(191.773 50.553)" fill="#ff5d7d" fill-rule="evenodd"/>
          </g>
          <g id="g33" transform="translate(14.742 17.097)">
            <path id="path35" d="M-121.517-60.758a5.844,5.844,0,0,0-4.44-5.672,5.853,5.853,0,0,0-1.4-.169,5.842,5.842,0,0,0-5.842,5.842,5.842,5.842,0,0,0,5.352,5.821q.243-.013.49-.013t.49.013a5.842,5.842,0,0,0,5.352-5.821M-127.359-54.949Z" transform="translate(133.201 66.6)" fill="#ff764e" fill-rule="evenodd"/>
          </g>
          <g id="g37" transform="translate(11.717 28.76)">
            <path id="path39" d="M-174.953-46.119a9.38,9.38,0,0,0-7.465-4.434q-.242.02-.49.02t-.49-.02a9.38,9.38,0,0,0-7.465,4.434,5.844,5.844,0,0,1,4.44,5.672,5.842,5.842,0,0,1-5.352,5.821,9.386,9.386,0,0,1,8.867,9.343,9.386,9.386,0,0,1,8.867-9.343,5.842,5.842,0,0,1-5.352-5.821,5.843,5.843,0,0,1,4.44-5.672" transform="translate(191.774 50.553)" fill="#ff764e" fill-rule="evenodd"/>
          </g>
          <g id="g41" transform="translate(30.429 28.76)">
            <path id="path43" d="M-9.489-46.114a5.844,5.844,0,0,1,4.44,5.672A5.842,5.842,0,0,1-10.4-34.62a9.386,9.386,0,0,1,8.867,9.343A9.386,9.386,0,0,1,7.332-34.62,5.842,5.842,0,0,1,1.98-40.442a5.843,5.843,0,0,1,4.44-5.672,9.38,9.38,0,0,0-7.465-4.434q-.242.02-.49.02t-.49-.02a9.38,9.38,0,0,0-7.465,4.434" transform="translate(10.401 50.548)" fill="#ffc144" fill-rule="evenodd"/>
          </g>
          <g id="g45" transform="translate(5.386 33.025)">
            <path id="path47" d="M-121.516-60.758a5.844,5.844,0,0,0-4.44-5.672,5.854,5.854,0,0,0-1.4-.169,5.842,5.842,0,0,0-5.842,5.842,5.842,5.842,0,0,0,5.352,5.821q.243-.013.489-.013t.489.013a5.842,5.842,0,0,0,5.352-5.821" transform="translate(133.2 66.6)" fill="#88df8e" fill-rule="evenodd"/>
          </g>
          <g id="g49" transform="translate(24.098 33.025)">
            <path id="path51" d="M0-60.758a5.842,5.842,0,0,0,5.352,5.821q.243-.013.489-.013t.489.013a5.842,5.842,0,0,0,5.352-5.821,5.844,5.844,0,0,0-4.44-5.672,5.854,5.854,0,0,0-1.4-.169,5.854,5.854,0,0,0-1.4.169A5.844,5.844,0,0,0,0-60.874c0,.038,0,.077,0,.116M5.842-54.949Z" transform="translate(0 66.6)" fill="#00ccf2" fill-rule="evenodd"/>
          </g>
          <g id="g53" transform="translate(42.81 33.025)">
            <path id="path55" d="M0-60.758a5.842,5.842,0,0,0,5.352,5.821q.243-.013.489-.013t.489.013a5.842,5.842,0,0,0,5.352-5.821A5.842,5.842,0,0,0,5.842-66.6a5.854,5.854,0,0,0-1.4.169A5.844,5.844,0,0,0,0-60.874c0,.038,0,.077,0,.116" transform="translate(0 66.6)" fill="#b278d3" fill-rule="evenodd"/>
          </g>
          <g id="g57" transform="translate(39.296 44.688)">
            <path id="path59" d="M-92.22,0a9.386,9.386,0,0,0-8.867,9.343v4.678h18.712V9.343A9.386,9.386,0,0,0-91.241,0q-.242.02-.489.02T-92.22,0" transform="translate(101.086)" fill="#b278d3" fill-rule="evenodd"/>
          </g>
          <g id="g61" transform="translate(20.583 44.688)">
            <path id="path63" d="M-194.621-97.178a9.386,9.386,0,0,0-8.867-9.343q-.242.02-.489.02t-.489-.02a9.386,9.386,0,0,0-8.867,9.343V-92.5h18.712Z" transform="translate(213.333 106.521)" fill="#00ccf2" fill-rule="evenodd"/>
          </g>
          <g id="g65" transform="translate(1.871 44.688)">
            <path id="path67" d="M-194.621-97.178a9.386,9.386,0,0,0-8.867-9.343q-.242.02-.489.02t-.489-.02a9.386,9.386,0,0,0-8.867,9.343V-92.5h18.712Z" transform="translate(213.333 106.521)" fill="#88df8e" fill-rule="evenodd"/>
          </g>
          <g id="g69" transform="translate(33.454 17.097)">
            <path id="path71" d="M-121.517-60.758a5.844,5.844,0,0,0-4.44-5.672,5.853,5.853,0,0,0-1.4-.169,5.842,5.842,0,0,0-5.842,5.842,5.842,5.842,0,0,0,5.352,5.821q.243-.013.49-.013t.49.013a5.842,5.842,0,0,0,5.352-5.821M-127.359-54.949Z" transform="translate(133.201 66.6)" fill="#ffc144" fill-rule="evenodd"/>
          </g>
          <g id="g73" transform="translate(4.216 31.855)">
            <path id="path75" d="M-72.923-132.512a7.019,7.019,0,0,1-7.011-7.011,7.019,7.019,0,0,1,7.011-7.011,7.019,7.019,0,0,1,7.011,7.011A7.019,7.019,0,0,1-72.923-132.512Zm0-11.684a4.678,4.678,0,0,0-4.672,4.672,4.678,4.678,0,0,0,4.672,4.672,4.678,4.678,0,0,0,4.672-4.672A4.677,4.677,0,0,0-72.923-144.2Z" transform="translate(79.934 146.534)"/>
          </g>
          <g id="g77" transform="translate(5.38 52.862)">
            <path id="path79" d="M-12.164-6.316a1.17,1.17,0,0,1-1.17-1.17v-4.678a1.17,1.17,0,0,1,1.17-1.17,1.17,1.17,0,0,1,1.17,1.17v4.678A1.17,1.17,0,0,1-12.164-6.316Z" transform="translate(13.333 13.333)"/>
          </g>
          <g id="g81" transform="translate(14.736 52.862)">
            <path id="path83" d="M-12.164-6.316a1.17,1.17,0,0,1-1.17-1.17v-4.678a1.17,1.17,0,0,1,1.17-1.17,1.17,1.17,0,0,1,1.17,1.17v4.678A1.17,1.17,0,0,1-12.164-6.316Z" transform="translate(13.333 13.333)"/>
          </g>
          <g id="g85" transform="translate(22.928 31.855)">
            <path id="path87" d="M-72.923-132.512a7.019,7.019,0,0,1-7.011-7.011,7.019,7.019,0,0,1,7.011-7.011,7.019,7.019,0,0,1,7.011,7.011A7.019,7.019,0,0,1-72.923-132.512Zm0-11.684a4.678,4.678,0,0,0-4.672,4.672,4.678,4.678,0,0,0,4.672,4.672,4.678,4.678,0,0,0,4.672-4.672A4.677,4.677,0,0,0-72.923-144.2Z" transform="translate(79.934 146.534)"/>
          </g>
          <g id="g89" transform="translate(19.414 43.506)">
            <path id="path91" d="M6.548-108.3a1.17,1.17,0,0,1-1.17-1.17,8.2,8.2,0,0,0-8.187-8.187,8.2,8.2,0,0,0-8.187,8.187,1.17,1.17,0,0,1-1.17,1.17,1.17,1.17,0,0,1-1.17-1.17A10.538,10.538,0,0,1-2.808-120,10.538,10.538,0,0,1,7.718-109.474,1.17,1.17,0,0,1,6.548-108.3Z" transform="translate(13.333 120)"/>
          </g>
          <g id="g93" transform="translate(24.092 52.862)">
            <path id="path95" d="M-12.164-6.316a1.17,1.17,0,0,1-1.17-1.17v-4.678a1.17,1.17,0,0,1,1.17-1.17,1.17,1.17,0,0,1,1.17,1.17v4.678A1.17,1.17,0,0,1-12.164-6.316Z" transform="translate(13.333 13.333)"/>
          </g>
          <g id="g97" transform="translate(33.448 52.862)">
            <path id="path99" d="M-12.164-6.316a1.17,1.17,0,0,1-1.17-1.17v-4.678a1.17,1.17,0,0,1,1.17-1.17,1.17,1.17,0,0,1,1.17,1.17v4.678A1.17,1.17,0,0,1-12.164-6.316Z" transform="translate(13.333 13.333)"/>
          </g>
          <g id="g101" transform="translate(41.64 31.855)">
            <path id="path103" d="M-72.922-132.512a7.019,7.019,0,0,1-7.011-7.011,7.019,7.019,0,0,1,7.011-7.011,7.019,7.019,0,0,1,7.011,7.011A7.019,7.019,0,0,1-72.922-132.512Zm0-11.684a4.677,4.677,0,0,0-4.672,4.672,4.678,4.678,0,0,0,4.672,4.672,4.678,4.678,0,0,0,4.672-4.672A4.678,4.678,0,0,0-72.922-144.2Z" transform="translate(79.933 146.534)"/>
          </g>
          <g id="g105" transform="translate(0.702 43.506)">
            <path id="path107" d="M-382.693-156.96h-56.136a1.169,1.169,0,0,1-1.169-1.17v-4.678a10.538,10.538,0,0,1,10.526-10.526,10.538,10.538,0,0,1,10.526,10.526v3.509h16.373v-3.509a10.538,10.538,0,0,1,10.526-10.526,10.538,10.538,0,0,1,10.526,10.526v4.678A1.169,1.169,0,0,1-382.693-156.96Zm-17.543-2.339h16.373v-3.509a8.2,8.2,0,0,0-8.187-8.187,8.2,8.2,0,0,0-8.187,8.187Zm-37.424,0h16.373v-3.509a8.2,8.2,0,0,0-8.187-8.187,8.2,8.2,0,0,0-8.187,8.187Z" transform="translate(439.999 173.333)"/>
          </g>
          <g id="g109" transform="translate(42.804 52.862)">
            <path id="path111" d="M-12.164-6.316a1.17,1.17,0,0,1-1.17-1.17v-4.678a1.17,1.17,0,0,1,1.17-1.17,1.17,1.17,0,0,1,1.17,1.17v4.678A1.17,1.17,0,0,1-12.164-6.316Z" transform="translate(13.333 13.333)"/>
          </g>
          <g id="g113" transform="translate(52.16 52.862)">
            <path id="path115" d="M-12.164-6.316a1.17,1.17,0,0,1-1.17-1.17v-4.678a1.17,1.17,0,0,1,1.17-1.17,1.17,1.17,0,0,1,1.17,1.17v4.678A1.17,1.17,0,0,1-12.164-6.316Z" transform="translate(13.333 13.333)"/>
          </g>
          <g id="g117" transform="translate(22.928 0)">
            <path id="path119" d="M-72.922-13.333a7.019,7.019,0,0,1,7.011,7.011A7.019,7.019,0,0,1-72.922.689a7.019,7.019,0,0,1-7.011-7.011A7.019,7.019,0,0,1-72.922-13.333Zm0,11.683A4.677,4.677,0,0,0-68.25-6.322a4.677,4.677,0,0,0-4.672-4.672,4.677,4.677,0,0,0-4.672,4.672A4.677,4.677,0,0,0-72.922-1.65Z" transform="translate(79.933 13.333)"/>
          </g>
          <g id="g121" transform="translate(20.815 11.65)">
            <path id="path123" d="M3.745-57.244A1.169,1.169,0,0,1,2.75-57.8a8.155,8.155,0,0,0-6.961-3.894A8.155,8.155,0,0,0-11.172-57.8a1.169,1.169,0,0,1-1.61.377,1.17,1.17,0,0,1-.377-1.61,10.48,10.48,0,0,1,8.948-5,10.48,10.48,0,0,1,8.948,5,1.17,1.17,0,0,1-.377,1.61A1.164,1.164,0,0,1,3.745-57.244Z" transform="translate(13.335 64.031)"/>
          </g>
          <g id="g125" transform="translate(14.586 15.944)">
            <path id="path127" d="M-67.332.673a7.012,7.012,0,0,1-5.793-3.062,1.169,1.169,0,0,1,.306-1.625,1.169,1.169,0,0,1,1.625.306,4.675,4.675,0,0,0,3.862,2.042A4.678,4.678,0,0,0-62.66-6.339,4.687,4.687,0,0,0-66.983-11a1.169,1.169,0,0,1-1.081-1.252,1.169,1.169,0,0,1,1.252-1.081,7.036,7.036,0,0,1,6.491,6.992A7.019,7.019,0,0,1-67.332.673Z" transform="translate(73.329 13.334)"/>
          </g>
          <g id="g129" transform="translate(11.459 27.578)">
            <path id="path131" d="M3.745-57.246A1.169,1.169,0,0,1,2.75-57.8a8.155,8.155,0,0,0-6.961-3.894A8.155,8.155,0,0,0-11.172-57.8a1.17,1.17,0,0,1-1.61.377,1.17,1.17,0,0,1-.377-1.61,10.48,10.48,0,0,1,8.948-5,10.48,10.48,0,0,1,8.948,5,1.17,1.17,0,0,1-.377,1.61A1.164,1.164,0,0,1,3.745-57.246Z" transform="translate(13.335 64.032)"/>
          </g>
          <g id="g133" transform="translate(32.284 15.928)">
            <path id="path135" d="M-72.923-13.333a7.019,7.019,0,0,1,7.011,7.011A7.019,7.019,0,0,1-72.923.689a7.019,7.019,0,0,1-7.011-7.011A7.019,7.019,0,0,1-72.923-13.333Zm0,11.684a4.678,4.678,0,0,0,4.672-4.672,4.677,4.677,0,0,0-4.672-4.672A4.678,4.678,0,0,0-77.6-6.322,4.678,4.678,0,0,0-72.923-1.65Z" transform="translate(79.934 13.333)"/>
          </g>
          <g id="g137" transform="translate(30.171 27.578)">
            <path id="path139" d="M-12.167-57.246a1.164,1.164,0,0,1-.616-.176,1.17,1.17,0,0,1-.377-1.61,10.48,10.48,0,0,1,8.948-5,10.48,10.48,0,0,1,8.948,5,1.17,1.17,0,0,1-.377,1.61A1.17,1.17,0,0,1,2.75-57.8a8.155,8.155,0,0,0-6.961-3.894A8.155,8.155,0,0,0-11.172-57.8,1.169,1.169,0,0,1-12.167-57.246Z" transform="translate(13.335 64.032)"/>
          </g>
          <g id="g141" transform="translate(15.524 20.018)">
            <path id="path143" transform="translate(0 0)"/>
          </g>
        </g>
      </g>
    </g>
  </g>
</svg>
