<svg xmlns="http://www.w3.org/2000/svg" xmlns:xlink="http://www.w3.org/1999/xlink" width="118" height="118" viewBox="0 0 118 118">
  <defs>
    <filter id="Trazado_874925" x="0" y="0" width="118" height="118" filterUnits="userSpaceOnUse">
      <feOffset dy="3" input="SourceAlpha"/>
      <feGaussianBlur stdDeviation="3" result="blur"/>
      <feFlood flood-opacity="0.161"/>
      <feComposite operator="in" in2="blur"/>
      <feComposite in="SourceGraphic"/>
    </filter>
  </defs>
  <g id="Grupo_1200422" data-name="Grupo 1200422" transform="translate(-6450.412 10126.001)">
    <g id="Grupo_1112488" data-name="Grupo 1112488" transform="translate(5650.911 -12637.158)">
      <g id="Grupo_1111316" data-name="Grupo 1111316" transform="translate(808.5 2517.157)">
        <g id="Grupo_1109835" data-name="Grupo 1109835" transform="translate(0 0)">
          <g id="Grupo_1107913" data-name="Grupo 1107913" transform="translate(0 0)">
            <g transform="matrix(1, 0, 0, 1, -9, -6)" filter="url(#Trazado_874925)">
              <g id="Trazado_874925-2" data-name="Trazado 874925" transform="translate(9 6)" fill="#9ad354" opacity="0.859">
                <path d="M 49.99972534179688 98.4998779296875 C 43.45164108276367 98.4998779296875 37.10022354125977 97.21776580810547 31.12189674377441 94.68914794921875 C 25.34676742553711 92.24647521972656 20.15985298156738 88.74925994873047 15.70523929595947 84.29464721679688 C 11.25062561035156 79.84004974365234 7.753411293029785 74.65313720703125 5.310725212097168 68.87800598144531 C 2.782111167907715 62.89969253540039 1.499996781349182 56.54829406738281 1.499996781349182 50.00022125244141 C 1.499996781349182 43.45157623291016 2.782111167907715 37.10017776489258 5.310725212097168 31.12186431884766 C 7.753411293029785 25.34673500061035 11.25062561035156 20.15983581542969 15.70523929595947 15.70522117614746 C 20.15985298156738 11.25062084197998 25.34676742553711 7.753406524658203 31.12189674377441 5.31073522567749 C 37.10022354125977 2.782120943069458 43.45164108276367 1.500006556510925 49.99972534179688 1.500006556510925 C 56.54780960083008 1.500006556510925 62.89922714233398 2.782120943069458 68.87755584716797 5.31073522567749 C 74.65267944335938 7.753406524658203 79.839599609375 11.25062084197998 84.29421234130859 15.70522117614746 C 88.74882507324219 20.15983581542969 92.24604034423828 25.34673500061035 94.68872833251953 31.12186431884766 C 97.21733856201172 37.10017776489258 98.49945068359375 43.45157623291016 98.49945068359375 49.99964904785156 C 98.49945068359375 56.54829406738281 97.21733856201172 62.89969253540039 94.68872833251953 68.87800598144531 C 92.24604034423828 74.65313720703125 88.74882507324219 79.84004974365234 84.29421234130859 84.29464721679688 C 79.839599609375 88.74925994873047 74.65267944335938 92.24647521972656 68.87755584716797 94.68914794921875 C 62.89922714233398 97.21776580810547 56.54780960083008 98.4998779296875 49.99972534179688 98.4998779296875 Z" stroke="none"/>
                <path d="M 49.99972534179688 3 C 43.65348052978516 3 37.49866485595703 4.242240905761719 31.70623016357422 6.692230224609375 C 26.10989379882812 9.059272766113281 21.08323669433594 12.44853210449219 16.76589202880859 16.76587677001953 C 12.44855499267578 21.08321380615234 9.059295654296875 26.10985565185547 6.692230224609375 31.70618438720703 C 4.24224853515625 37.49859619140625 3 43.65341186523438 3 50.00022888183594 C 3 56.34645843505859 4.24224853515625 62.50127410888672 6.692230224609375 68.29368591308594 C 9.059295654296875 73.8900146484375 12.44855499267578 78.91665649414062 16.76589202880859 83.23399353027344 C 21.08323669433594 87.55132293701172 26.10989379882812 90.94059753417969 31.70623016357422 93.30764007568359 C 37.49866485595703 95.75762939453125 43.65348052978516 96.99987030029297 49.99972534179688 96.99987030029297 C 56.34597015380859 96.99987030029297 62.50078582763672 95.75762939453125 68.293212890625 93.30764007568359 C 73.88955688476562 90.94059753417969 78.91621398925781 87.55132293701172 83.23355865478516 83.23399353027344 C 87.55089569091797 78.91665649414062 90.94015502929688 73.8900146484375 93.30722045898438 68.29368591308594 C 95.7572021484375 62.50127410888672 96.99945068359375 56.34645843505859 96.99945068359375 49.99964141845703 C 96.99945068359375 43.65341186523438 95.7572021484375 37.49859619140625 93.30722045898438 31.70618438720703 C 90.94015502929688 26.10985565185547 87.55089569091797 21.08321380615234 83.23355865478516 16.76587677001953 C 78.91621398925781 12.44853210449219 73.88955688476562 9.059272766113281 68.293212890625 6.692230224609375 C 62.50078582763672 4.242240905761719 56.34597015380859 3 49.99972534179688 3 M 49.99972534179688 0 C 77.61381530761719 0 99.99945068359375 22.38559722900391 99.99945068359375 49.99964141845703 L 99.99945068359375 50.00022888183594 C 99.99945068359375 77.6142578125 77.61381530761719 99.99987030029297 49.99972534179688 99.99987030029297 C 22.38563537597656 99.99987030029297 0 77.6142578125 0 50.00022888183594 L 0 49.99964141845703 C 0 22.38559722900391 22.38563537597656 0 49.99972534179688 0 Z" stroke="none" fill="#fff"/>
              </g>
            </g>
            <g id="Trazado_874923" data-name="Trazado 874923" transform="translate(0 0)" fill="none">
              <path d="M50,0a50,50,0,0,1,50,50h0A50,50,0,0,1,0,50H0A50,50,0,0,1,50,0Z" stroke="none"/>
              <path d="M 49.99972534179688 3 C 43.65348052978516 3 37.49866485595703 4.242240905761719 31.70623016357422 6.692230224609375 C 26.10989379882812 9.059272766113281 21.08323669433594 12.44853210449219 16.76589202880859 16.76587677001953 C 12.44855499267578 21.08321380615234 9.059295654296875 26.10985565185547 6.692230224609375 31.70618438720703 C 4.24224853515625 37.49859619140625 3 43.65341186523438 3 50.00022888183594 C 3 56.34645843505859 4.24224853515625 62.50127410888672 6.692230224609375 68.29368591308594 C 9.059295654296875 73.8900146484375 12.44855499267578 78.91665649414062 16.76589202880859 83.23399353027344 C 21.08323669433594 87.55132293701172 26.10989379882812 90.94059753417969 31.70623016357422 93.30764007568359 C 37.49866485595703 95.75762939453125 43.65348052978516 96.99987030029297 49.99972534179688 96.99987030029297 C 56.34597015380859 96.99987030029297 62.50078582763672 95.75762939453125 68.293212890625 93.30764007568359 C 73.88955688476562 90.94059753417969 78.91621398925781 87.55132293701172 83.23355865478516 83.23399353027344 C 87.55089569091797 78.91665649414062 90.94015502929688 73.8900146484375 93.30722045898438 68.29368591308594 C 95.7572021484375 62.50127410888672 96.99945068359375 56.34645843505859 96.99945068359375 49.99964141845703 C 96.99945068359375 43.65341186523438 95.7572021484375 37.49859619140625 93.30722045898438 31.70618438720703 C 90.94015502929688 26.10985565185547 87.55089569091797 21.08321380615234 83.23355865478516 16.76587677001953 C 78.91621398925781 12.44853210449219 73.88955688476562 9.059272766113281 68.293212890625 6.692230224609375 C 62.50078582763672 4.242240905761719 56.34597015380859 3 49.99972534179688 3 M 49.99972534179688 0 C 77.61381530761719 0 99.99945068359375 22.38559722900391 99.99945068359375 49.99964141845703 L 99.99945068359375 50.00022888183594 C 99.99945068359375 77.6142578125 77.61381530761719 99.99987030029297 49.99972534179688 99.99987030029297 C 22.38563537597656 99.99987030029297 0 77.6142578125 0 50.00022888183594 L 0 49.99964141845703 C 0 22.38559722900391 22.38563537597656 0 49.99972534179688 0 Z" stroke="none" fill="#fff"/>
            </g>
          </g>
        </g>
      </g>
    </g>
    <g id="medios-de-comunicacion-social" transform="translate(6464.82 -10096.663)">
      <path id="Trazado_901855" data-name="Trazado 901855" d="M219.532,38.467a5.756,5.756,0,0,0,3.383,1.092h10.809V44.8l6.852-5.241h2.956a5.761,5.761,0,0,0,5.77-5.752V13.252a5.761,5.761,0,0,0-5.77-5.752H222.915a5.761,5.761,0,0,0-5.77,5.752V38.467Z" transform="translate(-177.563 -6.612)" fill="#f7f3f1"/>
      <path id="Trazado_901856" data-name="Trazado 901856" d="M366.956,7.5h-4.942a5.761,5.761,0,0,1,5.77,5.752V33.807a5.761,5.761,0,0,1-5.77,5.752h-2.956l-1.91,1.461V44.8L364,39.559h2.956a5.761,5.761,0,0,0,5.77-5.752V13.252A5.761,5.761,0,0,0,366.956,7.5Z" transform="translate(-300.986 -6.612)" fill="#ebe1dc"/>
      <path id="Trazado_901857" data-name="Trazado 901857" d="M306.2,79.553l.595.481a5.3,5.3,0,0,0,3.332,1.18h8.442a1.408,1.408,0,0,0,1.407-1.476c-.036-.757,0-7.655,0-8.433a1.408,1.408,0,0,0-1.408-1.408l-5.725-.017.7-1.66a6.007,6.007,0,0,0-.318-5.317.937.937,0,0,0-1.751.465,6.11,6.11,0,0,1-1.528,4.042l-3.65,4.131h-1.331v8.012H306.2Z" transform="translate(-254.98 -55.038)" fill="#ffd36c"/>
      <path id="Trazado_901858" data-name="Trazado 901858" d="M278.435,137.733H274.58a.461.461,0,0,1-.461-.461v-9.826a.461.461,0,0,1,.461-.461h3.854a.461.461,0,0,1,.461.461v9.826A.462.462,0,0,1,278.435,137.733Z" transform="translate(-227.79 -111.947)" fill="#8ee6f3"/>
      <path id="Trazado_901859" data-name="Trazado 901859" d="M48.589,167.781V147.036a4.543,4.543,0,0,0-4.55-4.536H27.78a4.543,4.543,0,0,0-4.55,4.536v16.209a4.543,4.543,0,0,0,4.55,4.536h8.932v4.172l5.4-4.172Z" transform="translate(-6.611 -125.625)" fill="#4ed5ea"/>
      <path id="Trazado_901860" data-name="Trazado 901860" d="M150.984,142.5h-6.443a4.543,4.543,0,0,1,4.55,4.536v20.745h6.443V147.036A4.543,4.543,0,0,0,150.984,142.5Z" transform="translate(-113.556 -125.625)" fill="#62a6fd"/>
      <path id="Trazado_901861" data-name="Trazado 901861" d="M201.765,328H190.227A3.224,3.224,0,0,0,187,331.217v11.5a3.224,3.224,0,0,0,3.229,3.219h6.338V348.9l3.835-2.961h1.365a3.224,3.224,0,0,0,3.229-3.219v-11.5A3.224,3.224,0,0,0,201.765,328Z" transform="translate(-150.986 -289.156)" fill="#fa9084"/>
      <path id="Trazado_901862" data-name="Trazado 901862" d="M272.989,328h-4.974a3.224,3.224,0,0,1,3.229,3.219v11.5a3.224,3.224,0,0,1-3.229,3.219h-.226V348.9l3.835-2.961h1.365a3.224,3.224,0,0,0,3.229-3.219v-11.5A3.224,3.224,0,0,0,272.989,328Z" transform="translate(-222.21 -289.156)" fill="#ff6cb5"/>
      <path id="Trazado_901863" data-name="Trazado 901863" d="M231.6,383.163c2.777-1.472,4.215-2.724,4.215-4.664,0-2.676-3.278-3.345-4.215-1.338-1.07-2.074-4.215-1.338-4.215,1.338C227.387,380.439,228.825,381.691,231.6,383.163Z" transform="translate(-186.592 -331.443)" fill="#f7f3f1"/>
      <path id="Trazado_901864" data-name="Trazado 901864" d="M65.97,0H63.363a.889.889,0,0,0,0,1.776H65.97A4.878,4.878,0,0,1,70.851,6.64V27.195a4.878,4.878,0,0,1-4.882,4.864H63.014a.888.888,0,0,0-.54.183L57.05,36.391V32.947a.888.888,0,0,0-.888-.888H45.352a4.857,4.857,0,0,1-2.486-.678v-9.97a5.419,5.419,0,0,0-2.4-4.494V6.64a4.878,4.878,0,0,1,4.882-4.864H57.8A.889.889,0,0,0,57.8,0H45.352a6.657,6.657,0,0,0-6.658,6.64v9.5a5.445,5.445,0,0,0-1.266-.15H21.169a5.437,5.437,0,0,0-5.438,5.424v1.918a.889.889,0,0,0,1.776,0V21.411a3.659,3.659,0,0,1,3.662-3.648H37.428a3.659,3.659,0,0,1,3.662,3.648V31.735a.889.889,0,0,0,0,.235v5.65c0,.112-.007.223-.017.333H39.241a4.12,4.12,0,0,0-4.05,3.371.891.891,0,0,0-.23.128L30.989,44.52V42.156a.888.888,0,0,0-.888-.888H21.169a3.659,3.659,0,0,1-3.662-3.648V28.658a.889.889,0,0,0-1.776,0V37.62a5.437,5.437,0,0,0,5.438,5.424h8.044v3.284a.9.9,0,0,0,1.431.7l4.48-3.459v9.992a4.117,4.117,0,0,0,4.117,4.107h5.45v2.072a.9.9,0,0,0,1.431.7l3.595-2.776h1.062A4.117,4.117,0,0,0,54.9,53.563V51.986a.889.889,0,0,0-1.776,0v1.577a2.338,2.338,0,0,1-2.341,2.331H49.414a.888.888,0,0,0-.543.185l-2.4,1.856V56.782a.888.888,0,0,0-.888-.888H39.241A2.339,2.339,0,0,1,36.9,53.563v-11.5a2.338,2.338,0,0,1,2.341-2.331H50.779a2.339,2.339,0,0,1,2.341,2.331v4.36a.889.889,0,0,0,1.776,0v-4.36a4.117,4.117,0,0,0-4.117-4.107H42.856c.007-.111.01-4.6.01-4.6a6.647,6.647,0,0,0,2.486.479h9.921v4.353a.9.9,0,0,0,1.428.705l6.613-5.059H65.97a6.657,6.657,0,0,0,6.658-6.64V6.64A6.657,6.657,0,0,0,65.97,0Z"/>
      <path id="Trazado_901865" data-name="Trazado 901865" d="M279.058,54.634a1.851,1.851,0,0,0-2.277,1.768,5.218,5.218,0,0,1-1.306,3.454l-2.447,2.769a.887.887,0,0,0-.744-.4h-4.777a.888.888,0,0,0-.888.888V73.858a.888.888,0,0,0,.888.888h4.777a.888.888,0,0,0,.807-.52,6.206,6.206,0,0,0,3.228.91h8.442a2.325,2.325,0,0,0,2.294-2.406c-.027-.57,0-8.221,0-8.391a2.3,2.3,0,0,0-2.294-2.3l-4.39-.013.182-.43a6.935,6.935,0,0,0-.365-6.1,1.81,1.81,0,0,0-1.133-.863ZM271.4,72.97h-3V64h3Zm13.366-9.15a.521.521,0,0,1,.52.52c0,.169,0,.628,0,1.249-.013,3.433-.022,6.685,0,7.225a.52.52,0,0,1-.519.546H276.32a4.422,4.422,0,0,1-2.774-.982l-.374-.3V65.145l3.634-4.113a6.993,6.993,0,0,0,1.751-4.63.05.05,0,0,1,.091-.024,5.148,5.148,0,0,1,.271,4.53l-.7,1.66a.888.888,0,0,0,.815,1.234Z" transform="translate(-221.178 -48.072)"/>
      <path id="Trazado_901866" data-name="Trazado 901866" d="M73.339,201.433a.888.888,0,0,0,0,1.776h2.618l-.489,2.958a.888.888,0,1,0,1.752.29l.537-3.248H79.9l-.489,2.958a.888.888,0,1,0,1.753.29l.537-3.248h3.564a.888.888,0,1,0,0-1.776h-3.27l.358-2.167h2.912a.888.888,0,1,0,0-1.776H82.646l.489-2.958a.888.888,0,0,0-1.753-.29l-.537,3.248H78.7l.489-2.958a.888.888,0,0,0-1.753-.29L76.9,197.49H73.339a.888.888,0,1,0,0,1.776h3.27l-.358,2.167Zm5.07-2.167h2.143l-.358,2.167H78.051Z" transform="translate(-50.003 -170.585)"/>
      <path id="Trazado_901867" data-name="Trazado 901867" d="M224.979,369.136a2.987,2.987,0,0,0-2.628-.591,3.3,3.3,0,0,0-2.464,3.334A4.36,4.36,0,0,0,221.2,375a13.028,13.028,0,0,0,3.375,2.328.888.888,0,0,0,.832,0c2.813-1.492,4.687-2.989,4.687-5.449a3.283,3.283,0,0,0-2.552-3.317A2.978,2.978,0,0,0,224.979,369.136Zm3.337,2.744c0,1.327-.88,2.308-3.327,3.655-2.447-1.347-3.327-2.328-3.327-3.655a1.519,1.519,0,0,1,1.107-1.608,1.333,1.333,0,0,1,.313-.037,1.226,1.226,0,0,1,1.118.715.888.888,0,0,0,1.594-.032,1.154,1.154,0,0,1,1.362-.62A1.5,1.5,0,0,1,228.317,371.88Z" transform="translate(-179.98 -324.824)"/>
    </g>
  </g>
</svg>
