<svg xmlns="http://www.w3.org/2000/svg" xmlns:xlink="http://www.w3.org/1999/xlink" width="117.999" height="118" viewBox="0 0 117.999 118">
  <defs>
    <filter id="Trazado_874925" x="0" y="0" width="117.999" height="118" filterUnits="userSpaceOnUse">
      <feOffset dy="3" input="SourceAlpha"/>
      <feGaussianBlur stdDeviation="3" result="blur"/>
      <feFlood flood-opacity="0.161"/>
      <feComposite operator="in" in2="blur"/>
      <feComposite in="SourceGraphic"/>
    </filter>
  </defs>
  <g id="Grupo_1200404" data-name="Grupo 1200404" transform="translate(-269.001 -914)">
    <g id="Grupo_1112464" data-name="Grupo 1112464" transform="translate(-524.781 -1019.999)">
      <g id="Grupo_1111552" data-name="Grupo 1111552" transform="translate(-5.719 -577.158)">
        <g id="Grupo_1111316" data-name="Grupo 1111316" transform="translate(808.5 2517.157)">
          <g id="Grupo_1109835" data-name="Grupo 1109835" transform="translate(0 0)">
            <g id="Grupo_1107913" data-name="Grupo 1107913" transform="translate(0 0)">
              <g transform="matrix(1, 0, 0, 1, -9, -6)" filter="url(#Trazado_874925)">
                <g id="Trazado_874925-2" data-name="Trazado 874925" transform="translate(9 6)" fill="#ef8c1a" opacity="0.859">
                  <path d="M 49.99972534179688 98.4998779296875 C 43.45164108276367 98.4998779296875 37.10022354125977 97.21776580810547 31.12189674377441 94.68914794921875 C 25.34676742553711 92.24647521972656 20.15985298156738 88.74925994873047 15.70523929595947 84.29464721679688 C 11.25062561035156 79.84004974365234 7.753411293029785 74.65313720703125 5.310725212097168 68.87800598144531 C 2.782111167907715 62.89969253540039 1.499996781349182 56.54829406738281 1.499996781349182 50.00022125244141 C 1.499996781349182 43.45157623291016 2.782111167907715 37.10017776489258 5.310725212097168 31.12186431884766 C 7.753411293029785 25.34673500061035 11.25062561035156 20.15983581542969 15.70523929595947 15.70522117614746 C 20.15985298156738 11.25062084197998 25.34676742553711 7.753406524658203 31.12189674377441 5.31073522567749 C 37.10022354125977 2.782120943069458 43.45164108276367 1.500006556510925 49.99972534179688 1.500006556510925 C 56.54780960083008 1.500006556510925 62.89922714233398 2.782120943069458 68.87755584716797 5.31073522567749 C 74.65267944335938 7.753406524658203 79.839599609375 11.25062084197998 84.29421234130859 15.70522117614746 C 88.74882507324219 20.15983581542969 92.24604034423828 25.34673500061035 94.68872833251953 31.12186431884766 C 97.21733856201172 37.10017776489258 98.49945068359375 43.45157623291016 98.49945068359375 49.99964904785156 C 98.49945068359375 56.54829406738281 97.21733856201172 62.89969253540039 94.68872833251953 68.87800598144531 C 92.24604034423828 74.65313720703125 88.74882507324219 79.84004974365234 84.29421234130859 84.29464721679688 C 79.839599609375 88.74925994873047 74.65267944335938 92.24647521972656 68.87755584716797 94.68914794921875 C 62.89922714233398 97.21776580810547 56.54780960083008 98.4998779296875 49.99972534179688 98.4998779296875 Z" stroke="none"/>
                  <path d="M 49.99972534179688 3 C 43.65348052978516 3 37.49866485595703 4.242240905761719 31.70623016357422 6.692230224609375 C 26.10989379882812 9.059272766113281 21.08323669433594 12.44853210449219 16.76589202880859 16.76587677001953 C 12.44855499267578 21.08321380615234 9.059295654296875 26.10985565185547 6.692230224609375 31.70618438720703 C 4.24224853515625 37.49859619140625 3 43.65341186523438 3 50.00022888183594 C 3 56.34645843505859 4.24224853515625 62.50127410888672 6.692230224609375 68.29368591308594 C 9.059295654296875 73.8900146484375 12.44855499267578 78.91665649414062 16.76589202880859 83.23399353027344 C 21.08323669433594 87.55132293701172 26.10989379882812 90.94059753417969 31.70623016357422 93.30764007568359 C 37.49866485595703 95.75762939453125 43.65348052978516 96.99987030029297 49.99972534179688 96.99987030029297 C 56.34597015380859 96.99987030029297 62.50078582763672 95.75762939453125 68.293212890625 93.30764007568359 C 73.88955688476562 90.94059753417969 78.91621398925781 87.55132293701172 83.23355865478516 83.23399353027344 C 87.55089569091797 78.91665649414062 90.94015502929688 73.8900146484375 93.30722045898438 68.29368591308594 C 95.7572021484375 62.50127410888672 96.99945068359375 56.34645843505859 96.99945068359375 49.99964141845703 C 96.99945068359375 43.65341186523438 95.7572021484375 37.49859619140625 93.30722045898438 31.70618438720703 C 90.94015502929688 26.10985565185547 87.55089569091797 21.08321380615234 83.23355865478516 16.76587677001953 C 78.91621398925781 12.44853210449219 73.88955688476562 9.059272766113281 68.293212890625 6.692230224609375 C 62.50078582763672 4.242240905761719 56.34597015380859 3 49.99972534179688 3 M 49.99972534179688 0 C 77.61381530761719 0 99.99945068359375 22.38559722900391 99.99945068359375 49.99964141845703 L 99.99945068359375 50.00022888183594 C 99.99945068359375 77.6142578125 77.61381530761719 99.99987030029297 49.99972534179688 99.99987030029297 C 22.38563537597656 99.99987030029297 0 77.6142578125 0 50.00022888183594 L 0 49.99964141845703 C 0 22.38559722900391 22.38563537597656 0 49.99972534179688 0 Z" stroke="none" fill="#fff"/>
                </g>
              </g>
              <g id="Trazado_874923" data-name="Trazado 874923" transform="translate(0 0)" fill="none">
                <path d="M50,0a50,50,0,0,1,50,50h0A50,50,0,0,1,0,50H0A50,50,0,0,1,50,0Z" stroke="none"/>
                <path d="M 49.99972534179688 3 C 43.65348052978516 3 37.49866485595703 4.242240905761719 31.70623016357422 6.692230224609375 C 26.10989379882812 9.059272766113281 21.08323669433594 12.44853210449219 16.76589202880859 16.76587677001953 C 12.44855499267578 21.08321380615234 9.059295654296875 26.10985565185547 6.692230224609375 31.70618438720703 C 4.24224853515625 37.49859619140625 3 43.65341186523438 3 50.00022888183594 C 3 56.34645843505859 4.24224853515625 62.50127410888672 6.692230224609375 68.29368591308594 C 9.059295654296875 73.8900146484375 12.44855499267578 78.91665649414062 16.76589202880859 83.23399353027344 C 21.08323669433594 87.55132293701172 26.10989379882812 90.94059753417969 31.70623016357422 93.30764007568359 C 37.49866485595703 95.75762939453125 43.65348052978516 96.99987030029297 49.99972534179688 96.99987030029297 C 56.34597015380859 96.99987030029297 62.50078582763672 95.75762939453125 68.293212890625 93.30764007568359 C 73.88955688476562 90.94059753417969 78.91621398925781 87.55132293701172 83.23355865478516 83.23399353027344 C 87.55089569091797 78.91665649414062 90.94015502929688 73.8900146484375 93.30722045898438 68.29368591308594 C 95.7572021484375 62.50127410888672 96.99945068359375 56.34645843505859 96.99945068359375 49.99964141845703 C 96.99945068359375 43.65341186523438 95.7572021484375 37.49859619140625 93.30722045898438 31.70618438720703 C 90.94015502929688 26.10985565185547 87.55089569091797 21.08321380615234 83.23355865478516 16.76587677001953 C 78.91621398925781 12.44853210449219 73.88955688476562 9.059272766113281 68.293212890625 6.692230224609375 C 62.50078582763672 4.242240905761719 56.34597015380859 3 49.99972534179688 3 M 49.99972534179688 0 C 77.61381530761719 0 99.99945068359375 22.38559722900391 99.99945068359375 49.99964141845703 L 99.99945068359375 50.00022888183594 C 99.99945068359375 77.6142578125 77.61381530761719 99.99987030029297 49.99972534179688 99.99987030029297 C 22.38563537597656 99.99987030029297 0 77.6142578125 0 50.00022888183594 L 0 49.99964141845703 C 0 22.38559722900391 22.38563537597656 0 49.99972534179688 0 Z" stroke="none" fill="#fff"/>
              </g>
            </g>
          </g>
        </g>
      </g>
    </g>
    <g id="luz" transform="translate(274.831 940.75)">
      <path id="Trazado_901753" data-name="Trazado 901753" d="M160.125,136.98c-1.749-2.148-4.769-4.063-5.1-7.028a14.759,14.759,0,0,1,0-1.61H142.31a14.759,14.759,0,0,1,0,1.61c-.332,2.965-3.353,4.88-5.1,7.028a14.892,14.892,0,0,0,11.351,24.443h.214a14.892,14.892,0,0,0,11.351-24.443Z" transform="translate(-95.498 -112.675)" fill="#f2d755"/>
      <path id="Trazado_901754" data-name="Trazado 901754" d="M255.246,136.98c-1.748-2.148-4.768-4.063-5.1-7.029a14.943,14.943,0,0,1,0-1.61H246.75a14.7,14.7,0,0,0,0,1.61c.332,2.965,3.352,4.88,5.1,7.029a14.891,14.891,0,0,1-9.76,24.347,14.946,14.946,0,0,0,1.591.1h.214a14.893,14.893,0,0,0,11.35-24.444Z" transform="translate(-190.62 -112.674)" fill="#e5c439"/>
      <g id="Grupo_1200397" data-name="Grupo 1200397" transform="translate(45.606 8.459)">
        <path id="Trazado_901755" data-name="Trazado 901755" d="M208.585,72.9h-13.96a.584.584,0,0,1-.584-.584V69.883a.584.584,0,0,1,.584-.584h13.96a.584.584,0,0,1,.584.584v2.437A.584.584,0,0,1,208.585,72.9Z" transform="translate(-194.042 -69.299)" fill="#636a75"/>
        <path id="Trazado_901756" data-name="Trazado 901756" d="M208.585,102.425h-13.96a.584.584,0,0,1-.584-.584V99.4a.584.584,0,0,1,.584-.584h13.96a.584.584,0,0,1,.584.584v2.437A.584.584,0,0,1,208.585,102.425Z" transform="translate(-194.042 -95.217)" fill="#636a75"/>
      </g>
      <g id="Grupo_1200398" data-name="Grupo 1200398" transform="translate(58.451 8.46)">
        <path id="Trazado_901757" data-name="Trazado 901757" d="M301.549,69.885v2.436a.583.583,0,0,1-.584.584h-1.7a.583.583,0,0,0,.584-.584V69.885a.583.583,0,0,0-.584-.584h1.7A.584.584,0,0,1,301.549,69.885Z" transform="translate(-299.267 -69.301)" fill="#525760"/>
        <path id="Trazado_901758" data-name="Trazado 901758" d="M301.549,99.4v2.437a.584.584,0,0,1-.584.584h-1.7a.583.583,0,0,0,.584-.584V99.4a.583.583,0,0,0-.584-.584h1.7A.584.584,0,0,1,301.549,99.4Z" transform="translate(-299.267 -95.214)" fill="#525760"/>
      </g>
      <path id="Trazado_901759" data-name="Trazado 901759" d="M219.987,29.421a1.144,1.144,0,0,0-.822-.348h-7.209a1.144,1.144,0,0,0-.822.348l-.874.9a1.144,1.144,0,0,0-.322.8v2.863h11.247V31.12a1.145,1.145,0,0,0-.322-.8Z" transform="translate(-162.391 -25.524)" fill="#8e95a0"/>
      <path id="Trazado_901760" data-name="Trazado 901760" d="M273.392,31.118v2.863h-1.968V31.118a1.148,1.148,0,0,0-.322-.8l-.875-.9a1.143,1.143,0,0,0-.822-.349h1.969a1.143,1.143,0,0,1,.822.349l.874.9A1.144,1.144,0,0,1,273.392,31.118Z" transform="translate(-214.599 -25.521)" fill="#7e848c"/>
      <path id="Trazado_901761" data-name="Trazado 901761" d="M236.511,10.147h-6.3V7.992a.477.477,0,0,1,.477-.477h5.342a.477.477,0,0,1,.477.477v2.155Z" transform="translate(-180.193 -6.598)" fill="#8e95a0"/>
      <path id="Trazado_901762" data-name="Trazado 901762" d="M266.147,7.99v2.154h-1.7V7.99a.477.477,0,0,0-.477-.478h1.7A.477.477,0,0,1,266.147,7.99Z" transform="translate(-209.83 -6.595)" fill="#7e848c"/>
      <path id="Trazado_901763" data-name="Trazado 901763" d="M154.54,205.691a.917.917,0,0,0-1.285.18,13.92,13.92,0,0,1-11.082,5.606h-.208A13.975,13.975,0,0,1,131.32,188.53c.151-.185.319-.378.516-.589a.917.917,0,0,0-1.345-1.248c-.223.24-.417.462-.594.679a15.81,15.81,0,0,0,12.062,25.94h.221a15.743,15.743,0,0,0,12.541-6.336A.917.917,0,0,0,154.54,205.691Z" transform="translate(-88.897 -163.646)"/>
      <path id="Trazado_901764" data-name="Trazado 901764" d="M205.582,23.726a24.247,24.247,0,0,0-1.791-1.894c-1.43-1.409-2.909-2.865-3.11-4.657a4.709,4.709,0,0,1-.017-.616,1.5,1.5,0,0,0,1.23-1.475V12.647a1.493,1.493,0,0,0-.118-.584,1.492,1.492,0,0,0,.118-.584V9.043a1.5,1.5,0,0,0-1.5-1.5h-.439V5.6a2.052,2.052,0,0,0-.581-1.434l-.874-.9h0a2.071,2.071,0,0,0-1.021-.573V1.394A1.4,1.4,0,0,0,196.085,0h-5.342a1.4,1.4,0,0,0-1.394,1.394V2.686a2.071,2.071,0,0,0-1.021.573l-.874.9a2.052,2.052,0,0,0-.581,1.434V7.542h-.439a1.5,1.5,0,0,0-1.5,1.5v2.437a1.493,1.493,0,0,0,.118.584,1.492,1.492,0,0,0-.118.584v2.437a1.5,1.5,0,0,0,1.23,1.475,4.73,4.73,0,0,1-.017.616,5.2,5.2,0,0,1-1.235,2.659.917.917,0,1,0,1.438,1.139,7.028,7.028,0,0,0,1.62-3.594,6.186,6.186,0,0,0,.03-.795h1.571v4.4a.539.539,0,0,1-.113.33l-4.245,5.45a2.384,2.384,0,0,0-.5,1.458v1.944a.917.917,0,0,0,1.835,0V28.789l1.252.794a1.405,1.405,0,0,0,1.5,0l1.683-1.068,1.683,1.068a1.4,1.4,0,0,0,1.5,0l1.683-1.068,1.683,1.068a1.405,1.405,0,0,0,1.5,0l1.252-.795v1.374a.917.917,0,1,0,1.835,0V28.219a2.383,2.383,0,0,0-.5-1.458l-4.245-5.45a.54.54,0,0,1-.114-.33v-4.4h1.571a6.165,6.165,0,0,0,.03.795c.273,2.439,2.065,4.2,3.646,5.76a22.6,22.6,0,0,1,1.656,1.745,14.049,14.049,0,0,1,3.26,9.057,13.857,13.857,0,0,1-.84,4.653.917.917,0,1,0,1.724.629,15.7,15.7,0,0,0,.951-5.267A15.863,15.863,0,0,0,205.582,23.726Zm-14.4-21.891h4.461v.8h-4.461v-.8ZM188.707,5.6a.227.227,0,0,1,.064-.158l.874-.9a.229.229,0,0,1,.163-.069h7.209a.229.229,0,0,1,.163.069l.874.9a.226.226,0,0,1,.064.158V7.542h-9.412V5.6Zm-1.94,3.781h13.292v1.769H186.767V9.377Zm9.155,13.062,3.619,4.647-1.263.8L196.6,26.819a1.405,1.405,0,0,0-1.5,0l-1.683,1.068-1.683-1.068a1.406,1.406,0,0,0-1.5,0l-1.683,1.068-1.263-.8,3.619-4.647a2.383,2.383,0,0,0,.5-1.458v-4.4h4.018v4.4A2.387,2.387,0,0,0,195.923,22.439Zm-9.155-7.689V12.98h13.292V14.75Z" transform="translate(-140.244)"/>
      <path id="Trazado_901765" data-name="Trazado 901765" d="M249.4,454.3a.917.917,0,0,1-.917-.917v-6.188a.917.917,0,0,1,1.835,0v6.188A.917.917,0,0,1,249.4,454.3Z" transform="translate(-196.234 -391.799)"/>
      <path id="Trazado_901766" data-name="Trazado 901766" d="M95.727,121.614a.915.915,0,0,1-.649-.269L90.7,116.969a.917.917,0,0,1,1.3-1.3l4.376,4.376a.917.917,0,0,1-.649,1.566Z" transform="translate(-57.475 -101.316)"/>
      <path id="Trazado_901767" data-name="Trazado 901767" d="M375.982,401.869a.915.915,0,0,1-.649-.269l-4.376-4.376a.917.917,0,0,1,1.3-1.3l4.376,4.376a.917.917,0,0,1-.649,1.566Z" transform="translate(-303.519 -347.36)"/>
      <path id="Trazado_901768" data-name="Trazado 901768" d="M32.073,275.287H25.884a.917.917,0,0,1,0-1.835h6.188a.917.917,0,0,1,0,1.835Z" transform="translate(0 -240.072)"/>
      <path id="Trazado_901769" data-name="Trazado 901769" d="M428.414,275.287h-6.188a.917.917,0,0,1,0-1.835h6.188a.917.917,0,0,1,0,1.835Z" transform="translate(-347.96 -240.072)"/>
      <path id="Trazado_901770" data-name="Trazado 901770" d="M91.35,401.869A.917.917,0,0,1,90.7,400.3l4.376-4.376a.917.917,0,0,1,1.3,1.3L92,401.6A.915.915,0,0,1,91.35,401.869Z" transform="translate(-57.474 -347.36)"/>
      <path id="Trazado_901771" data-name="Trazado 901771" d="M371.606,121.614a.917.917,0,0,1-.649-1.566l4.376-4.376a.917.917,0,0,1,1.3,1.3l-4.376,4.376A.915.915,0,0,1,371.606,121.614Z" transform="translate(-303.519 -101.316)"/>
    </g>
  </g>
</svg>
