<svg xmlns="http://www.w3.org/2000/svg" xmlns:xlink="http://www.w3.org/1999/xlink" width="117.999" height="118" viewBox="0 0 117.999 118">
  <defs>
    <filter id="Trazado_874925" x="0" y="0" width="117.999" height="118" filterUnits="userSpaceOnUse">
      <feOffset dy="3" input="SourceAlpha"/>
      <feGaussianBlur stdDeviation="3" result="blur"/>
      <feFlood flood-opacity="0.161"/>
      <feComposite operator="in" in2="blur"/>
      <feComposite in="SourceGraphic"/>
    </filter>
  </defs>
  <g id="Grupo_1200401" data-name="Grupo 1200401" transform="translate(-591.001 -914)">
    <g id="Grupo_1112465" data-name="Grupo 1112465" transform="translate(-202.781 -1019.999)">
      <g id="Grupo_1111552" data-name="Grupo 1111552" transform="translate(-5.719 -577.158)">
        <g id="Grupo_1111316" data-name="Grupo 1111316" transform="translate(808.5 2517.157)">
          <g id="Grupo_1109835" data-name="Grupo 1109835" transform="translate(0 0)">
            <g id="Grupo_1107913" data-name="Grupo 1107913" transform="translate(0 0)">
              <g transform="matrix(1, 0, 0, 1, -9, -6)" filter="url(#Trazado_874925)">
                <g id="Trazado_874925-2" data-name="Trazado 874925" transform="translate(9 6)" fill="#ef8c1a" opacity="0.859">
                  <path d="M 49.99972534179688 98.4998779296875 C 43.45164108276367 98.4998779296875 37.10022354125977 97.21776580810547 31.12189674377441 94.68914794921875 C 25.34676742553711 92.24647521972656 20.15985298156738 88.74925994873047 15.70523929595947 84.29464721679688 C 11.25062561035156 79.84004974365234 7.753411293029785 74.65313720703125 5.310725212097168 68.87800598144531 C 2.782111167907715 62.89969253540039 1.499996781349182 56.54829406738281 1.499996781349182 50.00022125244141 C 1.499996781349182 43.45157623291016 2.782111167907715 37.10017776489258 5.310725212097168 31.12186431884766 C 7.753411293029785 25.34673500061035 11.25062561035156 20.15983581542969 15.70523929595947 15.70522117614746 C 20.15985298156738 11.25062084197998 25.34676742553711 7.753406524658203 31.12189674377441 5.31073522567749 C 37.10022354125977 2.782120943069458 43.45164108276367 1.500006556510925 49.99972534179688 1.500006556510925 C 56.54780960083008 1.500006556510925 62.89922714233398 2.782120943069458 68.87755584716797 5.31073522567749 C 74.65267944335938 7.753406524658203 79.839599609375 11.25062084197998 84.29421234130859 15.70522117614746 C 88.74882507324219 20.15983581542969 92.24604034423828 25.34673500061035 94.68872833251953 31.12186431884766 C 97.21733856201172 37.10017776489258 98.49945068359375 43.45157623291016 98.49945068359375 49.99964904785156 C 98.49945068359375 56.54829406738281 97.21733856201172 62.89969253540039 94.68872833251953 68.87800598144531 C 92.24604034423828 74.65313720703125 88.74882507324219 79.84004974365234 84.29421234130859 84.29464721679688 C 79.839599609375 88.74925994873047 74.65267944335938 92.24647521972656 68.87755584716797 94.68914794921875 C 62.89922714233398 97.21776580810547 56.54780960083008 98.4998779296875 49.99972534179688 98.4998779296875 Z" stroke="none"/>
                  <path d="M 49.99972534179688 3 C 43.65348052978516 3 37.49866485595703 4.242240905761719 31.70623016357422 6.692230224609375 C 26.10989379882812 9.059272766113281 21.08323669433594 12.44853210449219 16.76589202880859 16.76587677001953 C 12.44855499267578 21.08321380615234 9.059295654296875 26.10985565185547 6.692230224609375 31.70618438720703 C 4.24224853515625 37.49859619140625 3 43.65341186523438 3 50.00022888183594 C 3 56.34645843505859 4.24224853515625 62.50127410888672 6.692230224609375 68.29368591308594 C 9.059295654296875 73.8900146484375 12.44855499267578 78.91665649414062 16.76589202880859 83.23399353027344 C 21.08323669433594 87.55132293701172 26.10989379882812 90.94059753417969 31.70623016357422 93.30764007568359 C 37.49866485595703 95.75762939453125 43.65348052978516 96.99987030029297 49.99972534179688 96.99987030029297 C 56.34597015380859 96.99987030029297 62.50078582763672 95.75762939453125 68.293212890625 93.30764007568359 C 73.88955688476562 90.94059753417969 78.91621398925781 87.55132293701172 83.23355865478516 83.23399353027344 C 87.55089569091797 78.91665649414062 90.94015502929688 73.8900146484375 93.30722045898438 68.29368591308594 C 95.7572021484375 62.50127410888672 96.99945068359375 56.34645843505859 96.99945068359375 49.99964141845703 C 96.99945068359375 43.65341186523438 95.7572021484375 37.49859619140625 93.30722045898438 31.70618438720703 C 90.94015502929688 26.10985565185547 87.55089569091797 21.08321380615234 83.23355865478516 16.76587677001953 C 78.91621398925781 12.44853210449219 73.88955688476562 9.059272766113281 68.293212890625 6.692230224609375 C 62.50078582763672 4.242240905761719 56.34597015380859 3 49.99972534179688 3 M 49.99972534179688 0 C 77.61381530761719 0 99.99945068359375 22.38559722900391 99.99945068359375 49.99964141845703 L 99.99945068359375 50.00022888183594 C 99.99945068359375 77.6142578125 77.61381530761719 99.99987030029297 49.99972534179688 99.99987030029297 C 22.38563537597656 99.99987030029297 0 77.6142578125 0 50.00022888183594 L 0 49.99964141845703 C 0 22.38559722900391 22.38563537597656 0 49.99972534179688 0 Z" stroke="none" fill="#fff"/>
                </g>
              </g>
              <g id="Trazado_874923" data-name="Trazado 874923" transform="translate(0 0)" fill="none">
                <path d="M50,0a50,50,0,0,1,50,50h0A50,50,0,0,1,0,50H0A50,50,0,0,1,50,0Z" stroke="none"/>
                <path d="M 49.99972534179688 3 C 43.65348052978516 3 37.49866485595703 4.242240905761719 31.70623016357422 6.692230224609375 C 26.10989379882812 9.059272766113281 21.08323669433594 12.44853210449219 16.76589202880859 16.76587677001953 C 12.44855499267578 21.08321380615234 9.059295654296875 26.10985565185547 6.692230224609375 31.70618438720703 C 4.24224853515625 37.49859619140625 3 43.65341186523438 3 50.00022888183594 C 3 56.34645843505859 4.24224853515625 62.50127410888672 6.692230224609375 68.29368591308594 C 9.059295654296875 73.8900146484375 12.44855499267578 78.91665649414062 16.76589202880859 83.23399353027344 C 21.08323669433594 87.55132293701172 26.10989379882812 90.94059753417969 31.70623016357422 93.30764007568359 C 37.49866485595703 95.75762939453125 43.65348052978516 96.99987030029297 49.99972534179688 96.99987030029297 C 56.34597015380859 96.99987030029297 62.50078582763672 95.75762939453125 68.293212890625 93.30764007568359 C 73.88955688476562 90.94059753417969 78.91621398925781 87.55132293701172 83.23355865478516 83.23399353027344 C 87.55089569091797 78.91665649414062 90.94015502929688 73.8900146484375 93.30722045898438 68.29368591308594 C 95.7572021484375 62.50127410888672 96.99945068359375 56.34645843505859 96.99945068359375 49.99964141845703 C 96.99945068359375 43.65341186523438 95.7572021484375 37.49859619140625 93.30722045898438 31.70618438720703 C 90.94015502929688 26.10985565185547 87.55089569091797 21.08321380615234 83.23355865478516 16.76587677001953 C 78.91621398925781 12.44853210449219 73.88955688476562 9.059272766113281 68.293212890625 6.692230224609375 C 62.50078582763672 4.242240905761719 56.34597015380859 3 49.99972534179688 3 M 49.99972534179688 0 C 77.61381530761719 0 99.99945068359375 22.38559722900391 99.99945068359375 49.99964141845703 L 99.99945068359375 50.00022888183594 C 99.99945068359375 77.6142578125 77.61381530761719 99.99987030029297 49.99972534179688 99.99987030029297 C 22.38563537597656 99.99987030029297 0 77.6142578125 0 50.00022888183594 L 0 49.99964141845703 C 0 22.38559722900391 22.38563537597656 0 49.99972534179688 0 Z" stroke="none" fill="#fff"/>
              </g>
            </g>
          </g>
        </g>
      </g>
    </g>
    <g id="mujeres" transform="translate(523.44 938)">
      <path id="Trazado_901772" data-name="Trazado 901772" d="M150.912,339.32h-3.456a6.772,6.772,0,0,1-13.328,0h-3.456a6.128,6.128,0,0,0-6.121,6.121v3.145h4.191V344.92a.989.989,0,0,1,1.977,0v4.655a.991.991,0,0,1-.3.708,6.338,6.338,0,0,0,.1,8.66.989.989,0,0,1-.67,1.716h21.895a.989.989,0,0,1-.68-1.708,6.272,6.272,0,0,0,1.753-4.388,6.052,6.052,0,0,0-1.663-4.28.99.99,0,0,1-.3-.707v-4.655a.989.989,0,0,1,1.977,0v3.666h4.2v-3.145a6.126,6.126,0,0,0-6.12-6.123Z" transform="translate(-14.014 -297.392)" fill="#f6aeb2"/>
      <path id="Trazado_901773" data-name="Trazado 901773" d="M168.234,16A12.387,12.387,0,0,0,155.86,28.374v2.412a3.825,3.825,0,0,1,.728-.07h1.145c2.847,0,10.356-4.52,13.595-11.608a.989.989,0,0,1,1.874.246,18.826,18.826,0,0,0,5.906,11.362h.772a3.825,3.825,0,0,1,.728.07V28.374A12.389,12.389,0,0,0,168.234,16Z" transform="translate(-41.455 -14.023)" fill="#92563a"/>
      <path id="Trazado_901774" data-name="Trazado 901774" d="M197.928,77.095A19.9,19.9,0,0,1,192,67.27c-3.574,5.758-9.534,9.628-13.13,10.265v5.432a9.541,9.541,0,0,0,5.673,8.711.984.984,0,0,1,.156.07,9.534,9.534,0,0,0,7.4,0,.883.883,0,0,1,.156-.07,9.543,9.543,0,0,0,5.673-8.711V77.254C197.93,77.2,197.929,77.147,197.928,77.095Z" transform="translate(-61.622 -58.958)" fill="#fec8a2"/>
      <g id="Grupo_1200399" data-name="Grupo 1200399" transform="translate(108.56 0)">
        <path id="Trazado_901775" data-name="Trazado 901775" d="M139.8,40.489A8.765,8.765,0,0,0,141.129,26.9V23.277a3.838,3.838,0,0,0,0-5.47V14.351a14.351,14.351,0,0,0-28.7,0v3.456a3.837,3.837,0,0,0,0,5.469V26.9A8.764,8.764,0,0,0,113.76,40.49a8.111,8.111,0,0,0-5.2,7.56V62.277a.989.989,0,1,0,1.977,0V53.172h3.219a8.417,8.417,0,0,0-.985,4,7.888,7.888,0,0,0,2.4,5.835.989.989,0,0,0,1.338-1.456,6.338,6.338,0,0,1-.1-8.66.991.991,0,0,0,.3-.708V47.527a.989.989,0,0,0-1.977,0v3.666h-4.191V48.049a6.129,6.129,0,0,1,6.121-6.121h3.456a6.772,6.772,0,0,0,13.328,0H136.9a6.128,6.128,0,0,1,6.121,6.121v3.145h-4.2V47.527a.989.989,0,0,0-1.977,0v4.655a.988.988,0,0,0,.3.707,6.052,6.052,0,0,1,1.663,4.28,6.267,6.267,0,0,1-1.753,4.388.989.989,0,0,0,.68,1.708.979.979,0,0,0,.678-.271,8.219,8.219,0,0,0,2.372-5.825,8.391,8.391,0,0,0-.989-4h3.221v9.107a.989.989,0,1,0,1.977,0V48.05a8.111,8.111,0,0,0-5.2-7.561Zm.5-19.945a1.878,1.878,0,0,1-1.856,1.873h-.157V18.671h.14A1.875,1.875,0,0,1,140.3,20.544ZM114.4,14.351a12.374,12.374,0,0,1,24.748,0v2.412a3.825,3.825,0,0,0-.728-.07h-.772a18.829,18.829,0,0,1-5.906-11.362.989.989,0,0,0-1.875-.246c-3.239,7.088-10.748,11.608-13.595,11.608h-1.145a3.825,3.825,0,0,0-.728.07V14.351Zm.728,4.32h.14v3.747h-.151a1.873,1.873,0,0,1,.011-3.747ZM121.6,39.951h-3.04a6.792,6.792,0,0,1-4.5-11.882.989.989,0,0,0,.335-.741V24.321a3.837,3.837,0,0,0,.711.072h.164a11.524,11.524,0,0,0,6.325,9.89Zm5.174,5.565a4.769,4.769,0,0,1-4.646-3.588h.461a.988.988,0,0,0,.989-.989V35.063a11.524,11.524,0,0,0,6.393,0V40.94a.988.988,0,0,0,.989.989h.461A4.769,4.769,0,0,1,126.779,45.517Zm3.858-12.8a.984.984,0,0,0-.156.07,9.534,9.534,0,0,1-7.4,0,.983.983,0,0,0-.156-.07,9.543,9.543,0,0,1-5.673-8.711V18.576c3.595-.636,9.555-4.506,13.13-10.265a19.892,19.892,0,0,0,5.927,9.825c0,.053,0,.105,0,.158v5.712A9.548,9.548,0,0,1,130.636,32.719Zm4.356,7.232h-3.04V34.285a11.521,11.521,0,0,0,6.325-9.89h.171a3.757,3.757,0,0,0,.7-.07v3a.987.987,0,0,0,.334.74,6.793,6.793,0,0,1-4.493,11.886Z" transform="translate(-108.56 0)"/>
        <path id="Trazado_901776" data-name="Trazado 901776" d="M284.012,157.329a.987.987,0,0,0,.729-1.192,2.512,2.512,0,0,0-4.886,0,.988.988,0,0,0,1.921.463.534.534,0,0,1,1.04,0,.988.988,0,0,0,.96.757A1.079,1.079,0,0,0,284.012,157.329Z" transform="translate(-258.664 -135.155)"/>
        <path id="Trazado_901777" data-name="Trazado 901777" d="M197.1,156.136a2.512,2.512,0,0,0-4.886,0,.988.988,0,0,0,1.921.463.534.534,0,0,1,1.04,0,.988.988,0,0,0,.96.757,1,1,0,0,0,.232-.027A.991.991,0,0,0,197.1,156.136Z" transform="translate(-181.854 -135.155)"/>
        <path id="Trazado_901778" data-name="Trazado 901778" d="M235.593,214.284a.987.987,0,0,0-1.388.168,1.927,1.927,0,0,1-3.038,0,.989.989,0,0,0-1.559,1.216,3.9,3.9,0,0,0,6.152,0A.987.987,0,0,0,235.593,214.284Z" transform="translate(-214.467 -187.621)"/>
        <path id="Trazado_901779" data-name="Trazado 901779" d="M211.664,382.6a8.408,8.408,0,0,1-10.811,0,.988.988,0,1,0-1.233,1.545,10.452,10.452,0,0,0,13.28,0,.989.989,0,1,0-1.236-1.545Z" transform="translate(-188.042 -335.138)"/>
        <path id="Trazado_901780" data-name="Trazado 901780" d="M175.811,31.275a.991.991,0,0,0,.414-.091,25.5,25.5,0,0,0,10.992-9.793.988.988,0,1,0-1.706-1,23.456,23.456,0,0,1-10.114,9,.988.988,0,0,0,.414,1.886Z" transform="translate(-166.635 -17.445)"/>
      </g>
      <g id="Grupo_1200400" data-name="Grupo 1200400" transform="translate(109.549 18.671)">
        <path id="Trazado_901781" data-name="Trazado 901781" d="M349.954,439.416V430.31h-3.221a8.4,8.4,0,0,1,.989,4,8.217,8.217,0,0,1-2.372,5.825.987.987,0,0,1-.678.271h6.273a.989.989,0,0,1-.99-.989Z" transform="translate(-316.483 -395.809)" fill="#fec8a2"/>
        <path id="Trazado_901782" data-name="Trazado 901782" d="M223.046,284.2a11.472,11.472,0,0,1-3.2-.452v5.877a.988.988,0,0,1-.989.989H218.4a4.8,4.8,0,0,0,9.292,0h-.461a.988.988,0,0,1-.989-.989V283.75A11.466,11.466,0,0,1,223.046,284.2Z" transform="translate(-205.816 -267.359)" fill="#fec8a2"/>
        <path id="Trazado_901783" data-name="Trazado 901783" d="M119.783,434.309a8.41,8.41,0,0,1,.985-4h-3.219v9.106a.988.988,0,0,1-.989.989h6.291a.983.983,0,0,1-.668-.261A7.888,7.888,0,0,1,119.783,434.309Z" transform="translate(-116.56 -395.809)" fill="#fec8a2"/>
        <path id="Trazado_901784" data-name="Trazado 901784" d="M146.59,152.973a1.879,1.879,0,0,0,1.862,1.873h.151V151.1h-.14a1.875,1.875,0,0,0-1.873,1.873Z" transform="translate(-142.879 -151.1)" fill="#fec8a2"/>
      </g>
      <path id="Trazado_901785" data-name="Trazado 901785" d="M141.361,212.469h3.04V206.8a11.52,11.52,0,0,1-6.325-9.89h-.164a3.859,3.859,0,0,1-.711-.072v3.006a.991.991,0,0,1-.335.741,6.791,6.791,0,0,0,4.5,11.881Z" transform="translate(-22.796 -172.517)" fill="#92563a"/>
      <path id="Trazado_901786" data-name="Trazado 901786" d="M349.12,151.1v3.747h.157a1.873,1.873,0,0,0-.017-3.747Z" transform="translate(-210.835 -132.429)" fill="#fec8a2"/>
      <path id="Trazado_901787" data-name="Trazado 901787" d="M307.71,205.682a6.8,6.8,0,0,0-2.3-5.091.987.987,0,0,1-.334-.74v-3a3.778,3.778,0,0,1-.7.07h-.171a11.524,11.524,0,0,1-6.325,9.89v5.667h3.04A6.8,6.8,0,0,0,307.71,205.682Z" transform="translate(-165.926 -172.526)" fill="#92563a"/>
    </g>
  </g>
</svg>
