<svg xmlns="http://www.w3.org/2000/svg" xmlns:xlink="http://www.w3.org/1999/xlink" width="117.999" height="118" viewBox="0 0 117.999 118">
  <defs>
    <filter id="Trazado_874925" x="0" y="0" width="117.999" height="118" filterUnits="userSpaceOnUse">
      <feOffset dy="3" input="SourceAlpha"/>
      <feGaussianBlur stdDeviation="3" result="blur"/>
      <feFlood flood-opacity="0.161"/>
      <feComposite operator="in" in2="blur"/>
      <feComposite in="SourceGraphic"/>
    </filter>
    <clipPath id="clip-path">
      <path id="path10647" d="M0-682.665H58.422v58.422H0Z" transform="translate(0 682.665)"/>
    </clipPath>
  </defs>
  <g id="Grupo_1200402" data-name="Grupo 1200402" transform="translate(-906 -914)">
    <g id="Grupo_1112466" data-name="Grupo 1112466" transform="translate(112.219 -1019.999)">
      <g id="Grupo_1111552" data-name="Grupo 1111552" transform="translate(-5.719 -577.158)">
        <g id="Grupo_1111316" data-name="Grupo 1111316" transform="translate(808.5 2517.157)">
          <g id="Grupo_1109835" data-name="Grupo 1109835" transform="translate(0 0)">
            <g id="Grupo_1107913" data-name="Grupo 1107913" transform="translate(0 0)">
              <g transform="matrix(1, 0, 0, 1, -9, -6)" filter="url(#Trazado_874925)">
                <g id="Trazado_874925-2" data-name="Trazado 874925" transform="translate(9 6)" fill="#ef8c1a" opacity="0.859">
                  <path d="M 49.99972534179688 98.4998779296875 C 43.45164108276367 98.4998779296875 37.10022354125977 97.21776580810547 31.12189674377441 94.68914794921875 C 25.34676742553711 92.24647521972656 20.15985298156738 88.74925994873047 15.70523929595947 84.29464721679688 C 11.25062561035156 79.84004974365234 7.753411293029785 74.65313720703125 5.310725212097168 68.87800598144531 C 2.782111167907715 62.89969253540039 1.499996781349182 56.54829406738281 1.499996781349182 50.00022125244141 C 1.499996781349182 43.45157623291016 2.782111167907715 37.10017776489258 5.310725212097168 31.12186431884766 C 7.753411293029785 25.34673500061035 11.25062561035156 20.15983581542969 15.70523929595947 15.70522117614746 C 20.15985298156738 11.25062084197998 25.34676742553711 7.753406524658203 31.12189674377441 5.31073522567749 C 37.10022354125977 2.782120943069458 43.45164108276367 1.500006556510925 49.99972534179688 1.500006556510925 C 56.54780960083008 1.500006556510925 62.89922714233398 2.782120943069458 68.87755584716797 5.31073522567749 C 74.65267944335938 7.753406524658203 79.839599609375 11.25062084197998 84.29421234130859 15.70522117614746 C 88.74882507324219 20.15983581542969 92.24604034423828 25.34673500061035 94.68872833251953 31.12186431884766 C 97.21733856201172 37.10017776489258 98.49945068359375 43.45157623291016 98.49945068359375 49.99964904785156 C 98.49945068359375 56.54829406738281 97.21733856201172 62.89969253540039 94.68872833251953 68.87800598144531 C 92.24604034423828 74.65313720703125 88.74882507324219 79.84004974365234 84.29421234130859 84.29464721679688 C 79.839599609375 88.74925994873047 74.65267944335938 92.24647521972656 68.87755584716797 94.68914794921875 C 62.89922714233398 97.21776580810547 56.54780960083008 98.4998779296875 49.99972534179688 98.4998779296875 Z" stroke="none"/>
                  <path d="M 49.99972534179688 3 C 43.65348052978516 3 37.49866485595703 4.242240905761719 31.70623016357422 6.692230224609375 C 26.10989379882812 9.059272766113281 21.08323669433594 12.44853210449219 16.76589202880859 16.76587677001953 C 12.44855499267578 21.08321380615234 9.059295654296875 26.10985565185547 6.692230224609375 31.70618438720703 C 4.24224853515625 37.49859619140625 3 43.65341186523438 3 50.00022888183594 C 3 56.34645843505859 4.24224853515625 62.50127410888672 6.692230224609375 68.29368591308594 C 9.059295654296875 73.8900146484375 12.44855499267578 78.91665649414062 16.76589202880859 83.23399353027344 C 21.08323669433594 87.55132293701172 26.10989379882812 90.94059753417969 31.70623016357422 93.30764007568359 C 37.49866485595703 95.75762939453125 43.65348052978516 96.99987030029297 49.99972534179688 96.99987030029297 C 56.34597015380859 96.99987030029297 62.50078582763672 95.75762939453125 68.293212890625 93.30764007568359 C 73.88955688476562 90.94059753417969 78.91621398925781 87.55132293701172 83.23355865478516 83.23399353027344 C 87.55089569091797 78.91665649414062 90.94015502929688 73.8900146484375 93.30722045898438 68.29368591308594 C 95.7572021484375 62.50127410888672 96.99945068359375 56.34645843505859 96.99945068359375 49.99964141845703 C 96.99945068359375 43.65341186523438 95.7572021484375 37.49859619140625 93.30722045898438 31.70618438720703 C 90.94015502929688 26.10985565185547 87.55089569091797 21.08321380615234 83.23355865478516 16.76587677001953 C 78.91621398925781 12.44853210449219 73.88955688476562 9.059272766113281 68.293212890625 6.692230224609375 C 62.50078582763672 4.242240905761719 56.34597015380859 3 49.99972534179688 3 M 49.99972534179688 0 C 77.61381530761719 0 99.99945068359375 22.38559722900391 99.99945068359375 49.99964141845703 L 99.99945068359375 50.00022888183594 C 99.99945068359375 77.6142578125 77.61381530761719 99.99987030029297 49.99972534179688 99.99987030029297 C 22.38563537597656 99.99987030029297 0 77.6142578125 0 50.00022888183594 L 0 49.99964141845703 C 0 22.38559722900391 22.38563537597656 0 49.99972534179688 0 Z" stroke="none" fill="#fff"/>
                </g>
              </g>
              <g id="Trazado_874923" data-name="Trazado 874923" transform="translate(0 0)" fill="none">
                <path d="M50,0a50,50,0,0,1,50,50h0A50,50,0,0,1,0,50H0A50,50,0,0,1,50,0Z" stroke="none"/>
                <path d="M 49.99972534179688 3 C 43.65348052978516 3 37.49866485595703 4.242240905761719 31.70623016357422 6.692230224609375 C 26.10989379882812 9.059272766113281 21.08323669433594 12.44853210449219 16.76589202880859 16.76587677001953 C 12.44855499267578 21.08321380615234 9.059295654296875 26.10985565185547 6.692230224609375 31.70618438720703 C 4.24224853515625 37.49859619140625 3 43.65341186523438 3 50.00022888183594 C 3 56.34645843505859 4.24224853515625 62.50127410888672 6.692230224609375 68.29368591308594 C 9.059295654296875 73.8900146484375 12.44855499267578 78.91665649414062 16.76589202880859 83.23399353027344 C 21.08323669433594 87.55132293701172 26.10989379882812 90.94059753417969 31.70623016357422 93.30764007568359 C 37.49866485595703 95.75762939453125 43.65348052978516 96.99987030029297 49.99972534179688 96.99987030029297 C 56.34597015380859 96.99987030029297 62.50078582763672 95.75762939453125 68.293212890625 93.30764007568359 C 73.88955688476562 90.94059753417969 78.91621398925781 87.55132293701172 83.23355865478516 83.23399353027344 C 87.55089569091797 78.91665649414062 90.94015502929688 73.8900146484375 93.30722045898438 68.29368591308594 C 95.7572021484375 62.50127410888672 96.99945068359375 56.34645843505859 96.99945068359375 49.99964141845703 C 96.99945068359375 43.65341186523438 95.7572021484375 37.49859619140625 93.30722045898438 31.70618438720703 C 90.94015502929688 26.10985565185547 87.55089569091797 21.08321380615234 83.23355865478516 16.76587677001953 C 78.91621398925781 12.44853210449219 73.88955688476562 9.059272766113281 68.293212890625 6.692230224609375 C 62.50078582763672 4.242240905761719 56.34597015380859 3 49.99972534179688 3 M 49.99972534179688 0 C 77.61381530761719 0 99.99945068359375 22.38559722900391 99.99945068359375 49.99964141845703 L 99.99945068359375 50.00022888183594 C 99.99945068359375 77.6142578125 77.61381530761719 99.99987030029297 49.99972534179688 99.99987030029297 C 22.38563537597656 99.99987030029297 0 77.6142578125 0 50.00022888183594 L 0 49.99964141845703 C 0 22.38559722900391 22.38563537597656 0 49.99972534179688 0 Z" stroke="none" fill="#fff"/>
              </g>
            </g>
          </g>
        </g>
      </g>
    </g>
    <g id="g10641" transform="translate(935.789 1623.454)">
      <g id="g10643" transform="translate(0 -682.665)">
        <g id="g10645" transform="translate(0 0)" clip-path="url(#clip-path)">
          <g id="g10651" transform="translate(0.856 0.856)">
            <path id="path10653" d="M-605.954-302.977a28.355,28.355,0,0,1-28.355,28.355,28.355,28.355,0,0,1-28.355-28.355,28.355,28.355,0,0,1,28.355-28.355,28.355,28.355,0,0,1,28.355,28.355" transform="translate(662.665 331.333)" fill="#fa5e97"/>
          </g>
          <g id="g10655" transform="translate(4.636 4.637)">
            <path id="path10657" d="M-331.82-164.776l8.77-8.77a.947.947,0,0,0-.086-1.414A24.468,24.468,0,0,0-338.3-180.2a24.614,24.614,0,0,0-24.575,24.575,24.468,24.468,0,0,0,5.237,15.164.947.947,0,0,0,1.414.086l7.713-7.713Z" transform="translate(362.875 180.197)" fill="#efeff9"/>
          </g>
          <g id="g10659" transform="translate(13.684 13.684)">
            <path id="path10661" d="M-100.028-260.351l-9.085,9.085a.947.947,0,0,0,.086,1.414,24.467,24.467,0,0,0,15.164,5.237A24.614,24.614,0,0,0-69.288-269.19a24.468,24.468,0,0,0-5.237-15.164.947.947,0,0,0-1.414-.086l-8.039,8.039Z" transform="translate(109.39 284.717)" fill="#efeff9"/>
          </g>
          <g id="g10663" transform="translate(27.899 0.856)">
            <path id="path10665" d="M-14.021,0c-.44,0-.877.012-1.312.031A28.355,28.355,0,0,1,11.71,28.355,28.355,28.355,0,0,1-15.333,56.679c.435.02.872.031,1.312.031A28.355,28.355,0,0,0,14.334,28.355,28.355,28.355,0,0,0-14.021,0" transform="translate(15.333)" fill="#d94f88"/>
          </g>
          <g id="g10667" transform="translate(15.033 10.308)">
            <path id="path10669" d="M-271.472-80.817a2.836,2.836,0,0,0-2.44,1.6.149.149,0,0,1-.134.085.149.149,0,0,1-.149-.149v-4.312a2.893,2.893,0,0,0-2.858-2.9,2.836,2.836,0,0,0-2.571,1.69.126.126,0,0,1-.115.076.127.127,0,0,1-.127-.127v-.63a2.887,2.887,0,0,0-2.89-2.9,2.835,2.835,0,0,0-2.781,2.835v2.637a.116.116,0,0,1-.116.116.115.115,0,0,1-.106-.071,2.836,2.836,0,0,0-2.6-1.736,2.877,2.877,0,0,0-2.845,2.9v8.2a.125.125,0,0,1-.125.125.125.125,0,0,1-.114-.076,2.835,2.835,0,0,0-2.606-1.7,2.877,2.877,0,0,0-2.826,2.9v10.333a11.342,11.342,0,0,0,11.342,11.342h5.671a11.342,11.342,0,0,0,11.342-11.342v-16a2.877,2.877,0,0,0-2.949-2.9" transform="translate(296.879 88.38)" fill="#f1b0a2"/>
          </g>
          <g id="g10671" transform="translate(29.422 17.869)">
            <path id="path10673" d="M-117.728-.023A2.815,2.815,0,0,0-118.937.3,2.92,2.92,0,0,1-117.4,2.874v16A11.342,11.342,0,0,1-128.746,30.22h2.624A11.342,11.342,0,0,0-114.78,18.878v-16a2.877,2.877,0,0,0-2.949-2.9" transform="translate(128.746 0.025)" fill="#eb9c8d"/>
          </g>
          <g id="g10675" transform="translate(19.849 13.232)">
            <path id="path10677" d="M-75.411-29.134a.856.856,0,0,1-.856-.856v-9.452a3.7,3.7,0,0,1,3.691-3.691,3.7,3.7,0,0,1,3.691,3.691.856.856,0,0,1-.856.856.856.856,0,0,1-.856-.856,1.982,1.982,0,0,0-1.98-1.98,1.982,1.982,0,0,0-1.98,1.98v9.452A.856.856,0,0,1-75.411-29.134Z" transform="translate(76.266 43.133)"/>
          </g>
          <g id="g10679" transform="translate(25.52 9.452)">
            <path id="path10681" d="M-3.473-200.175a.856.856,0,0,1-.856-.856v-15.123a1.982,1.982,0,0,0-1.98-1.98,1.982,1.982,0,0,0-1.98,1.98v15.123a.856.856,0,0,1-.856.856.856.856,0,0,1-.856-.856v-15.123a3.7,3.7,0,0,1,3.691-3.691,3.7,3.7,0,0,1,3.691,3.691v15.123A.856.856,0,0,1-3.473-200.175Z" transform="translate(10 219.845)"/>
          </g>
          <g id="g10683" transform="translate(31.191 11.342)">
            <path id="path10685" d="M-3.473-24.408a.856.856,0,0,1-.856-.856V-39.442a1.982,1.982,0,0,0-1.98-1.98,1.982,1.982,0,0,0-1.98,1.98.856.856,0,0,1-.856.856A.856.856,0,0,1-10-39.442a3.7,3.7,0,0,1,3.691-3.691,3.7,3.7,0,0,1,3.691,3.691v14.178A.856.856,0,0,1-3.473-24.408Z" transform="translate(10 43.133)"/>
          </g>
          <g id="g10687" transform="translate(14.178 17.013)">
            <path id="path10689" d="M-257.2-11.176h-5.671a12.212,12.212,0,0,1-12.2-12.2V-33.707a3.806,3.806,0,0,1,1.137-2.7,3.628,3.628,0,0,1,2.625-1.056,3.71,3.71,0,0,1,3.62,3.691v4.779a.086.086,0,0,0,.072.087,8.4,8.4,0,0,1,7.49,8.367.856.856,0,0,1-.856.856.856.856,0,0,1-.856-.856A6.692,6.692,0,0,0-267.8-27.2a1.794,1.794,0,0,1-1.6-1.789v-4.779a1.989,1.989,0,0,0-1.941-1.979,1.93,1.93,0,0,0-1.394.566,2.084,2.084,0,0,0-.624,1.477v10.333a10.5,10.5,0,0,0,10.486,10.486h5.671a10.5,10.5,0,0,0,10.486-10.486v-16a2.084,2.084,0,0,0-.624-1.477,1.93,1.93,0,0,0-1.394-.566,1.989,1.989,0,0,0-1.941,1.979.856.856,0,0,1-.856.856.856.856,0,0,1-.856-.856,3.71,3.71,0,0,1,3.62-3.691,3.629,3.629,0,0,1,2.626,1.056,3.806,3.806,0,0,1,1.137,2.7v16A12.212,12.212,0,0,1-257.2-11.176Z" transform="translate(275.066 43.134)"/>
          </g>
          <g id="g10691" transform="translate(0 0)">
            <path id="path10693" d="M-92.4-34.906a29.244,29.244,0,0,1-29.211-29.211,29.171,29.171,0,0,1,7.347-19.371.856.856,0,0,1,1.208-.073.856.856,0,0,1,.073,1.208A27.461,27.461,0,0,0-119.9-64.117a27.531,27.531,0,0,0,27.5,27.5,27.531,27.531,0,0,0,27.5-27.5,27.531,27.531,0,0,0-27.5-27.5A27.461,27.461,0,0,0-110.636-84.7a.856.856,0,0,1-1.208-.073.856.856,0,0,1,.073-1.208A29.171,29.171,0,0,1-92.4-93.328,29.244,29.244,0,0,1-63.189-64.117,29.244,29.244,0,0,1-92.4-34.906Z" transform="translate(121.612 93.328)"/>
          </g>
          <g id="g10695" transform="translate(3.781 12.242)">
            <path id="path10697" d="M-73.748,23.352q-.054,0-.108,0a1.806,1.806,0,0,1-1.311-.687A25.173,25.173,0,0,1-80.586,6.969,25.4,25.4,0,0,1-74.335-9.706a.856.856,0,0,1,1.207-.083.856.856,0,0,1,.083,1.207,23.686,23.686,0,0,0-5.83,15.551A23.477,23.477,0,0,0-73.821,21.6l.741.615-.605-.605,4.27-4.271a.856.856,0,0,1,1.21,0,.856.856,0,0,1,0,1.21l-4.27,4.271A1.8,1.8,0,0,1-73.748,23.352Z" transform="translate(80.586 10)"/>
          </g>
          <g id="g10699" transform="translate(12.242 3.781)">
            <path id="path10701" d="M-272.208-151.412a.853.853,0,0,1-.605-.251.856.856,0,0,1,0-1.21l6.744-6.744-.01-.136a23.478,23.478,0,0,0-14.635-5.054,23.686,23.686,0,0,0-15.551,5.831.856.856,0,0,1-1.207-.083.856.856,0,0,1,.083-1.207,25.4,25.4,0,0,1,16.675-6.251,25.174,25.174,0,0,1,15.693,5.419,1.806,1.806,0,0,1,.687,1.311,1.8,1.8,0,0,1-.524,1.381l-6.744,6.744A.853.853,0,0,1-272.208-151.412Z" transform="translate(297.683 166.518)"/>
          </g>
          <g id="g10703" transform="translate(12.828 12.828)">
            <path id="path10705" d="M-36.978-318.932a25.174,25.174,0,0,1-15.693-5.419,1.806,1.806,0,0,1-.687-1.311,1.8,1.8,0,0,1,.524-1.381l3.434-3.434a.856.856,0,0,1,1.21,0,.856.856,0,0,1,0,1.21l-3.434,3.434.01.136a23.478,23.478,0,0,0,14.635,5.054,23.746,23.746,0,0,0,23.719-23.719A23.478,23.478,0,0,0-18.313-359l-.136-.01-4.66,4.659a.856.856,0,0,1-1.21,0,.856.856,0,0,1,0-1.21l4.66-4.659a1.8,1.8,0,0,1,1.381-.524,1.806,1.806,0,0,1,1.311.687,25.174,25.174,0,0,1,5.419,15.693A25.459,25.459,0,0,1-36.978-318.932Z" transform="translate(53.361 360.746)"/>
          </g>
        </g>
      </g>
    </g>
  </g>
</svg>
