<svg xmlns="http://www.w3.org/2000/svg" xmlns:xlink="http://www.w3.org/1999/xlink" width="117.999" height="118" viewBox="0 0 117.999 118">
  <defs>
    <filter id="Trazado_874925" x="0" y="0" width="117.999" height="118" filterUnits="userSpaceOnUse">
      <feOffset dy="3" input="SourceAlpha"/>
      <feGaussianBlur stdDeviation="3" result="blur"/>
      <feFlood flood-opacity="0.161"/>
      <feComposite operator="in" in2="blur"/>
      <feComposite in="SourceGraphic"/>
    </filter>
  </defs>
  <g id="Grupo_1200406" data-name="Grupo 1200406" transform="translate(-730 -1482)">
    <g id="Grupo_1112485" data-name="Grupo 1112485" transform="translate(-69.5 -1029.157)">
      <g id="Grupo_1111316" data-name="Grupo 1111316" transform="translate(808.5 2517.157)">
        <g id="Grupo_1109835" data-name="Grupo 1109835" transform="translate(0 0)">
          <g id="Grupo_1107913" data-name="Grupo 1107913" transform="translate(0 0)">
            <g transform="matrix(1, 0, 0, 1, -9, -6)" filter="url(#Trazado_874925)">
              <g id="Trazado_874925-2" data-name="Trazado 874925" transform="translate(9 6)" fill="#9ad354" opacity="0.859">
                <path d="M 49.99972534179688 98.4998779296875 C 43.45164108276367 98.4998779296875 37.10022354125977 97.21776580810547 31.12189674377441 94.68914794921875 C 25.34676742553711 92.24647521972656 20.15985298156738 88.74925994873047 15.70523929595947 84.29464721679688 C 11.25062561035156 79.84004974365234 7.753411293029785 74.65313720703125 5.310725212097168 68.87800598144531 C 2.782111167907715 62.89969253540039 1.499996781349182 56.54829406738281 1.499996781349182 50.00022125244141 C 1.499996781349182 43.45157623291016 2.782111167907715 37.10017776489258 5.310725212097168 31.12186431884766 C 7.753411293029785 25.34673500061035 11.25062561035156 20.15983581542969 15.70523929595947 15.70522117614746 C 20.15985298156738 11.25062084197998 25.34676742553711 7.753406524658203 31.12189674377441 5.31073522567749 C 37.10022354125977 2.782120943069458 43.45164108276367 1.500006556510925 49.99972534179688 1.500006556510925 C 56.54780960083008 1.500006556510925 62.89922714233398 2.782120943069458 68.87755584716797 5.31073522567749 C 74.65267944335938 7.753406524658203 79.839599609375 11.25062084197998 84.29421234130859 15.70522117614746 C 88.74882507324219 20.15983581542969 92.24604034423828 25.34673500061035 94.68872833251953 31.12186431884766 C 97.21733856201172 37.10017776489258 98.49945068359375 43.45157623291016 98.49945068359375 49.99964904785156 C 98.49945068359375 56.54829406738281 97.21733856201172 62.89969253540039 94.68872833251953 68.87800598144531 C 92.24604034423828 74.65313720703125 88.74882507324219 79.84004974365234 84.29421234130859 84.29464721679688 C 79.839599609375 88.74925994873047 74.65267944335938 92.24647521972656 68.87755584716797 94.68914794921875 C 62.89922714233398 97.21776580810547 56.54780960083008 98.4998779296875 49.99972534179688 98.4998779296875 Z" stroke="none"/>
                <path d="M 49.99972534179688 3 C 43.65348052978516 3 37.49866485595703 4.242240905761719 31.70623016357422 6.692230224609375 C 26.10989379882812 9.059272766113281 21.08323669433594 12.44853210449219 16.76589202880859 16.76587677001953 C 12.44855499267578 21.08321380615234 9.059295654296875 26.10985565185547 6.692230224609375 31.70618438720703 C 4.24224853515625 37.49859619140625 3 43.65341186523438 3 50.00022888183594 C 3 56.34645843505859 4.24224853515625 62.50127410888672 6.692230224609375 68.29368591308594 C 9.059295654296875 73.8900146484375 12.44855499267578 78.91665649414062 16.76589202880859 83.23399353027344 C 21.08323669433594 87.55132293701172 26.10989379882812 90.94059753417969 31.70623016357422 93.30764007568359 C 37.49866485595703 95.75762939453125 43.65348052978516 96.99987030029297 49.99972534179688 96.99987030029297 C 56.34597015380859 96.99987030029297 62.50078582763672 95.75762939453125 68.293212890625 93.30764007568359 C 73.88955688476562 90.94059753417969 78.91621398925781 87.55132293701172 83.23355865478516 83.23399353027344 C 87.55089569091797 78.91665649414062 90.94015502929688 73.8900146484375 93.30722045898438 68.29368591308594 C 95.7572021484375 62.50127410888672 96.99945068359375 56.34645843505859 96.99945068359375 49.99964141845703 C 96.99945068359375 43.65341186523438 95.7572021484375 37.49859619140625 93.30722045898438 31.70618438720703 C 90.94015502929688 26.10985565185547 87.55089569091797 21.08321380615234 83.23355865478516 16.76587677001953 C 78.91621398925781 12.44853210449219 73.88955688476562 9.059272766113281 68.293212890625 6.692230224609375 C 62.50078582763672 4.242240905761719 56.34597015380859 3 49.99972534179688 3 M 49.99972534179688 0 C 77.61381530761719 0 99.99945068359375 22.38559722900391 99.99945068359375 49.99964141845703 L 99.99945068359375 50.00022888183594 C 99.99945068359375 77.6142578125 77.61381530761719 99.99987030029297 49.99972534179688 99.99987030029297 C 22.38563537597656 99.99987030029297 0 77.6142578125 0 50.00022888183594 L 0 49.99964141845703 C 0 22.38559722900391 22.38563537597656 0 49.99972534179688 0 Z" stroke="none" fill="#fff"/>
              </g>
            </g>
            <g id="Trazado_874923" data-name="Trazado 874923" transform="translate(0 0)" fill="none">
              <path d="M50,0a50,50,0,0,1,50,50h0A50,50,0,0,1,0,50H0A50,50,0,0,1,50,0Z" stroke="none"/>
              <path d="M 49.99972534179688 3 C 43.65348052978516 3 37.49866485595703 4.242240905761719 31.70623016357422 6.692230224609375 C 26.10989379882812 9.059272766113281 21.08323669433594 12.44853210449219 16.76589202880859 16.76587677001953 C 12.44855499267578 21.08321380615234 9.059295654296875 26.10985565185547 6.692230224609375 31.70618438720703 C 4.24224853515625 37.49859619140625 3 43.65341186523438 3 50.00022888183594 C 3 56.34645843505859 4.24224853515625 62.50127410888672 6.692230224609375 68.29368591308594 C 9.059295654296875 73.8900146484375 12.44855499267578 78.91665649414062 16.76589202880859 83.23399353027344 C 21.08323669433594 87.55132293701172 26.10989379882812 90.94059753417969 31.70623016357422 93.30764007568359 C 37.49866485595703 95.75762939453125 43.65348052978516 96.99987030029297 49.99972534179688 96.99987030029297 C 56.34597015380859 96.99987030029297 62.50078582763672 95.75762939453125 68.293212890625 93.30764007568359 C 73.88955688476562 90.94059753417969 78.91621398925781 87.55132293701172 83.23355865478516 83.23399353027344 C 87.55089569091797 78.91665649414062 90.94015502929688 73.8900146484375 93.30722045898438 68.29368591308594 C 95.7572021484375 62.50127410888672 96.99945068359375 56.34645843505859 96.99945068359375 49.99964141845703 C 96.99945068359375 43.65341186523438 95.7572021484375 37.49859619140625 93.30722045898438 31.70618438720703 C 90.94015502929688 26.10985565185547 87.55089569091797 21.08321380615234 83.23355865478516 16.76587677001953 C 78.91621398925781 12.44853210449219 73.88955688476562 9.059272766113281 68.293212890625 6.692230224609375 C 62.50078582763672 4.242240905761719 56.34597015380859 3 49.99972534179688 3 M 49.99972534179688 0 C 77.61381530761719 0 99.99945068359375 22.38559722900391 99.99945068359375 49.99964141845703 L 99.99945068359375 50.00022888183594 C 99.99945068359375 77.6142578125 77.61381530761719 99.99987030029297 49.99972534179688 99.99987030029297 C 22.38563537597656 99.99987030029297 0 77.6142578125 0 50.00022888183594 L 0 49.99964141845703 C 0 22.38559722900391 22.38563537597656 0 49.99972534179688 0 Z" stroke="none" fill="#fff"/>
            </g>
          </g>
        </g>
      </g>
    </g>
    <g id="conversacion" transform="translate(760 1502.642)">
      <path id="Trazado_901788" data-name="Trazado 901788" d="M27.412,308.846v10.766a8.941,8.941,0,0,1-12.641,8.134h0a8.94,8.94,0,0,1-5.147-6.907,2.882,2.882,0,1,1,2.989-4.759l.751-4.3.512-2.93H27.412Z" transform="translate(-6.812 -266.984)" fill="#fcd2be"/>
      <path id="Trazado_901789" data-name="Trazado 901789" d="M14.77,350.415a8.941,8.941,0,0,1-5.147-6.907,2.882,2.882,0,1,1,2.989-4.759l.751-4.3,2.353.478C14.726,336.634,10.548,342.875,14.77,350.415Z" transform="translate(-6.811 -289.654)" fill="#fab998"/>
      <path id="Trazado_901790" data-name="Trazado 901790" d="M45.887,270.779a7.764,7.764,0,0,1-7.764,7.764H30.013v.721a3.1,3.1,0,0,1-3.1,3.1,2.883,2.883,0,0,0-3.072-.652v-3.171a7.765,7.765,0,0,1,7.764-7.764Z" transform="translate(-21.109 -233.274)" fill="#f9ce55"/>
      <path id="Trazado_901791" data-name="Trazado 901791" d="M37.938,270.779H31.6a7.765,7.765,0,0,0-7.764,7.764v3.171a2.883,2.883,0,0,1,3.072.652,3.1,3.1,0,0,0,3.1-3.1v-.721h.16A7.765,7.765,0,0,1,37.938,270.779Z" transform="translate(-21.109 -233.274)" fill="#e2a11e"/>
      <path id="Trazado_901792" data-name="Trazado 901792" d="M71.861,64.264H49.816a2.531,2.531,0,0,0-2.531,2.531V77.927a2.531,2.531,0,0,0,2.531,2.531h12.43v4.576l4.082-4.576h5.533a2.531,2.531,0,0,0,2.531-2.531V66.795A2.531,2.531,0,0,0,71.861,64.264Z" transform="translate(-41.873 -50.393)" fill="#3facc9"/>
      <path id="Trazado_901793" data-name="Trazado 901793" d="M245.211,15.048h22.045a2.531,2.531,0,0,1,2.531,2.531V28.711a2.531,2.531,0,0,1-2.531,2.531h-12.43v4.576l-4.082-4.576h-5.533a2.531,2.531,0,0,1-2.531-2.531V17.579A2.531,2.531,0,0,1,245.211,15.048Z" transform="translate(-214.906 -6.81)" fill="#00c7a9"/>
      <path id="Trazado_901794" data-name="Trazado 901794" d="M328.673,282.126l-.045-.019a8.065,8.065,0,0,1-4.575-7.4l-13.525-13.36c-.634-2.345-.439-6.464,5.383-6.938q.544-.046,1.155-.046c6.948,0,13.766.559,15.209,10.786C333.24,271.991,330.732,278.639,328.673,282.126Z" transform="translate(-274.771 -218.736)" fill="#6b4b3d"/>
      <path id="Trazado_901795" data-name="Trazado 901795" d="M372.239,282.126l-.045-.019a.015.015,0,0,0,0-.007c2.347-19.95-6.689-27.691-12.718-27.691q.544-.046,1.155-.046c6.948,0,13.766.559,15.209,10.786C376.8,271.991,374.3,278.639,372.239,282.126Z" transform="translate(-318.336 -218.736)" fill="#5b3d2d"/>
      <path id="Trazado_901796" data-name="Trazado 901796" d="M329.847,312.694a2.663,2.663,0,0,1-1,.632,8.242,8.242,0,0,1-16.407-1.13v-6.958s3.654.131,5.1-1.311a7.444,7.444,0,0,0,6.618,2.979h0a7.82,7.82,0,0,0,1.935-.355v2.388h0a2.658,2.658,0,0,1,3.759,3.759Z" transform="translate(-276.68 -262.628)" fill="#fcd2be"/>
      <path id="Trazado_901797" data-name="Trazado 901797" d="M408.733,332.983a2.663,2.663,0,0,1-1,.632,8.245,8.245,0,0,1-6.212,6.878c4.281-2.348,1.556-13.153,1.52-13.3h0a7.822,7.822,0,0,0,1.935-.355v2.387h0a2.658,2.658,0,0,1,3.759,3.759Z" transform="translate(-355.566 -282.917)" fill="#fab998"/>
      <path id="Trazado_901798" data-name="Trazado 901798" d="M107.429,366.427v-1.478a.88.88,0,0,0-1.76,0v1.478a.88.88,0,1,0,1.76,0Z" transform="translate(-93.576 -315.887)"/>
      <path id="Trazado_901799" data-name="Trazado 901799" d="M139.244,364.949v1.478a.88.88,0,1,0,1.76,0v-1.478a.88.88,0,0,0-1.76,0Z" transform="translate(-123.308 -315.887)"/>
      <path id="Trazado_901800" data-name="Trazado 901800" d="M78.9,417.619a.88.88,0,1,0-1.528.873,5.067,5.067,0,0,0,4.375,2.518h.048a.88.88,0,0,0,.046-1.759A3.346,3.346,0,0,1,78.9,417.619Z" transform="translate(-68.413 -362.916)"/>
      <path id="Trazado_901801" data-name="Trazado 901801" d="M24.777,263.094H10.492a8.653,8.653,0,0,0-8.644,8.644.88.88,0,1,0,1.76,0,6.891,6.891,0,0,1,6.883-6.883H23.841a6.894,6.894,0,0,1-6.827,6H8.9a.88.88,0,0,0-.88.88v.72a2.227,2.227,0,0,1-1.914,2.2,3.766,3.766,0,0,0-3.7-.573,3.765,3.765,0,0,0-.394,6.849A9.817,9.817,0,0,0,21.48,279.1v-5.025a.88.88,0,1,0-1.76,0V279.1A8.056,8.056,0,0,1,3.684,280.2a.881.881,0,0,0-.58-.711,2,2,0,0,1-.757-3.306,1.976,1.976,0,0,1,.7-.455,2,2,0,0,1,2.13.449.88.88,0,0,0,.67.262,3.989,3.989,0,0,0,3.938-3.824h7.233a8.653,8.653,0,0,0,8.644-8.644A.88.88,0,0,0,24.777,263.094Z" transform="translate(0 -226.468)"/>
      <path id="Trazado_901802" data-name="Trazado 901802" d="M67.581,70.237a.88.88,0,0,0-.88.88,1.653,1.653,0,0,1-1.651,1.651H59.517a.88.88,0,0,0-.657.294l-2.545,2.853V73.648a.88.88,0,0,0-.88-.88H43.005a1.653,1.653,0,0,1-1.651-1.651V59.985a1.653,1.653,0,0,1,1.651-1.651H59.836a.88.88,0,0,0,0-1.76H43.005a3.415,3.415,0,0,0-3.411,3.411V71.117a3.415,3.415,0,0,0,3.411,3.411h11.55v3.7a.88.88,0,0,0,1.537.586l3.819-4.282H65.05a3.415,3.415,0,0,0,3.411-3.411A.88.88,0,0,0,67.581,70.237Z" transform="translate(-35.063 -43.583)"/>
      <path id="Trazado_901803" data-name="Trazado 901803" d="M238.4,25.312h5.138l3.819,4.282a.88.88,0,0,0,1.537-.586v-3.7h11.55a3.415,3.415,0,0,0,3.411-3.411V10.769a3.415,3.415,0,0,0-3.411-3.411h-2a.88.88,0,1,0,0,1.76h2a1.653,1.653,0,0,1,1.651,1.651V21.9a1.653,1.653,0,0,1-1.651,1.651H248.014a.88.88,0,0,0-.88.88V26.7l-2.545-2.853a.881.881,0,0,0-.657-.294H238.4a1.653,1.653,0,0,1-1.651-1.651V10.769A1.653,1.653,0,0,1,238.4,9.118h17.227a.88.88,0,0,0,0-1.76H238.4a3.415,3.415,0,0,0-3.411,3.411V21.9A3.415,3.415,0,0,0,238.4,25.312Z" transform="translate(-208.096 0)"/>
      <path id="Trazado_901804" data-name="Trazado 901804" d="M355.948,46.32h-9.923a.88.88,0,0,0,0,1.76h9.923a.88.88,0,1,0,0-1.76Z" transform="translate(-305.644 -34.503)"/>
      <path id="Trazado_901805" data-name="Trazado 901805" d="M275.858,48.081h5.1a.88.88,0,0,0,0-1.76h-5.1a.88.88,0,1,0,0,1.76Z" transform="translate(-243.508 -34.504)"/>
      <path id="Trazado_901806" data-name="Trazado 901806" d="M409.065,77.849h-3.059a.88.88,0,0,0,0,1.76h3.059a.88.88,0,1,0,0-1.76Z" transform="translate(-358.761 -62.424)"/>
      <path id="Trazado_901807" data-name="Trazado 901807" d="M275.858,79.61h11.961a.88.88,0,1,0,0-1.76H275.858a.88.88,0,1,0,0,1.76Z" transform="translate(-243.508 -62.424)"/>
      <path id="Trazado_901808" data-name="Trazado 901808" d="M275.858,111.138h12.489a.88.88,0,1,0,0-1.76H275.858a.88.88,0,1,0,0,1.76Z" transform="translate(-243.508 -90.344)"/>
      <path id="Trazado_901809" data-name="Trazado 901809" d="M77.968,94.22h5.1a.88.88,0,1,0,0-1.76h-5.1a.88.88,0,0,0,0,1.76Z" transform="translate(-68.266 -75.362)"/>
      <path id="Trazado_901810" data-name="Trazado 901810" d="M158.426,94.22a.88.88,0,1,0,0-1.76h-5.1a.88.88,0,1,0,0,1.76Z" transform="translate(-135.003 -75.362)"/>
      <path id="Trazado_901811" data-name="Trazado 901811" d="M77.968,123.988a.88.88,0,1,0,0,1.76H93.391a.88.88,0,0,0,0-1.76Z" transform="translate(-68.266 -103.282)"/>
      <path id="Trazado_901812" data-name="Trazado 901812" d="M125.577,155.517a.88.88,0,1,0,0,1.76h7.04a.88.88,0,0,0,0-1.76Z" transform="translate(-110.426 -131.203)"/>
      <path id="Trazado_901813" data-name="Trazado 901813" d="M77.968,155.517a.88.88,0,1,0,0,1.76h2.515a.88.88,0,1,0,0-1.76Z" transform="translate(-68.266 -131.203)"/>
      <path id="Trazado_901814" data-name="Trazado 901814" d="M367.977,341.991v-1.363a.88.88,0,1,0-1.76,0v1.363a.88.88,0,0,0,1.76,0Z" transform="translate(-324.305 -294.349)"/>
      <path id="Trazado_901815" data-name="Trazado 901815" d="M337.008,341.991v-1.363a.88.88,0,1,0-1.76,0v1.363a.88.88,0,1,0,1.76,0Z" transform="translate(-296.88 -294.349)"/>
      <path id="Trazado_901816" data-name="Trazado 901816" d="M362.944,391.574a.88.88,0,0,0,.878.833h.048a4.74,4.74,0,0,0,4.091-2.357.88.88,0,1,0-1.528-.873,3.022,3.022,0,0,1-2.657,1.472A.88.88,0,0,0,362.944,391.574Z" transform="translate(-321.406 -337.727)"/>
      <path id="Trazado_901817" data-name="Trazado 901817" d="M435.891,278.929c-.558-3.955-1.916-6.788-4.153-8.661a.88.88,0,0,0-1.13,1.35c1.888,1.581,3.046,4.052,3.54,7.557a26.653,26.653,0,0,1-3.073,15.672,7.191,7.191,0,0,1-3.051-3.891.88.88,0,1,0-1.679.53,8.961,8.961,0,0,0,4.737,5.358.88.88,0,0,0,1.093-.366A28.581,28.581,0,0,0,435.891,278.929Z" transform="translate(-377.516 -232.64)"/>
      <path id="Trazado_901818" data-name="Trazado 901818" d="M320.913,263.227a3.539,3.539,0,0,0-2.668-6.516v-.873a.88.88,0,0,0-1.177-.829,6.924,6.924,0,0,1-7.56-2.33.88.88,0,0,0-1.32-.085c-.714.714-2.473,1-3.767,1.051a4.34,4.34,0,0,1,.684-3.424c.913-1.193,2.645-1.8,5.148-1.8,2.868,0,5.877.081,8.36,1.053a.88.88,0,0,0,.641-1.639c-2.769-1.083-5.965-1.174-9-1.174-3.079,0-5.281.837-6.545,2.488a6.566,6.566,0,0,0-.842,5.606.88.88,0,0,0,.818.65,10.657,10.657,0,0,0,4.989-.991,8.2,8.2,0,0,0,5.652,2.662,9.663,9.663,0,0,0,2.16-.124v1.272a.881.881,0,0,0,1.505.62,1.781,1.781,0,0,1,1.9-.4,1.778,1.778,0,0,1,.617,2.916,1.776,1.776,0,0,1-.672.424.88.88,0,0,0-.58.711,7.362,7.362,0,0,1-14.655-1.011v-3.979a.88.88,0,1,0-1.76,0v3.979a9.123,9.123,0,0,0,18.078,1.741Z" transform="translate(-267.957 -211.918)"/>
    </g>
  </g>
</svg>
